<svg width="48" height="48" viewBox="0 0 48 48" fill="none" xmlns="http://www.w3.org/2000/svg">
<path d="M13.1116 34.7491C11.8379 33.4157 10.8342 31.8911 10.1006 30.1752C9.36685 28.4592 9 26.7018 9 24.9029C9 22.9055 9.3673 20.9946 10.1019 19.1702C10.8365 17.3459 11.9641 15.6734 13.4846 14.1529C14.7538 12.8731 16.3705 11.8743 18.3346 11.1565C20.2987 10.4387 22.4237 9.91252 24.7096 9.57792C26.9955 9.24329 29.3526 9.0561 31.7808 9.01637C34.209 8.9766 36.5346 9.00929 38.7577 9.11442C38.8962 11.3555 38.9494 13.6984 38.9173 16.1433C38.8853 18.5882 38.6955 20.9533 38.3481 23.2385C38.0007 25.5238 37.4571 27.6447 36.7173 29.6013C35.9776 31.5578 34.9769 33.17 33.7152 34.4379C32.2307 35.9633 30.6013 37.0952 28.827 37.8337C27.0526 38.5721 25.224 38.9414 23.3412 38.9414C21.4086 38.9414 19.5545 38.5882 17.7788 37.8818C16.0032 37.1754 14.4475 36.1311 13.1116 34.7491ZM16.2615 35.2683C17.2487 35.9632 18.3692 36.4927 19.6231 36.8568C20.8769 37.2209 22.1156 37.4029 23.3391 37.4029C25.0047 37.4029 26.6345 37.0683 28.2284 36.3991C29.8223 35.7298 31.2898 34.708 32.6308 33.3337C33.3721 32.5875 34.0506 31.5856 34.6662 30.3279C35.2817 29.0702 35.8005 27.5138 36.2225 25.6587C36.6446 23.8035 36.9534 21.6324 37.149 19.1452C37.3445 16.658 37.3885 13.799 37.2808 10.5683C34.968 10.5016 32.666 10.5176 30.375 10.6164C28.084 10.7151 25.9372 10.9452 23.9346 11.3068C21.932 11.6683 20.132 12.1574 18.5346 12.7741C16.9372 13.3907 15.6538 14.1875 14.6846 15.1644C13.259 16.5978 12.2115 18.1401 11.5423 19.7914C10.8731 21.4426 10.5384 23.0119 10.5384 24.4991C10.5384 26.1503 10.8865 27.8253 11.5827 29.5241C12.2788 31.2228 13.2423 32.6183 14.4731 33.7106C15.4448 31.0593 16.85 28.6132 18.6885 26.3721C20.5269 24.1311 22.9449 22.0939 25.9423 20.2606C23.4269 22.4529 21.3846 24.7382 19.8154 27.1164C18.2462 29.4946 17.0615 32.2119 16.2615 35.2683Z" fill="#1C1B1F"/>
</svg>
