<svg width="38" height="36" viewBox="0 0 38 36" fill="none" xmlns="http://www.w3.org/2000/svg">
<path d="M19.3167 35.7901C19.1056 35.7901 18.9208 35.711 18.7625 35.5526C18.6042 35.3943 18.525 35.192 18.525 34.9457C18.525 34.7346 18.6042 34.5498 18.7625 34.3915C18.9208 34.2332 19.1056 34.154 19.3167 34.154H32.9861C33.338 34.154 33.637 34.0309 33.8833 33.7846C34.1296 33.5383 34.2528 33.2392 34.2528 32.8873V16.8957C34.2528 14.8549 33.8394 12.9198 33.0125 11.0901C32.1857 9.2605 31.0773 7.65077 29.6875 6.26096C28.2977 4.87114 26.6792 3.77161 24.8319 2.96235C22.9847 2.15309 21.0407 1.74846 19 1.74846C16.9593 1.74846 15.0153 2.15309 13.1681 2.96235C11.3208 3.77161 9.70232 4.87114 8.3125 6.26096C6.92269 7.65077 5.81435 9.2605 4.9875 11.0901C4.16065 12.9198 3.74722 14.8549 3.74722 16.8957V29.0346C3.74722 29.2457 3.69444 29.3952 3.58889 29.4832C3.48333 29.5711 3.34259 29.6151 3.16667 29.6151C2.28704 29.6151 1.53935 29.3073 0.923611 28.6915C0.30787 28.0758 0 27.3281 0 26.4485V22.2262C0 21.6281 0.193519 21.0739 0.580556 20.5637C0.967593 20.0536 1.47778 19.6049 2.11111 19.2179L2.16389 16.4207C2.23426 14.1336 2.72685 11.9961 3.64167 10.0082C4.55648 8.02022 5.77917 6.28735 7.30972 4.80957C8.84028 3.33179 10.6083 2.17068 12.6139 1.32624C14.6194 0.481793 16.7481 0.0595703 19 0.0595703C21.2519 0.0595703 23.3894 0.472996 25.4125 1.29985C27.4356 2.1267 29.2037 3.27902 30.7167 4.75679C32.2296 6.23457 33.4435 7.96744 34.3583 9.9554C35.2731 11.9434 35.7657 14.0985 35.8361 16.4207L35.8889 19.1123C36.5222 19.429 37.0324 19.8336 37.4194 20.3262C37.8065 20.8188 38 21.3466 38 21.9096V26.7651C38 27.3281 37.8065 27.8559 37.4194 28.3485C37.0324 28.8411 36.5222 29.2457 35.8889 29.5623V32.8873C35.8889 33.6614 35.5986 34.3387 35.0181 34.9193C34.4375 35.4998 33.7602 35.7901 32.9861 35.7901H19.3167ZM13.4583 21.1179C13.1065 21.1179 12.7898 20.9772 12.5083 20.6957C12.2269 20.4142 12.0861 20.0799 12.0861 19.6929C12.0861 19.3411 12.2269 19.0244 12.5083 18.7429C12.7898 18.4614 13.1241 18.3207 13.5111 18.3207C13.863 18.3207 14.1796 18.4614 14.4611 18.7429C14.7426 19.0244 14.8833 19.3411 14.8833 19.6929C14.8833 20.0799 14.7426 20.4142 14.4611 20.6957C14.1796 20.9772 13.8454 21.1179 13.4583 21.1179ZM24.5417 21.1179C24.1546 21.1179 23.8204 20.9772 23.5389 20.6957C23.2574 20.4142 23.1167 20.0799 23.1167 19.6929C23.1167 19.3411 23.2574 19.0244 23.5389 18.7429C23.8204 18.4614 24.1546 18.3207 24.5417 18.3207C24.8935 18.3207 25.2102 18.4614 25.4917 18.7429C25.7731 19.0244 25.9139 19.3411 25.9139 19.6929C25.9139 20.0799 25.7731 20.4142 25.4917 20.6957C25.2102 20.9772 24.8935 21.1179 24.5417 21.1179ZM7.86389 17.7929C7.72315 15.9633 7.96944 14.292 8.60278 12.779C9.23611 11.2661 10.0894 9.99059 11.1625 8.95263C12.2356 7.91466 13.4759 7.1142 14.8833 6.55124C16.2907 5.98827 17.6981 5.70679 19.1056 5.70679C21.9204 5.70679 24.3218 6.60401 26.3097 8.39846C28.2977 10.1929 29.5204 12.4272 29.9778 15.1012C27.0574 15.0661 24.4537 14.2744 22.1667 12.7262C19.8796 11.1781 18.1204 9.19013 16.8889 6.76235C16.3963 9.2605 15.3407 11.486 13.7222 13.4387C12.1037 15.3915 10.1509 16.8429 7.86389 17.7929Z" fill="#292B2E"/>
</svg>
