<svg width="48" height="48" viewBox="0 0 48 48" fill="none" xmlns="http://www.w3.org/2000/svg">
<path d="M19.9192 39.6154V31.531C18.0525 31.3975 16.209 31.2141 14.3885 30.9807C12.568 30.7474 10.7539 30.4346 8.94615 30.0423C8.71795 29.9936 8.5173 29.8776 8.3442 29.6943C8.17113 29.5109 8.10897 29.3116 8.1577 29.0961C8.2064 28.8551 8.34935 28.6859 8.58655 28.5884C8.82372 28.491 9.07307 28.4667 9.3346 28.5154C11.7474 29.0487 14.1792 29.4301 16.6298 29.6596C19.0804 29.8891 21.5371 30.0039 24 30.0039C26.4629 30.0039 28.9196 29.8891 31.3703 29.6596C33.8209 29.4301 36.2526 29.0487 38.6654 28.5154C38.9269 28.4667 39.1744 28.4898 39.4077 28.5849C39.641 28.68 39.7821 28.844 39.8308 29.0769C39.8795 29.3051 39.8154 29.5128 39.6384 29.7C39.4615 29.8872 39.2423 30.0051 38.9808 30.0539C37.1808 30.4462 35.3706 30.7571 33.5503 30.9866C31.73 31.216 29.9068 31.4013 28.0808 31.5423V39.6154C28.0808 40.0167 27.9504 40.3478 27.6895 40.6087C27.4286 40.8695 27.0975 41 26.6961 41H21.3039C20.9025 41 20.5714 40.8695 20.3105 40.6087C20.0497 40.3478 19.9192 40.0167 19.9192 39.6154ZM24.0054 26.3C23.1044 26.3 22.3404 25.9889 21.7135 25.3666C21.0865 24.7443 20.7731 23.9835 20.7731 23.084C20.7731 22.1793 21.0842 21.4134 21.7065 20.7865C22.3288 20.1596 23.0896 19.8462 23.9891 19.8462C24.8938 19.8462 25.6596 20.1565 26.2866 20.7773C26.9135 21.398 27.2269 22.1615 27.2269 23.0677C27.2269 23.9687 26.9166 24.7327 26.2958 25.3596C25.6751 25.9865 24.9116 26.3 24.0054 26.3ZM9.7692 20.7693C9.27433 20.7693 8.85575 20.5981 8.51345 20.2557C8.17115 19.9134 8 19.4914 8 18.9895C8 18.535 8.17115 18.1282 8.51345 17.7692C8.85575 17.4102 9.27787 17.2308 9.7798 17.2308C10.2343 17.2308 10.641 17.4092 11 17.766C11.359 18.1228 11.5385 18.5342 11.5385 19C11.5385 19.4949 11.36 19.9134 11.0032 20.2557C10.6464 20.5981 10.235 20.7693 9.7692 20.7693ZM38.2308 20.7693C37.7359 20.7693 37.3173 20.5981 36.975 20.2557C36.6327 19.9134 36.4616 19.4914 36.4616 18.9895C36.4616 18.535 36.6327 18.1282 36.975 17.7692C37.3173 17.4102 37.7394 17.2308 38.2414 17.2308C38.6959 17.2308 39.1026 17.4092 39.4616 17.766C39.8205 18.1228 40 18.5342 40 19C40 19.4949 39.8216 19.9134 39.4648 20.2557C39.1079 20.5981 38.6966 20.7693 38.2308 20.7693ZM14.8846 13.4615C14.3897 13.4615 13.9711 13.2904 13.6288 12.9481C13.2866 12.6058 13.1154 12.1837 13.1154 11.6818C13.1154 11.2273 13.2866 10.8205 13.6288 10.4615C13.9711 10.1025 14.3933 9.92305 14.8952 9.92305C15.3497 9.92305 15.7564 10.1015 16.1154 10.4583C16.4744 10.8152 16.6538 11.2265 16.6538 11.6923C16.6538 12.1872 16.4754 12.6058 16.1186 12.9481C15.7618 13.2904 15.3504 13.4615 14.8846 13.4615ZM33.1154 13.4615C32.6205 13.4615 32.2019 13.2904 31.8596 12.9481C31.5173 12.6058 31.3461 12.1837 31.3461 11.6818C31.3461 11.2273 31.5173 10.8205 31.8596 10.4615C32.2019 10.1025 32.6241 9.92305 33.1259 9.92305C33.5805 9.92305 33.9872 10.1015 34.3461 10.4583C34.7051 10.8152 34.8846 11.2265 34.8846 11.6923C34.8846 12.1872 34.7062 12.6058 34.3493 12.9481C33.9925 13.2904 33.5812 13.4615 33.1154 13.4615ZM24 10.5385C23.5051 10.5385 23.0866 10.3673 22.7443 10.025C22.4019 9.6827 22.2308 9.26058 22.2308 8.75865C22.2308 8.30415 22.4019 7.89742 22.7443 7.53845C23.0866 7.17948 23.5086 7 24.0105 7C24.465 7 24.8718 7.17842 25.2307 7.53525C25.5897 7.89208 25.7693 8.3034 25.7693 8.7692C25.7693 9.2641 25.5908 9.6827 25.234 10.025C24.8771 10.3673 24.4658 10.5385 24 10.5385Z" fill="#1C1B1F"/>
</svg>
