<svg width="196" height="206" viewBox="0 0 196 206" fill="none" xmlns="http://www.w3.org/2000/svg">
<path d="M190.348 96.2873C190.102 102.245 187.11 105.979 181.389 107.837C182.187 108.546 182.739 109.038 183.23 109.474C191.019 116.406 198.535 123.645 205.557 131.439C210.155 136.523 214.473 141.799 217.894 147.711C219.18 149.848 220.24 152.115 221.129 154.45C221.74 155.986 222.016 157.776 222.053 159.463C222.092 163.248 219.689 166.073 216.013 166.992C214.004 167.521 211.907 167.53 209.962 167.123C206.542 166.396 203.177 165.607 199.854 164.525C190.894 161.626 182.292 157.831 173.799 153.913C163.334 149.122 152.979 144.209 142.569 139.358C141.969 139.044 141.253 138.738 140.298 138.329C140.576 139.128 140.78 139.64 140.983 140.152C141.743 142.262 141.8 144.298 140.328 146.076C138.746 147.977 136.676 148.451 134.43 147.887C132.656 147.411 130.752 146.709 129.074 145.878C122.246 142.559 115.898 138.454 109.549 134.349C97.453 126.452 85.7335 118.009 74.5552 108.833C65.0263 101.016 55.8874 92.8831 48.0083 83.335C45.0665 79.7246 42.289 75.9295 40.3046 71.7371C39.2445 69.4703 38.3553 67.1349 38.0948 64.587C37.4184 58.8013 40.1879 54.207 45.6627 52.1304C48.4581 51.0886 51.409 50.7366 54.3796 50.733C60.2047 50.7329 65.918 51.8464 71.4735 53.2607C72.3607 53.4987 73.364 53.7298 74.4703 53.7216C74.1023 53.3942 73.7343 53.0667 73.4276 52.7938C66.8976 47.5344 60.5254 41.9742 55.036 35.5453C52.5433 32.6653 50.3309 29.5936 48.6181 26.0842C47.4288 23.592 46.4651 20.9698 46.3076 18.1826C46.0189 13.0728 48.0084 9.10801 52.2762 6.28819C54.6905 4.68665 57.3151 3.71338 60.2112 3.42296C63.6265 3.0431 67.0419 2.66324 70.4287 2.80945C76.0347 3.05548 81.5508 3.773 87.17 4.25129C87.9893 4.31862 88.6925 4.39292 90.0376 4.48694C89.3563 3.77043 89.0431 3.38139 88.6138 2.99933C84.9337 -0.275476 81.1988 -3.48873 77.683 -6.94819C75.7138 -8.81089 73.957 -11.0359 72.3164 -13.2679C71.3088 -14.6057 70.5203 -16.1898 69.964 -17.7877C67.9622 -23.319 70.0087 -28.336 75.2732 -31.0409C78.1038 -32.4926 81.219 -33.0293 84.4087 -33.279C85.5084 -33.4033 86.6148 -33.4115 88.008 -33.4952C87.5721 -33.9934 87.3202 -34.3278 87.0136 -34.6007C85.6576 -35.9176 84.2469 -37.1729 83.0006 -38.6129C82.1287 -39.6093 81.3599 -40.845 80.8233 -42.0945C79.3361 -45.734 80.8196 -49.3772 84.4015 -50.9323C85.8234 -51.542 87.4905 -51.9334 88.9452 -51.9625C91.6835 -51.9522 94.4833 -51.8872 97.1931 -51.3508C102.674 -50.2233 108.1 -49.0343 113.492 -47.4353C121.503 -44.8284 129.35 -42.0368 137.245 -39.423C138.61 -38.9805 140.036 -38.4835 141.449 -38.2188C154.275 -35.9593 166.516 -31.6837 178.291 -26.3896C197.652 -17.7639 215.847 -7.08731 232.876 5.64023C239.748 10.7626 246.236 16.3158 251.787 22.7993C253.966 25.2903 255.92 27.9113 257.258 30.9772C257.931 32.5681 258.61 34.2753 258.824 36.0103C259.47 40.2247 257.29 43.9096 253.237 45.3765C251.583 46.0002 249.8 46.3986 248.052 46.387C244.384 46.4324 240.704 46.2456 237.065 45.7649C229.849 44.8581 222.819 43.1245 215.844 41.3293C215.135 41.1389 214.486 41.003 213.503 41.1204C214.061 41.7277 214.558 42.2805 215.062 42.9494C216.008 44.2326 217.009 45.4543 217.785 46.8061C220.648 52.1109 217.775 56.9444 211.779 57.0131C209.915 57.0085 207.921 56.7786 206.092 56.3641C202.079 55.4398 198.052 54.2833 194.142 53.1197C190.703 52.0445 187.318 50.9076 183.653 49.9624C183.967 50.3515 184.341 50.7951 184.709 51.1226C191.121 57.3796 197.307 63.7666 202.829 70.7762C205.716 74.4482 208.548 78.1818 210.594 82.4286C211.457 84.2995 212.326 86.2865 212.731 88.3014C213.785 93.5401 210.75 97.5676 205.429 98.2367C203.749 98.3959 202 98.3843 200.301 98.1951C197.542 97.8363 194.881 97.1222 192.171 96.5857C191.645 96.559 191.058 96.4778 190.348 96.2873Z" fill="#EDFFF4"/>
<path d="M76.2554 8.82472C69.422 3.7566 66.5178 -3.36153 64.8094 -11.1061C63.8414 -15.4339 63.3858 -19.8187 63.9553 -24.2604C64.183 -26.1396 64.5247 -27.9618 65.322 -29.6702C65.8345 -30.6952 66.4039 -31.6632 67.2011 -32.5174C68.6817 -34.1119 70.7317 -34.3966 72.7248 -33.4855C73.9776 -32.916 75.0026 -31.948 75.8568 -30.923C77.3374 -29.1007 78.4193 -27.0507 79.2735 -24.8868C81.5513 -19.1923 82.2916 -13.213 82.1777 -7.06296C82.0638 -2.96292 81.6083 1.13713 80.7541 5.12329C80.6971 5.40801 80.6971 5.63579 80.6402 5.97746C82.2347 6.7747 83.943 6.94553 85.7083 7.00248C93.0542 7.34415 100.229 6.26219 107.177 3.8705C109.454 3.07327 111.675 2.16214 113.839 1.08019C118.053 -0.912893 121.641 -3.81709 124.488 -7.46158C125 -8.08798 125.513 -8.71437 126.082 -9.34077C126.139 -9.39771 126.253 -9.39771 126.538 -9.39771C126.424 -8.9991 126.367 -8.71437 126.253 -8.42964C124.032 -3.7032 120.787 0.112119 116.459 3.07326C111.049 6.71775 105.07 8.99555 98.7488 10.2483C93.5668 11.2734 88.3847 11.7289 83.1458 11.1025C82.0069 10.9886 80.811 10.7039 79.5582 10.4761C79.4444 10.7609 79.3305 11.1025 79.2166 11.4442C77.679 16.6262 75.8568 21.6374 73.2373 26.3638C71.1304 30.1791 68.6817 33.7097 65.5497 36.7848C63.8414 38.4362 61.9622 39.9167 59.8552 40.9987C54.4454 43.7321 49.4912 42.8779 45.3911 38.4362C45.1634 38.2084 44.9356 37.9806 44.5939 37.6389C44.3661 38.2653 44.1953 38.7209 43.9675 39.2334C42.4869 43.3335 40.8355 47.3766 38.7286 51.2488C36.9063 54.5516 34.7993 57.6836 32.066 60.36C30.7562 61.6698 29.3326 62.7517 27.6812 63.6059C23.695 65.599 19.8797 65.3143 16.2352 62.6948C15.5519 62.2392 14.9824 61.6698 14.2421 61.1003C14.0144 61.7267 13.8435 62.1823 13.6727 62.6948C12.1352 67.2504 10.256 71.7491 7.92122 75.963C7.35177 77.045 6.66843 78.07 5.92814 79.038C5.58647 79.5505 5.01702 79.8922 4.50451 80.2908C4.04895 80.5756 3.53644 80.5756 3.13783 80.12C2.73921 79.6644 2.91005 79.2089 3.25172 78.7533C3.93506 77.7852 4.56146 76.7602 5.13091 75.7352C7.97817 70.5532 10.1421 65.0865 11.9074 59.5059C12.0782 58.9934 12.1921 58.4809 11.7935 57.9683C8.09206 52.7294 6.15592 46.8071 4.96007 40.5431C3.25172 31.8305 2.91005 23.0041 3.93506 14.1776C4.27673 11.1595 4.84618 8.25527 6.09898 5.46496C6.55454 4.43995 7.12399 3.41493 7.80733 2.56076C9.51569 0.453789 11.8504 0.3399 13.9005 2.16214C15.1533 3.30105 16.0074 4.66773 16.6908 6.20524C18.1144 9.16639 18.9116 12.3553 19.4241 15.6012C20.4492 21.8082 20.4492 28.0152 19.8228 34.2792C19.0825 41.9098 17.6019 49.4266 15.5519 56.7725C15.3241 57.6267 15.3241 58.2531 16.0644 58.8225C16.9755 59.5628 17.8297 60.417 18.7977 61.0434C20.9617 62.4101 23.2395 62.524 25.5742 61.4989C27.1687 60.8156 28.4784 59.7906 29.6743 58.5947C31.7812 56.6017 33.4327 54.2669 34.9702 51.8183C38.1591 46.5793 40.4939 40.9418 42.43 35.1334C42.6008 34.6209 42.6578 34.2222 42.3731 33.7097C39.8105 28.5277 38.6716 22.9471 38.1022 17.2526C37.4758 11.1025 37.5327 4.95245 38.5577 -1.14067C38.9563 -3.47542 39.4688 -5.81017 40.4369 -7.97408C40.8355 -8.88521 41.348 -9.79633 41.9744 -10.5366C43.512 -12.3589 45.6759 -12.3019 47.0995 -10.4227C47.7828 -9.5116 48.2953 -8.48659 48.694 -7.40463C49.7759 -4.38654 50.1176 -1.19762 50.3454 1.99131C50.9148 12.1845 49.2065 22.1499 46.3592 31.8875C46.2453 32.2292 46.1884 32.5708 46.0175 32.9125C45.7898 33.482 45.9036 33.9945 46.2453 34.45C47.0426 35.475 47.7828 36.6139 48.7509 37.4681C50.9718 39.5751 53.6482 40.0876 56.4954 38.9487C57.976 38.3792 59.3997 37.4681 60.7094 36.5C62.9872 34.7917 64.8094 32.6278 66.4609 30.35C69.9345 25.5666 72.3832 20.2137 74.3193 14.6331C75.0026 12.8678 75.5721 10.8747 76.2554 8.82472ZM13.1602 55.0072C13.331 54.6655 13.388 54.5516 13.4449 54.3808C13.5588 54.0961 13.6157 53.7544 13.7296 53.4697C15.8366 46.0099 17.2602 38.3792 17.7158 30.6347C18.0575 24.9971 17.9436 19.3596 16.6908 13.7789C16.1213 11.2734 15.4949 8.82472 14.2421 6.54691C13.6727 5.57885 12.9893 4.66773 12.1921 3.8705C11.4518 3.13021 10.5976 3.18716 9.97125 4.09828C9.40179 4.89551 8.88929 5.80663 8.54762 6.71775C7.29482 9.84973 6.83926 13.1525 6.55454 16.5123C5.98508 23.8582 6.3837 31.1472 7.63649 38.4362C8.54762 43.6182 9.85736 48.6863 12.2491 53.4127C12.5338 53.8114 12.7616 54.3239 13.1602 55.0072ZM77.2804 3.98439C77.4513 3.30104 77.5652 2.84548 77.6221 2.44687C77.8499 0.852406 78.1346 -0.685111 78.3054 -2.27957C78.9318 -8.03103 78.761 -13.7255 77.3374 -19.3631C76.5971 -22.2673 75.5721 -25.0007 73.9207 -27.5063C73.2943 -28.4174 72.554 -29.2146 71.7568 -29.9549C70.6748 -30.866 69.9345 -30.6382 69.1942 -29.4424C68.9095 -28.9868 68.6817 -28.4743 68.5678 -27.9618C68.2831 -26.6521 67.9414 -25.2854 67.8275 -23.9187C67.4289 -18.9645 68.1123 -14.1242 69.4789 -9.34077C70.6748 -5.24072 72.4401 -1.4254 75.2304 1.87742C75.7999 2.56076 76.4832 3.18715 77.2804 3.98439ZM44.7647 -8.65743C44.6509 -8.65743 44.48 -8.65743 44.3661 -8.60048C44.0814 -8.08798 43.6828 -7.63241 43.455 -7.11991C43.0564 -6.03795 42.6008 -4.89905 42.3161 -3.76015C40.9494 1.70658 40.7216 7.2872 41.0064 12.9248C41.2341 18.0498 41.9175 23.1749 43.3981 28.1291C43.512 28.5277 43.6828 28.9263 43.8536 29.325C44.1953 28.8694 44.4231 28.4138 44.48 27.9583C45.1634 24.5985 46.0175 21.2957 46.53 17.9359C47.5551 11.8428 47.8967 5.69274 47.1564 -0.400386C46.9287 -2.45041 46.3592 -4.50043 45.7898 -6.49351C45.6759 -7.29074 45.1634 -7.97408 44.7647 -8.65743Z" fill="white"/>
</svg>
