<svg width="16" height="16" viewBox="0 0 16 16" fill="none" xmlns="http://www.w3.org/2000/svg">
<path d="M8 12C8.18246 12 8.33347 11.9405 8.45305 11.8215C8.57207 11.7019 8.63158 11.5509 8.63158 11.3684V7.76842C8.63158 7.6 8.57207 7.456 8.45305 7.33642C8.33347 7.2174 8.18246 7.15789 8 7.15789C7.81754 7.15789 7.66681 7.2174 7.54779 7.33642C7.42821 7.456 7.36842 7.60702 7.36842 7.78947V11.3895C7.36842 11.5579 7.42821 11.7019 7.54779 11.8215C7.66681 11.9405 7.81754 12 8 12ZM8 5.72632C8.19649 5.72632 8.35789 5.65951 8.48421 5.5259C8.61053 5.39284 8.67368 5.22807 8.67368 5.03158C8.67368 4.84912 8.61053 4.69109 8.48421 4.55747C8.35789 4.42442 8.19649 4.35789 8 4.35789C7.80351 4.35789 7.64211 4.42442 7.51579 4.55747C7.38947 4.69109 7.32632 4.84912 7.32632 5.03158C7.32632 5.22807 7.38947 5.39284 7.51579 5.5259C7.64211 5.65951 7.80351 5.72632 8 5.72632ZM8 16C6.89123 16 5.84926 15.7895 4.87411 15.3684C3.89839 14.9474 3.05263 14.3789 2.33684 13.6632C1.62105 12.9474 1.05263 12.1016 0.631579 11.1259C0.210526 10.1507 0 9.10877 0 8C0 6.89123 0.210526 5.84898 0.631579 4.87326C1.05263 3.89811 1.62105 3.05263 2.33684 2.33684C3.05263 1.62105 3.89839 1.05263 4.87411 0.631579C5.84926 0.210526 6.89123 0 8 0C9.10877 0 10.151 0.210526 11.1267 0.631579C12.1019 1.05263 12.9474 1.62105 13.6632 2.33684C14.3789 3.05263 14.9474 3.89811 15.3684 4.87326C15.7895 5.84898 16 6.89123 16 8C16 9.10877 15.7895 10.1507 15.3684 11.1259C14.9474 12.1016 14.3789 12.9474 13.6632 13.6632C12.9474 14.3789 12.1019 14.9474 11.1267 15.3684C10.151 15.7895 9.10877 16 8 16ZM8 14.7368C9.86667 14.7368 11.4563 14.0808 12.7688 12.7688C14.0808 11.4563 14.7368 9.86667 14.7368 8C14.7368 6.13333 14.0808 4.54372 12.7688 3.23116C11.4563 1.91916 9.86667 1.26316 8 1.26316C6.13333 1.26316 4.544 1.91916 3.232 3.23116C1.91944 4.54372 1.26316 6.13333 1.26316 8C1.26316 9.86667 1.91944 11.4563 3.232 12.7688C4.544 14.0808 6.13333 14.7368 8 14.7368Z" fill="#292B2E"/>
</svg>
