<svg width="40" height="40" viewBox="0 0 40 40" fill="none" xmlns="http://www.w3.org/2000/svg">
<path d="M12.526 20.4413C13.0924 19.3371 13.7047 18.2624 14.3629 17.217C15.0211 16.1716 15.7381 15.1614 16.5138 14.1863L13.6617 13.6066C13.4896 13.5636 13.3229 13.569 13.1616 13.6227C13.0003 13.6765 12.8551 13.768 12.726 13.897L8.3209 18.2806C8.25636 18.3452 8.23485 18.4241 8.25635 18.5172C8.27785 18.6104 8.33162 18.6714 8.41766 18.7001L12.526 20.4413ZM32.1706 7.43125C29.3228 7.64349 26.9038 8.22029 24.9139 9.16167C22.9239 10.1031 21.0065 11.4962 19.1617 13.341C18.0131 14.4896 16.9774 15.7429 16.0546 17.1009C15.1319 18.4588 14.3357 19.8684 13.666 21.3296L18.6455 26.3273C20.1067 25.6434 21.5216 24.84 22.8903 23.9172C24.2591 22.9945 25.5177 21.9588 26.6663 20.8102C28.5111 18.9654 29.9042 17.055 30.8456 15.079C31.787 13.103 32.3639 10.691 32.5761 7.84318C32.5761 7.79299 32.5723 7.741 32.5648 7.68723C32.5573 7.63343 32.5316 7.57751 32.4879 7.51946C32.4442 7.4757 32.3965 7.45006 32.3449 7.44253C32.2932 7.43501 32.2351 7.43125 32.1706 7.43125ZM22.9839 17.0266C22.5186 16.5756 22.2859 16.0212 22.2859 15.3634C22.2859 14.7056 22.5186 14.144 22.9839 13.6787C23.4492 13.2134 24.0114 12.9807 24.6703 12.9807C25.3292 12.9807 25.8913 13.2134 26.3566 13.6787C26.8219 14.144 27.0546 14.7056 27.0546 15.3634C27.0546 16.0212 26.8219 16.5756 26.3566 17.0266C25.8913 17.4919 25.3292 17.7246 24.6703 17.7246C24.0114 17.7246 23.4492 17.4919 22.9839 17.0266ZM19.5338 27.4846L21.275 31.5896C21.3037 31.6757 21.3646 31.7241 21.4578 31.7349C21.551 31.7456 21.6299 31.7187 21.6944 31.6542L26.0781 27.3028C26.2071 27.1737 26.2985 27.025 26.3523 26.8565C26.4061 26.688 26.4115 26.5249 26.3684 26.3671L25.7952 23.4935C24.8201 24.2693 23.8124 24.9904 22.7721 25.6568C21.7317 26.3232 20.6523 26.9325 19.5338 27.4846ZM34 7.2269C33.9369 10.145 33.3827 12.7912 32.3373 15.1655C31.2919 17.5398 29.7408 19.7626 27.6837 21.834C27.5719 21.9315 27.4618 22.0315 27.3535 22.1341C27.2453 22.2366 27.1353 22.3366 27.0234 22.4341L27.7461 26.066C27.8321 26.4819 27.8117 26.8801 27.6848 27.2609C27.5579 27.6416 27.3518 27.9746 27.0664 28.26L22.2117 33.1362C21.8955 33.438 21.5238 33.5465 21.0965 33.4615C20.6691 33.3766 20.3766 33.1262 20.2189 32.7103L18.1206 27.7943L12.1872 21.8437L7.26476 19.7519C6.84891 19.5798 6.608 19.279 6.54204 18.8496C6.47607 18.4201 6.59402 18.0544 6.89587 17.7526L11.7441 12.8828C12.0295 12.5975 12.3666 12.3956 12.7556 12.2774C13.1446 12.1591 13.5398 12.1429 13.9413 12.229L17.5732 12.9516C17.6707 12.8541 17.7664 12.7541 17.8604 12.6516C17.9543 12.5491 18.0572 12.4491 18.169 12.3516C20.226 10.2802 22.4406 8.71644 24.8127 7.66031C27.1849 6.6042 29.83 6.05177 32.7482 6.00303C32.9202 5.99084 33.0823 6.01539 33.2343 6.07669C33.3863 6.13798 33.5261 6.23244 33.6537 6.36006C33.7813 6.50202 33.8704 6.63897 33.921 6.77089C33.9715 6.90282 33.9978 7.05482 34 7.2269ZM8.33273 26.7984C8.98875 26.128 9.78263 25.8002 10.7144 25.8149C11.6461 25.8296 12.4471 26.1649 13.1175 26.821C13.7735 27.477 14.0999 28.2709 14.0967 29.2026C14.0935 30.1343 13.7639 30.9354 13.1078 31.6058C12.5192 32.1801 11.6145 32.6684 10.3939 33.0706C9.17321 33.4728 7.70858 33.7535 6 33.9127C6.15916 32.2041 6.44057 30.7348 6.84424 29.5048C7.2479 28.2749 7.74407 27.3727 8.33273 26.7984ZM9.32536 27.8481C8.97116 28.2209 8.64852 28.795 8.35743 29.5704C8.06635 30.3459 7.85986 31.2215 7.73797 32.1973C8.7138 32.0611 9.58941 31.8462 10.3648 31.5526C11.1402 31.259 11.7144 30.9279 12.0872 30.5594C12.4815 30.188 12.6809 29.7337 12.6852 29.1967C12.6895 28.6597 12.4966 28.194 12.1066 27.7997C11.7122 27.4096 11.2465 27.2216 10.7095 27.2356C10.1725 27.2496 9.7111 27.4537 9.32536 27.8481Z" fill="#1C1B1F"/>
</svg>
