<svg width="40" height="40" viewBox="0 0 40 40" fill="none" xmlns="http://www.w3.org/2000/svg">
<path d="M12.852 29.2963V29.9612C12.852 30.151 12.9195 30.3084 13.0546 30.4335C13.1897 30.5585 13.349 30.6211 13.5326 30.6211C13.7162 30.6211 13.8702 30.5569 13.9948 30.4285C14.1194 30.3001 14.1817 30.1411 14.1817 29.9513V29.2864C14.1817 29.0967 14.1174 28.9393 13.9888 28.8142C13.8602 28.6891 13.7009 28.6266 13.5108 28.6266C13.3208 28.6266 13.1634 28.6908 13.0388 28.8191C12.9143 28.9475 12.852 29.1066 12.852 29.2963ZM25.8626 29.2963V29.9612C25.8626 30.151 25.9269 30.3084 26.0555 30.4335C26.1841 30.5585 26.3434 30.6211 26.5335 30.6211C26.7236 30.6211 26.8809 30.5569 27.0055 30.4285C27.13 30.3001 27.1923 30.1411 27.1923 29.9513V29.2864C27.1923 29.0967 27.128 28.9393 26.9995 28.8142C26.8709 28.6891 26.7115 28.6266 26.5215 28.6266C26.3314 28.6266 26.1741 28.6908 26.0495 28.8191C25.9249 28.9475 25.8626 29.1066 25.8626 29.2963ZM12.852 19.891V24.0171C12.852 24.2054 12.9163 24.3633 13.0449 24.4907C13.1735 24.6182 13.3328 24.6819 13.5228 24.6819C13.7129 24.6819 13.8702 24.6182 13.9948 24.4907C14.1194 24.3633 14.1817 24.2054 14.1817 24.0171V19.891C14.1817 19.7157 14.1174 19.5611 13.9888 19.4271C13.8602 19.2932 13.7009 19.2262 13.5108 19.2262C13.3208 19.2262 13.1634 19.2932 13.0388 19.4271C12.9143 19.5611 12.852 19.7157 12.852 19.891ZM19.3029 25.7859V29.9562C19.3029 30.1446 19.3672 30.3025 19.4958 30.4299C19.6244 30.5574 19.7837 30.6211 19.9738 30.6211C20.1638 30.6211 20.3212 30.5574 20.4457 30.4299C20.5703 30.3025 20.6326 30.1446 20.6326 29.9562V25.7859C20.6326 25.5975 20.5683 25.4396 20.4397 25.3122C20.3112 25.1848 20.1518 25.1211 19.9618 25.1211C19.7717 25.1211 19.6144 25.1848 19.4898 25.3122C19.3652 25.4396 19.3029 25.5975 19.3029 25.7859ZM19.3029 19.9057V20.5705C19.3029 20.7538 19.3704 20.908 19.5055 21.0331C19.6406 21.1582 19.7999 21.2207 19.9835 21.2207C20.1671 21.2207 20.3212 21.1565 20.4457 21.0282C20.5703 20.8999 20.6326 20.7409 20.6326 20.5513V19.8864C20.6326 19.7099 20.5683 19.5557 20.4397 19.4239C20.3112 19.2921 20.1518 19.2262 19.9618 19.2262C19.7717 19.2262 19.6144 19.2936 19.4898 19.4285C19.3652 19.5633 19.3029 19.7224 19.3029 19.9057ZM25.8626 19.891V24.0171C25.8626 24.2054 25.9269 24.3633 26.0555 24.4907C26.1841 24.6182 26.3434 24.6819 26.5335 24.6819C26.7236 24.6819 26.8809 24.6182 27.0055 24.4907C27.13 24.3633 27.1923 24.2054 27.1923 24.0171V19.891C27.1923 19.7157 27.128 19.5611 26.9995 19.4271C26.8709 19.2932 26.7115 19.2262 26.5215 19.2262C26.3314 19.2262 26.1741 19.2932 26.0495 19.4271C25.9249 19.5611 25.8626 19.7157 25.8626 19.891ZM11.2967 34.2857C10.653 34.2857 10.1093 34.0639 9.66558 33.6201C9.22186 33.1764 9 32.6327 9 31.989V15.5061C9 15.1922 9.06312 14.8929 9.18936 14.6083C9.31562 14.3238 9.48654 14.0737 9.70211 13.8582L16.8582 6.68196C17.0737 6.47982 17.3242 6.31562 17.6097 6.18936C17.8951 6.06312 18.2006 6 18.5263 6H28.7033C29.347 6 29.8907 6.22186 30.3344 6.66558C30.7781 7.1093 31 7.653 31 8.29668V31.989C31 32.6327 30.7781 33.1764 30.3344 33.6201C29.8907 34.0639 29.347 34.2857 28.7033 34.2857H11.2967ZM11.2967 32.956H28.7033C28.9451 32.956 29.1667 32.8553 29.3681 32.6539C29.5696 32.4524 29.6703 32.2308 29.6703 31.989V8.29668C29.6703 8.05492 29.5696 7.83331 29.3681 7.63185C29.1667 7.43039 28.9451 7.32966 28.7033 7.32966H18.1485L10.3297 15.1485V31.989C10.3297 32.2308 10.4304 32.4524 10.6318 32.6539C10.8333 32.8553 11.0549 32.956 11.2967 32.956ZM11.2967 32.956H10.3297H29.6703H11.2967Z" fill="#1C1B1F"/>
</svg>
