<svg width="40" height="40" viewBox="0 0 40 40" fill="none" xmlns="http://www.w3.org/2000/svg">
<path d="M24.3126 12.7573C23.9186 12.0827 23.4079 11.5571 22.7806 11.1806C22.1532 10.804 21.4226 10.6157 20.5888 10.6157C19.9636 10.6157 19.3366 10.735 18.7078 10.9734C18.079 11.2119 17.5523 11.5826 17.1278 12.0857L16.1181 11.0759C16.5964 10.5263 17.1634 10.0976 17.8191 9.78976C18.4748 9.48189 19.132 9.29416 19.7906 9.22658V7.11114C19.7906 6.90105 19.858 6.72858 19.9929 6.59371C20.1278 6.45888 20.3002 6.39146 20.5103 6.39146C20.7204 6.39146 20.8928 6.45888 21.0277 6.59371C21.1626 6.72858 21.23 6.90105 21.23 7.11114V9.21348C22.0405 9.27525 22.8513 9.53878 23.6622 10.004C24.4731 10.4693 25.1424 11.1941 25.6702 12.1783C25.7662 12.3514 25.7791 12.536 25.7089 12.7323C25.6388 12.9286 25.5096 13.0703 25.3213 13.1576C25.1337 13.2339 24.9436 13.2331 24.751 13.1554C24.5583 13.0776 24.4122 12.9449 24.3126 12.7573ZM32.7427 33.7829L26.054 27.1008C25.5255 27.8067 24.8255 28.3917 23.9539 28.8559C23.0823 29.32 22.1743 29.5586 21.23 29.5717V31.6457C21.23 31.8558 21.1626 32.0283 21.0277 32.1631C20.8928 32.298 20.7204 32.3654 20.5103 32.3654C20.3002 32.3654 20.1278 32.298 19.9929 32.1631C19.858 32.0283 19.7906 31.8558 19.7906 31.6457V29.4932C18.4974 29.2933 17.4417 28.805 16.6235 28.0282C15.8053 27.2515 15.1476 26.2408 14.6503 24.9963C14.582 24.8211 14.5911 24.6386 14.6776 24.4489C14.7641 24.2592 14.9026 24.1312 15.093 24.0651C15.2726 23.9909 15.4485 24.0007 15.6208 24.0945C15.7931 24.1883 15.9167 24.3271 15.9916 24.511C16.4183 25.5869 17.0282 26.4602 17.8213 27.1308C18.6144 27.8014 19.6198 28.1367 20.8374 28.1367C21.717 28.1367 22.5229 27.9505 23.2549 27.5779C23.9869 27.2053 24.5718 26.6981 25.0094 26.0562L6.22134 7.26814C6.0854 7.1322 6.01197 6.96574 6.00105 6.76875C5.99017 6.57174 6.0636 6.39436 6.22134 6.23662C6.37909 6.07887 6.55101 6 6.73711 6C6.9232 6 7.09512 6.07887 7.25287 6.23662L33.7743 32.758C33.8528 32.8321 33.91 32.9088 33.946 32.988C33.982 33.0673 34 33.156 34 33.2541C34 33.3522 33.982 33.4453 33.946 33.5332C33.91 33.6212 33.8528 33.7044 33.7743 33.7829C33.6311 33.9407 33.4628 34.0196 33.2694 34.0196C33.076 34.0196 32.9005 33.9407 32.7427 33.7829Z" fill="#1C1B1F"/>
</svg>
