<svg width="34" height="17" viewBox="0 0 34 17" fill="none" xmlns="http://www.w3.org/2000/svg">
<path fill-rule="evenodd" clip-rule="evenodd" d="M10.2428 0.998683C8.74264 0.700101 7.18762 0.85311 5.77441 1.43836C4.36121 2.02361 3.1533 3.01481 2.30345 4.2866C1.45361 5.55839 1 7.05364 1 8.58325C1 10.1129 1.45361 11.6081 2.30345 12.8799C3.1533 14.1517 4.36121 15.1429 5.77441 15.7281C7.18762 16.3134 8.74264 16.4664 10.2428 16.1678C11.7338 15.8711 13.1041 15.1415 14.1825 14.0705C15.2542 13.0956 16.2 11.9941 17 10.7919C17.8 11.9941 18.7458 13.0956 19.8176 14.0705C20.896 15.1415 22.2662 15.8711 23.7572 16.1678C25.2574 16.4664 26.8124 16.3134 28.2256 15.7281C29.6388 15.1429 30.8467 14.1517 31.6965 12.8799C32.5464 11.6081 33 10.1129 33 8.58325C33 7.05364 32.5464 5.55839 31.6965 4.2866C30.8467 3.01481 29.6388 2.02361 28.2256 1.43836C26.8124 0.85311 25.2574 0.700101 23.7572 0.998683C22.2662 1.29544 20.8959 2.02503 19.8175 3.09599C18.7458 4.07093 17.8 5.17243 17 6.37456C16.2 5.17242 15.2542 4.07091 14.1825 3.09597C13.1041 2.02502 11.7338 1.29544 10.2428 0.998683ZM6.63224 3.5098C7.63573 3.09422 8.73992 2.98558 9.80517 3.19759C10.8686 3.40925 11.8456 3.93101 12.6129 4.69703L12.6366 4.72024L12.6608 4.74266C13.8825 5.85145 14.9173 7.14839 15.7266 8.58324C14.9163 10.0198 13.8801 11.3181 12.6565 12.4277C12.6429 12.44 12.6297 12.4527 12.6167 12.4656C11.8489 13.2337 10.8704 13.7569 9.80517 13.9689C8.73992 14.1809 7.63573 14.0723 6.63224 13.6567C5.62875 13.2411 4.77104 12.5373 4.16758 11.6342C3.56412 10.7311 3.24202 9.66939 3.24202 8.58325C3.24202 7.4971 3.56412 6.43535 4.16758 5.53228C4.77104 4.6292 5.62875 3.92537 6.63224 3.5098ZM24.1948 3.19759C25.2601 2.98558 26.3643 3.09422 27.3678 3.5098C28.3713 3.92537 29.229 4.6292 29.8324 5.53228C30.4359 6.43535 30.758 7.4971 30.758 8.58325C30.758 9.66939 30.4359 10.7311 29.8324 11.6342C29.229 12.5373 28.3713 13.2411 27.3678 13.6567C26.3643 14.0723 25.2601 14.1809 24.1948 13.9689C23.1296 13.7569 22.1511 13.2337 21.3833 12.4656C21.3703 12.4527 21.3571 12.44 21.3435 12.4277C20.1199 11.3181 19.0837 10.0198 18.2734 8.58324C19.0837 7.14669 20.1199 5.8484 21.3435 4.73875C21.3571 4.72646 21.3703 4.71384 21.3832 4.70091C22.1511 3.93277 23.1296 3.40961 24.1948 3.19759Z" fill="#292B2E" stroke="white" stroke-width="0.640003" stroke-linecap="round"/>
</svg>
