<svg width="40" height="40" viewBox="0 0 40 40" fill="none" xmlns="http://www.w3.org/2000/svg">
<mask id="mask0_3193_13386" style="mask-type:alpha" maskUnits="userSpaceOnUse" x="0" y="0" width="40" height="40">
<rect width="40" height="40" fill="#D9D9D9"/>
</mask>
<g mask="url(#mask0_3193_13386)">
<path d="M30.9346 13.7867C31.0527 13.9179 31.2263 13.9903 31.4555 14.0039C31.6605 14.0134 31.8303 13.9441 31.9651 13.7957C32.0998 13.6474 32.1671 13.4776 32.1671 13.2862L32.1725 7.57467C32.1719 7.39053 32.1461 7.22782 32.095 7.08653C32.0439 6.94527 31.9623 6.8186 31.8502 6.70652C31.7381 6.59444 31.6071 6.50845 31.457 6.44854C31.3069 6.38862 31.1388 6.35865 30.9527 6.35865L25.3015 6.35865C25.0799 6.35865 24.9062 6.42237 24.7803 6.54981C24.6544 6.67722 24.5822 6.8509 24.5637 7.07083C24.5736 7.28251 24.6475 7.45197 24.7853 7.57921C24.9232 7.70649 25.0887 7.77104 25.2819 7.77287L29.7603 7.77287L23.0034 14.5297C22.8622 14.6709 22.7905 14.8361 22.7883 15.0251C22.7862 15.2141 22.8564 15.3798 22.9989 15.5224C23.1415 15.6649 23.3087 15.7366 23.5007 15.7375C23.6927 15.7384 23.8594 15.6681 24.0006 15.5269L30.7575 8.77007L30.7575 13.2968C30.7575 13.4922 30.8165 13.6555 30.9346 13.7867Z" fill="#fff"/>
<path d="M31.4786 33.141C28.6374 33.141 25.7476 32.3887 22.8093 30.884C19.8709 29.3794 17.2106 27.4396 14.8285 25.0646C12.4464 22.6896 10.5012 20.0382 8.993 17.1105C7.48481 14.1828 6.73071 11.2984 6.73071 8.45721C6.73071 7.94563 6.90125 7.51929 7.24234 7.17821C7.58339 6.83715 8.00973 6.66663 8.52134 6.66663H12.3525C12.8252 6.66663 13.2297 6.80872 13.566 7.09292C13.9023 7.37708 14.1217 7.75706 14.2243 8.23283L15.079 12.032C15.1559 12.4636 15.1454 12.8552 15.0475 13.2067C14.9496 13.5582 14.7653 13.8485 14.4948 14.0775L10.8269 17.532C12.4095 20.1773 14.168 22.4554 16.1025 24.3664C18.037 26.2774 20.2991 27.9473 22.8888 29.376L26.4487 25.6688C26.7314 25.3675 27.039 25.1615 27.3712 25.0507C27.7035 24.94 28.0619 24.9252 28.4465 25.0064L31.703 25.7115C32.1803 25.8089 32.5606 26.0305 32.844 26.3764C33.1275 26.7223 33.2692 27.1424 33.2692 27.6367V31.3504C33.2692 31.862 33.0987 32.2883 32.7576 32.6294C32.4165 32.9705 31.9902 33.141 31.4786 33.141ZM10.1068 16.2521L13.5085 13.1004C13.6011 13.0149 13.6634 12.8974 13.6955 12.7478C13.7275 12.5983 13.7293 12.4594 13.7008 12.3312L12.876 8.58971C12.8475 8.41876 12.7763 8.29056 12.6623 8.20508C12.5484 8.11961 12.4059 8.07688 12.235 8.07688H8.57475C8.44653 8.07688 8.33969 8.11961 8.25421 8.20508C8.16874 8.29056 8.126 8.39739 8.126 8.52558C8.12245 9.6417 8.29303 10.8511 8.63776 12.1538C8.98251 13.4565 9.47219 14.8226 10.1068 16.2521ZM31.4102 31.7457C31.5384 31.7457 31.6453 31.703 31.7308 31.6175C31.8162 31.532 31.859 31.4252 31.859 31.297V27.7008C31.859 27.5299 31.8162 27.3874 31.7308 27.2735C31.6453 27.1595 31.5171 27.0883 31.3461 27.0598L28.141 26.4124C28.0128 26.3696 27.9006 26.3643 27.8045 26.3963C27.7083 26.4284 27.6068 26.4978 27.5 26.6047L24.1965 30.0192C25.3454 30.5997 26.5904 31.0288 27.9316 31.3066C29.2728 31.5844 30.4323 31.7307 31.4102 31.7457Z" fill="#fff"/>
</g>
</svg>
