<svg width="40" height="40" viewBox="0 0 40 40" fill="none" xmlns="http://www.w3.org/2000/svg">
<mask id="mask0_3193_13397" style="mask-type:alpha" maskUnits="userSpaceOnUse" x="0" y="0" width="40" height="40">
<rect width="40" height="40" fill="#D9D9D9"/>
</mask>
<g mask="url(#mask0_3193_13397)">
<path d="M5.64111 25.8975V6.31625C5.64111 5.96581 5.77075 5.65882 6.03003 5.39529C6.28928 5.13176 6.587 5 6.9232 5H26.7886C27.129 5 27.4289 5.13069 27.6882 5.39208C27.9474 5.65347 28.077 5.96153 28.077 6.31625V19.453C28.077 19.8034 27.9474 20.1104 27.6882 20.3739C27.4289 20.6375 27.129 20.7692 26.7886 20.7692H10.7693L5.64111 25.8975ZM12.0578 27.0513C11.7216 27.0513 11.4228 26.9195 11.1614 26.656C10.9 26.3925 10.7693 26.0855 10.7693 25.735V23.8462H30.0963L31.1539 24.9038V10H33.077C33.4132 10 33.7109 10.1318 33.9702 10.3953C34.2295 10.6588 34.3591 10.9679 34.3591 11.3227V32.1731L29.2373 27.0513H12.0578ZM26.6668 6.41025H7.05136V22.469L10.1614 19.359H26.6668V6.41025Z" fill="#fff"/>
</g>
</svg>
