<svg width="40" height="40" viewBox="0 0 40 40" fill="none" xmlns="http://www.w3.org/2000/svg">
<mask id="mask0_3193_13379" style="mask-type:alpha" maskUnits="userSpaceOnUse" x="0" y="0" width="40" height="40">
<rect width="40" height="40" fill="#D9D9D9"/>
</mask>
<g mask="url(#mask0_3193_13379)">
<path d="M7.4296 22.5C7.22802 22.5 7.06117 22.4324 6.92906 22.2973C6.79692 22.1621 6.73085 21.9947 6.73085 21.7949V13.2051C6.73085 13.0053 6.79905 12.8379 6.93544 12.7027C7.0718 12.5676 7.24077 12.5 7.44235 12.5C7.64396 12.5 7.81083 12.5676 7.94294 12.7027C8.07505 12.8379 8.1411 13.0053 8.1411 13.2051V21.7949C8.1411 21.9947 8.07292 22.1621 7.93656 22.2973C7.8002 22.4324 7.63121 22.5 7.4296 22.5ZM2.81423 27.5C2.61265 27.5 2.44578 27.4324 2.31365 27.2973C2.18153 27.1621 2.11548 26.9947 2.11548 26.7949V18.2051C2.11548 18.0053 2.18367 17.8379 2.32006 17.7027C2.4564 17.5676 2.62535 17.5 2.82694 17.5C3.02852 17.5 3.19538 17.5676 3.32752 17.7027C3.45963 17.8379 3.52569 18.0053 3.52569 18.2051V26.7949C3.52569 26.9947 3.45749 27.1621 3.3211 27.2973C3.1848 27.4324 3.01581 27.5 2.81423 27.5ZM37.1732 22.5C36.9716 22.5 36.8048 22.4324 36.6726 22.2973C36.5405 22.1621 36.4745 21.9947 36.4745 21.7949V13.2051C36.4745 13.0053 36.5427 12.8379 36.679 12.7027C36.8154 12.5676 36.9844 12.5 37.186 12.5C37.3876 12.5 37.5544 12.5676 37.6866 12.7027C37.8187 12.8379 37.8847 13.0053 37.8847 13.2051V21.7949C37.8847 21.9947 37.8166 22.1621 37.6802 22.2973C37.5438 22.4324 37.3748 22.5 37.1732 22.5ZM32.5579 27.5C32.3562 27.5 32.1894 27.4324 32.0573 27.2973C31.9252 27.1621 31.8591 26.9947 31.8591 26.7949V18.2051C31.8591 18.0053 31.9273 17.8379 32.0636 17.7027C32.2 17.5676 32.369 17.5 32.5706 17.5C32.7722 17.5 32.939 17.5676 33.0711 17.7027C33.2033 17.8379 33.2694 18.0053 33.2694 18.2051V26.7949C33.2694 26.9947 33.2012 27.1621 33.0648 27.2973C32.9284 27.4324 32.7594 27.5 32.5579 27.5ZM13.7886 35C13.1244 35 12.5524 34.7601 12.0725 34.2802C11.5926 33.8003 11.3526 33.2283 11.3526 32.5641V7.43587C11.3526 6.77171 11.5926 6.19968 12.0725 5.71979C12.5524 5.23993 13.1244 5 13.7886 5H26.2181C26.8822 5 27.4543 5.23993 27.9341 5.71979C28.414 6.19968 28.654 6.77171 28.654 7.43587V32.5641C28.654 33.2283 28.414 33.8003 27.9341 34.2802C27.4543 34.7601 26.8822 35 26.2181 35H13.7886ZM12.7629 29.8077H27.2437V10.1923H12.7629V29.8077ZM12.7629 8.78204H27.2437V7.43587C27.2437 7.13674 27.1475 6.89101 26.9552 6.69871C26.7629 6.5064 26.5172 6.41025 26.2181 6.41025H13.7886C13.5036 6.41025 13.2615 6.5064 13.0621 6.69871C12.8626 6.89101 12.7629 7.13674 12.7629 7.43587V8.78204ZM27.2437 31.218H12.7629V32.5641C12.7629 32.8633 12.8626 33.109 13.0621 33.3013C13.2615 33.4936 13.5036 33.5898 13.7886 33.5898H26.2181C26.5172 33.5898 26.7629 33.4936 26.9552 33.3013C27.1475 33.109 27.2437 32.8633 27.2437 32.5641V31.218Z" fill="#fff"/>
</g>
</svg>
