<svg width="180" height="120" viewBox="0 0 180 120" fill="none" xmlns="http://www.w3.org/2000/svg">
<path fill-rule="evenodd" clip-rule="evenodd" d="M180 76.0002H0V75.1348H180V76.0002Z" fill="#DDE1E8"/>
<path d="M108.328 19.9326H72.6555C70.1927 19.9326 68.1963 22.1347 68.1963 24.8508V93.7049C68.1963 96.421 70.1927 98.6229 72.6555 98.6229H108.328C110.791 98.6229 112.787 96.421 112.787 93.7049V24.8508C112.787 22.1347 110.791 19.9326 108.328 19.9326Z" fill="white"/>
<path fill-rule="evenodd" clip-rule="evenodd" d="M67.7637 24.8509C67.7637 21.9367 69.9149 19.5 72.6555 19.5H108.328C111.069 19.5 113.22 21.9367 113.22 24.8509V93.705C113.22 96.6192 111.069 99.0557 108.328 99.0557H72.6555C69.9149 99.0557 67.7637 96.6192 67.7637 93.705V24.8509ZM72.6555 20.3654C70.4707 20.3654 68.6291 22.3329 68.6291 24.8509V93.705C68.6291 96.223 70.4706 98.1903 72.6555 98.1903H108.328C110.513 98.1903 112.355 96.223 112.355 93.705V24.8509C112.355 22.3329 110.513 20.3654 108.328 20.3654H72.6555Z" fill="#292B2E"/>
<path fill-rule="evenodd" clip-rule="evenodd" d="M104.837 55.7758C104.837 56.0148 104.644 56.2085 104.405 56.2085H76.417C76.178 56.2085 75.9843 56.0148 75.9843 55.7758C75.9843 55.5368 76.178 55.3431 76.417 55.3431H104.405C104.644 55.3431 104.837 55.5368 104.837 55.7758Z" fill="#292B2E"/>
<path fill-rule="evenodd" clip-rule="evenodd" d="M100.902 63.6449C100.902 63.8839 100.709 64.0776 100.47 64.0776H80.351C80.112 64.0776 79.9183 63.8839 79.9183 63.6449C79.9183 63.406 80.112 63.2123 80.351 63.2123H100.47C100.709 63.2123 100.902 63.406 100.902 63.6449Z" fill="#292B2E"/>
<path fill-rule="evenodd" clip-rule="evenodd" d="M84.7319 23.9425C84.7319 23.7035 84.9257 23.5098 85.1646 23.5098H95.1889C95.4278 23.5098 95.6216 23.7035 95.6216 23.9425C95.6216 24.1814 95.4278 24.3752 95.1889 24.3752H85.1646C84.9257 24.3752 84.7319 24.1814 84.7319 23.9425Z" fill="#292B2E"/>
</svg>
