<svg width="180" height="120" viewBox="0 0 180 120" fill="none" xmlns="http://www.w3.org/2000/svg">
<rect width="180" height="120" fill="white"/>
<path fill-rule="evenodd" clip-rule="evenodd" d="M180 77.414H0V76.7217H180V77.414Z" fill="#DDE1E8"/>
<path d="M107.696 20H72.4108C69.9747 20 68 22.2021 68 24.9182V93.7729C68 96.489 69.9747 98.6909 72.4108 98.6909H107.696C110.132 98.6909 112.107 96.489 112.107 93.7729V24.9182C112.107 22.2021 110.132 20 107.696 20Z" fill="white"/>
<path fill-rule="evenodd" clip-rule="evenodd" d="M68 25.2644C68 22.3935 70.0952 20 72.7569 20H108.042C110.704 20 112.799 22.3935 112.799 25.2644V94.119C112.799 96.9899 110.704 99.3832 108.042 99.3832H72.7569C70.0952 99.3832 68 96.9899 68 94.119V25.2644ZM72.7569 20.6923C70.5466 20.6923 68.6923 22.703 68.6923 25.2644V94.119C68.6923 96.6804 70.5465 98.6909 72.7569 98.6909H108.042C110.253 98.6909 112.107 96.6804 112.107 94.119V25.2644C112.107 22.703 110.253 20.6923 108.042 20.6923H72.7569Z" fill="#292B2E"/>
<path fill-rule="evenodd" clip-rule="evenodd" d="M85.0415 24.3559C85.0415 24.1647 85.1965 24.0098 85.3877 24.0098H95.412C95.6032 24.0098 95.7581 24.1647 95.7581 24.3559C95.7581 24.5471 95.6032 24.7021 95.412 24.7021H85.3877C85.1965 24.7021 85.0415 24.5471 85.0415 24.3559Z" fill="#292B2E"/>
<circle cx="113" cy="78" r="9.65" fill="white" stroke="#292B2E" stroke-width="0.7"/>
<path d="M112.864 71.5L112.864 78.138L118 78.138" stroke="#292B2E" stroke-width="0.7" stroke-linecap="round"/>
<path d="M75.5 58.5C75.5 54.0817 79.0817 50.5 83.5 50.5H98C102.418 50.5 106 54.0817 106 58.5C106 62.9183 102.418 66.5 98 66.5H83.5C79.0817 66.5 75.5 62.9183 75.5 58.5Z" fill="#292B2E"/>
<path fill-rule="evenodd" clip-rule="evenodd" d="M75 58.5C75 53.8056 78.8056 50 83.5 50H98C102.694 50 106.5 53.8056 106.5 58.5C106.5 63.1944 102.694 67 98 67H83.5C78.8056 67 75 63.1944 75 58.5ZM83.5 51C79.3579 51 76 54.3579 76 58.5C76 62.6421 79.3579 66 83.5 66H98C102.142 66 105.5 62.6421 105.5 58.5C105.5 54.3579 102.142 51 98 51H83.5Z" fill="#292B2E"/>
<path d="M106 58.5C106 62.9183 102.418 66.5 98 66.5C93.5817 66.5 90 62.9183 90 58.5C90 54.0817 93.5817 50.5 98 50.5C102.418 50.5 106 54.0817 106 58.5Z" fill="#BFEBFF"/>
<path fill-rule="evenodd" clip-rule="evenodd" d="M98 65.5C101.866 65.5 105 62.366 105 58.5C105 54.634 101.866 51.5 98 51.5C94.134 51.5 91 54.634 91 58.5C91 62.366 94.134 65.5 98 65.5ZM98 66.5C102.418 66.5 106 62.9183 106 58.5C106 54.0817 102.418 50.5 98 50.5C93.5817 50.5 90 54.0817 90 58.5C90 62.9183 93.5817 66.5 98 66.5Z" fill="#292B2E"/>
</svg>
