<?xml version="1.0" encoding="utf-8"?>
<!-- Generator: Adobe Illustrator 27.5.0, SVG Export Plug-In . SVG Version: 6.00 Build 0)  -->
<svg version="1.1" xmlns="http://www.w3.org/2000/svg" xmlns:xlink="http://www.w3.org/1999/xlink" x="0px" y="0px"
	 viewBox="0 0 750 500" style="enable-background:new 0 0 750 500;" xml:space="preserve">
<g id="Background">
	<rect style="fill:#FFFFFF;" width="750" height="500"/>
</g>
<g id="Objects">
	<g>
		<g>
			<g>
				<g>
					<g>
						<path style="fill:#EAF4F2;" d="M311.744,148.181c60.419,48.936,122.902,99.53,248.504,83.099
							c33.776-4.423,64.547-5.363,91.927-2.839c-41.554-41.388-84.159-14.819-167.055-85.817
							c-86.315-73.92-167.755-113.437-277.109-49.968c-0.774,0.451-1.539,0.903-2.304,1.364c20.524,0.977,44.669,7.41,69.423,25.5
							C287.543,128.597,299.846,138.55,311.744,148.181z"/>
						<path style="fill:#EAF4F2;" d="M492.852,374.235c-27.15-16.939-55.101-28.965-80.832-34.78
							c-27.767-6.267-52.207-4.977-70.685,3.714c-70.464,33.177-186.408,26.744-247.637-18.588
							c3.189,41.545,16.662,84.453,43.268,125.583h439.519C555.142,420.673,523.854,393.579,492.852,374.235z"/>
						<path style="fill:#CED8D6;" d="M561.058,445.229H207.343c-1.362,0-2.467,1.105-2.467,2.467l0,0
							c0,1.363,1.105,2.467,2.467,2.467h353.714c1.363,0,2.467-1.105,2.467-2.467l0,0
							C563.525,446.334,562.42,445.229,561.058,445.229z"/>
						<path style="fill:#EAF4F2;" d="M541.576,304.573c-60.575-56.963-135.868-42.853-208.682-29.214
							c-42.153,7.898-81.965,15.363-117.732,9.105c-27.758-4.847-49.277-16.413-65.782-35.352
							c-14.211-16.303-22.33-35.232-29.481-51.922c-0.562-1.318-1.115-2.608-1.668-3.88
							c-18.275,38.338-27.813,82.739-24.708,128.883c60.262,45.858,176.547,52.493,247.029,19.316
							c18.855-8.875,43.71-10.211,71.874-3.852c25.924,5.861,54.078,17.961,81.403,35.01c30.43,18.985,58.096,43.176,77.883,68.105
							c2.488,3.134,4.848,6.267,7.068,9.391h32.08c0,0,30.136-31.49,51.461-73.726c-7.787-1.981-15.805-4.608-23.998-7.852
							C605.893,355.729,572.44,333.593,541.576,304.573z"/>
						<path style="fill:#EAF4F2;" d="M663.51,241.518c-3.124-4.119-6.23-7.778-9.336-11.04c-27.776-2.765-59.147-1.889-93.688,2.626
							c-16.625,2.175-32.145,3.189-46.715,3.189c-96.157,0-150.448-43.968-203.19-86.674c-11.879-9.621-24.164-19.565-36.54-28.606
							c-25.519-18.662-50.392-24.745-71.192-25.242c-34.449,21.473-63.865,54.963-83.56,95.337c0.765,1.76,1.53,3.548,2.304,5.354
							c14.404,33.61,32.329,75.431,93.881,86.186c35.444,6.202,75.099-1.235,117.087-9.096
							c73.266-13.731,149.019-27.924,210.277,29.684c39.056,36.725,82.02,61.727,120.34,71.487
							C683.462,333.842,695.111,283.284,663.51,241.518z"/>
					</g>
					<path style="fill:#EAF4F2;" d="M494.32,122.676c7.787-13.383-52.77-42.31-61.174-35.118
						C424.741,94.751,485.417,137.977,494.32,122.676z"/>
					<path style="fill:#EAF4F2;" d="M420.573,80.427c-3.171,3.426,4.208,8.072,7.231,5.653
						C430.827,83.661,423.48,77.285,420.573,80.427z"/>
				</g>
				<path style="fill:#EAF4F2;" d="M141.181,124.871c12.411,8.174-14.996,38.969-25.814,37.635
					C104.549,161.173,128.77,116.697,141.181,124.871z"/>
				<path style="fill:#EAF4F2;" d="M144.342,120.264c3.782,6.149,15.742-3.672,10.693-8.428
					C149.987,107.08,141.583,115.777,144.342,120.264z"/>
			</g>
			<g>
				<rect x="509.939" y="124.871" style="fill:#FDD449;" width="126.4" height="85.587"/>
				<g>
					<g>
						<g>
							<polygon style="fill:#FFFFFF;" points="603.981,198.226 542.298,198.226 542.298,142.62 544.48,142.62 544.48,196.044 
								603.981,196.044 							"/>
						</g>
						<polygon style="fill:#FFFFFF;" points="598.437,159.437 597.767,154.528 592.859,155.197 591.059,157.566 594.521,157.093 
							582.263,173.22 569.894,162.036 552.648,186.909 554.346,188.085 570.252,165.145 582.546,176.263 596.166,158.344 
							596.637,161.805 						"/>
					</g>
				</g>
				<rect x="509.939" y="124.871" style="fill:#FC694C;" width="126.4" height="10.819"/>
				<circle style="fill:#FFFFFF;" cx="628.045" cy="130.16" r="2.284"/>
				<circle style="fill:#FFFFFF;" cx="620.593" cy="130.16" r="2.284"/>
				<path style="fill:#FFFFFF;" d="M615.424,130.16c0,1.261-1.023,2.284-2.284,2.284s-2.284-1.022-2.284-2.284
					s1.023-2.284,2.284-2.284S615.424,128.898,615.424,130.16z"/>
			</g>
			<g>
				<path style="fill:#FFFFFF;stroke:#444C72;stroke-width:2.7647;stroke-miterlimit:10;" d="M244.752,272.352H140.41
					c-4.072,0-7.373-3.301-7.373-7.373v-72.633c0-4.072,3.301-7.373,7.373-7.373h104.342c4.072,0,7.373,3.301,7.373,7.373v72.633
					C252.125,269.051,248.824,272.352,244.752,272.352z"/>
				<rect x="141.181" y="192.686" style="fill:#FC694C;" width="17.069" height="24.263"/>
				<path style="fill:#FDD449;" d="M151.549,195.702c0,1.012-0.821,1.833-1.833,1.833c-1.012,0-1.833-0.821-1.833-1.833
					c0-1.012,0.821-1.833,1.833-1.833C150.728,193.869,151.549,194.69,151.549,195.702z"/>
				<rect x="164.802" y="220.06" style="fill:#FC694C;" width="17.069" height="24.263"/>
				<path style="fill:#19888E;" d="M175.17,223.077c0,1.012-0.821,1.833-1.833,1.833c-1.012,0-1.833-0.821-1.833-1.833
					c0-1.012,0.821-1.833,1.833-1.833C174.349,221.243,175.17,222.064,175.17,223.077z"/>
				<rect x="194.373" y="195.475" style="fill:#FDD449;" width="17.069" height="24.263"/>
				<path style="fill:#FC694C;" d="M204.74,198.492c0,1.012-0.821,1.833-1.833,1.833c-1.012,0-1.833-0.821-1.833-1.833
					c0-1.012,0.821-1.833,1.833-1.833C203.92,196.659,204.74,197.479,204.74,198.492z"/>
				<rect x="194.373" y="240.338" style="fill:#19888E;" width="17.069" height="24.263"/>
				<path style="fill:#FC694C;" d="M204.74,243.354c0,1.012-0.821,1.833-1.833,1.833c-1.012,0-1.833-0.821-1.833-1.833
					c0-1.012,0.821-1.833,1.833-1.833C203.92,241.521,204.74,242.342,204.74,243.354z"/>
			</g>
			<g>
				<path style="fill:#F6B68E;" d="M430.369,450.163h-37.554c0,0,0.931-5.041,4.073-8.184c3.133-3.142,15.63-5.843,17.538-7.575
					l-0.111-2.682l-0.046-1.115l-0.212-5.308l15.16,2.424l0.59,5.29l0.037,0.369l0.525,4.663
					C430.369,438.045,431.917,445.122,430.369,450.163z"/>
				<path style="fill:#C4764B;" d="M429.844,433.382c-5.318,1.705-11.944-0.276-15.529-1.659l-0.046-1.115l-0.212-5.308l15.16,2.424
					l0.59,5.29L429.844,433.382z"/>
				<path style="fill:#444C72;" d="M392.818,450.164h37.552c1.548-5.041,0-12.121,0-12.121s-11.573,2.153-15.944-3.634
					c-1.907,1.728-14.405,4.427-17.539,7.571C393.743,445.123,392.818,450.164,392.818,450.164z"/>
				<path style="fill:#F6B68E;" d="M383.802,444.754h-37.554c0,0,0.931-5.041,4.073-8.184c3.133-3.142,15.63-5.843,17.538-7.575
					l-0.12-2.986l-0.037-0.811l-0.212-5.308l15.16,2.424l0.59,5.29l0.037,0.295l0.525,4.737
					C383.802,432.635,385.35,439.713,383.802,444.754z"/>
				<path style="fill:#C4764B;" d="M383.276,427.898c-1.244,0.35-2.894,0.617-5.078,0.673c-5.327,0.138-8.737-1.447-10.46-2.562
					l-0.037-0.811l-0.212-5.308l15.16,2.424l0.59,5.29L383.276,427.898z"/>
				<path style="fill:#444C72;" d="M346.248,444.754h37.552c1.548-5.041,0-12.121,0-12.121s-11.573,2.152-15.944-3.634
					c-1.907,1.728-14.405,4.427-17.539,7.571C347.173,439.713,346.248,444.754,346.248,444.754z"/>
				<path style="fill:#444C72;" d="M429.466,294.49l-2.855,63.039l5.59,71.462c0,0-9.376,3.606-20.916,0l-10.458-70.741
					l-4.552-42.536l-5.666,44.76l-6.061,64.671c0,0-8.605,3.366-19.183-1.923l2.645-66.835l4.838-61.599L429.466,294.49z"/>
				<path style="fill:#F6B68E;" d="M346.247,239.177l-3.161,7.87c0,0-2.562-0.71-5.281-1.622c-2.654-0.885-5.456-1.981-6.119-2.792
					c-1.346-1.631-2.424-3.631-3.52-5.29c-1.106-1.668-0.756-3.944-1.281-4.986c-0.516-1.041-1.244-3.198-0.424-3.658
					c0.82-0.461,3.99,3.244,5.364,3.861c1.364,0.608,5.336,1.797,5.336,1.797l-1.087-1.299c0,0-1.806-1.77-1.935-2.571
					c-0.138-0.802,0.654-1.023,0.654-1.023s5.797,2.47,7.105,3.963c0.581,0.645,1.475,1.825,2.313,2.94
					C345.28,237.823,346.247,239.177,346.247,239.177z"/>
				<path style="fill:#C4764B;" d="M346.247,239.177l-3.161,7.87c0,0-2.562-0.71-5.281-1.622c3.843-2.894,5.64-6.783,6.405-9.059
					C345.28,237.823,346.247,239.177,346.247,239.177z"/>
				<polygon style="fill:#FC694C;" points="382.318,215.975 366.697,246.471 345.237,236.983 340.945,248.222 370.538,261.561 
					383.414,248.222 				"/>
				<path style="fill:#FC694C;" d="M431.079,295.043c0,0-2.884,1.281-7.907,2.617c-10.349,2.746-29.749,5.741-51.507-1.714
					l3.142-23.592l1.438-10.792l6.073-45.59l12.331-7.456l14.708-2.857l13.556,8.976c0,0,1.567,7.041,3.364,17.556
					C429.153,249.094,432.609,274.99,431.079,295.043z"/>
				<path style="fill:#D64F38;" d="M431.079,295.043c0,0-2.884,1.281-7.907,2.617l-2-17.842h-18.57l-10.285-1.262l-17.51-6.202
					l1.438-10.792l46.024-3.917l-1.355-25.408c0,0,2.184-0.028,5.364-0.046C429.153,249.094,432.609,274.99,431.079,295.043z"/>
				<path style="fill:#222850;" d="M399.862,163.727c0,0-3.516-8.773,6.141-9.62c0,0,4.151-5.252,9.488-2.287
					s4.151,8.556,4.151,8.556s4.066,2.202,3.134,6.946c-0.932,4.744-7.031,6.777-7.031,6.777L399.862,163.727z"/>
				<path style="fill:#FC694C;" d="M406.003,164.273c0,0,1.779-1.879,4.32-1.024c2.541,0.855,5.083,4.667,3.05,7.123
					C413.373,170.372,408.968,168.847,406.003,164.273z"/>
				<path style="fill:#222850;" d="M385.834,185.195c0,0-2.957-1.185-3.465-6.013c-0.508-4.829,2.796-11.436,8.725-12.114
					c5.93-0.678,9.234-6.015,14.909-2.796c5.676,3.219,7.37,6.099,7.37,6.099s5.167,3.897,5.167,7.455
					c0,3.558-1.609,5.252-0.847,8.386c0.762,3.134-3.287,12.382-9.333,14.408L385.834,185.195z"/>
				<path style="fill:#F6B68E;" d="M386.011,181.977c0,0-2.203,19.303,8.641,20.325v8.815c0,0,5.41,5.379,15.406-1.906
					l-3.038-15.375c0,0,3.388,0,4.066-4.236c0.678-4.236-4.744-6.777-6.608-2.88c0,0-1.525-3.219-4.574-3.558
					c-3.05-0.339-8.386-0.762-9.234-4.49C390.671,178.674,389.823,181.13,386.011,181.977z"/>
				<path style="fill:#FC694C;" d="M422.915,214.637c0,0,12.907,3.973,17.425,53.934c0,0-12.424,7.385-36.143,7.1v-9.773
					l23.719-5.647c0,0-5.196-19.201-7.003-28.011C419.105,223.43,422.915,214.637,422.915,214.637z"/>
				<path style="fill:#F6B68E;" d="M404.196,266.686v7.631c0,0-1.742,0.037-4.046-0.028c-2.636-0.074-6.027-0.276-8.377-0.82
					c-4.405-1.023-10.948-6.608-9.455-6.783c1.161-0.129,13.648-0.055,19.224-0.027
					C403.164,266.677,404.196,266.686,404.196,266.686z"/>
				<path style="fill:#C4764B;" d="M404.196,266.686v7.631c0,0-1.742,0.037-4.046-0.028c1.106-3.013,1.355-6.119,1.392-7.63
					C403.164,266.677,404.196,266.686,404.196,266.686z"/>
				<polygon style="fill:#FDD449;" points="404.196,266.689 360.598,266.689 353.313,229.755 398.486,229.755 				"/>
				<path style="fill:#FFFFFF;" d="M382.291,245.383c-0.599,3.004-4.479,5.032-4.479,5.032s-3.88-2.027-4.479-5.032
					c-0.608-3.014,2.35-4.212,4.479-1.991C379.941,241.171,382.899,242.37,382.291,245.383z"/>
				<polygon style="fill:#E59A38;" points="404.196,266.689 425.318,262.284 425.318,259.319 406.596,263.004 401.56,229.755 
					398.486,229.755 				"/>
				<polygon style="fill:#222850;" points="396.274,315.714 388.355,312.272 395.178,324.372 				"/>
				<path style="fill:#C4764B;" d="M394.652,202.303c0,0,6.986,0.461,9.87-6.451c0,0,1.295,10.278-9.87,11.6V202.303z"/>
			</g>
			<g>
				<path style="fill:#222850;" d="M499.204,171.214c0,0-5.729-3.641-2.844-9.591c2.885-5.95,9.917-9.286,14.966-7.393
					c0,0,2.975-3.426,8.024-1.262c5.049,2.164,5.95,7.302,5.95,7.302s5.59-1.803,7.753,3.426c2.164,5.229-1.172,9.827-1.172,9.827
					s4.598,2.254,3.155,8.114c-1.443,5.86-4.237,6.852-4.237,6.852s0.353,5.86-1.852,7.573c-2.205,1.713-4.715,1.447-4.715,1.447
					L499.204,171.214z"/>
				<path style="fill:#0A5B5B;" d="M494.553,210.457l-12.077,42.691c0,0-0.824,17.442,4.89,44.005l4.783-10.005L494.553,210.457z"/>
				<path style="fill:#F6B68E;" d="M541.521,450.163h-37.554c0,0,0.931-5.041,4.073-8.184c3.133-3.142,15.63-5.843,17.538-7.575
					l-0.111-2.58l-0.046-1.217l-0.212-5.308l15.16,2.424l0.507,4.58l0.083,0.71l0.562,5.032
					C541.521,438.045,543.069,445.122,541.521,450.163z"/>
				<path style="fill:#444C72;" d="M503.974,450.164h37.552c1.548-5.041,0-12.121,0-12.121s-11.573,2.153-15.944-3.634
					c-1.907,1.728-14.405,4.427-17.539,7.571C504.9,445.123,503.974,450.164,503.974,450.164z"/>
				<path style="fill:#F6B68E;" d="M494.953,444.754h-37.554c0,0,0.931-5.041,4.073-8.184c3.133-3.142,15.63-5.843,17.538-7.575
					l-0.101-2.35l-0.055-1.447l-0.212-5.308l15.16,2.424l0.59,5.29l0.065,0.608l0.498,4.424
					C494.953,432.635,496.502,439.713,494.953,444.754z"/>
				<path style="fill:#C4764B;" d="M494.391,427.603l0.065,0.608c-5.446,2.175-11.971,0.009-15.547-1.567l-0.055-1.447l-0.212-5.308
					l15.16,2.424L494.391,427.603z"/>
				<path style="fill:#C4764B;" d="M540.876,432.303c-1.631,0.396-3.649,0.682-6.11,0.719c-4.368,0.064-7.391-0.562-9.299-1.198
					l-0.046-1.217l-0.212-5.308l15.16,2.424L540.876,432.303z"/>
				<path style="fill:#444C72;" d="M457.404,444.754h37.552c1.548-5.041,0-12.121,0-12.121s-11.573,2.152-15.944-3.634
					c-1.907,1.728-14.405,4.427-17.539,7.571C458.329,439.713,457.404,444.754,457.404,444.754z"/>
				<path style="fill:#444C72;" d="M539.166,294.482l-1.399,63.048l5.59,71.462c0,0-9.376,3.606-20.916,0l-10.458-70.741
					l-4.552-42.536l-5.666,44.76l-6.061,64.671c0,0-8.605,3.366-19.183-1.923l2.645-66.835l8.764-63.312L539.166,294.482z"/>
				<path style="fill:#19888E;" d="M540.71,294.122c-4.018,0.986-7.907,1.686-11.621,2.166c-25.389,3.29-42.955-3.852-42.955-3.852
					l8.423-81.974l14.496-6.608l15.28-0.488l15.943,9.041l0.111,20.321L540.71,294.122z"/>
				<path style="fill:#0A5B5B;" d="M529.089,296.288l0.627-19.537l-25.288-1.069l-11.879-1.355l0.148-4.608l38.642-7.308
					l0.885-31.665c0,0,3.53,0.83,8.165,1.981l0.323,61.396C536.692,295.108,532.803,295.808,529.089,296.288z"/>
				<path style="fill:#F6B68E;" d="M499.721,168.273c0,0-6.371,29.09,9.977,30.532l-0.841,6.611c0,0,4.808,4.928,15.507,0
					l-0.24-14.425c0,0,1.563-0.481,2.885-2.885c1.322-2.404,3.606-7.212,0-8.174c-3.606-0.962-4.688,3.005-4.688,3.005l-1.563-0.24
					c0,0,0.962-6.972-0.721-7.453c-1.683-0.481-4.027,1.863-8.294-0.421c-4.267-2.284-3.606-5.289-6.671-5.65
					C502.005,168.814,499.721,168.273,499.721,168.273z"/>
				<path style="fill:#19888E;" d="M540.28,212.408c0,0,4.639,3.819,7.164,14.277c2.524,10.458,2.837,35.28,2.597,38.887
					c-0.24,3.606-23.693,7.813-45.09,7.212c0,0-2.436-1.364-0.633-9.658l31.345-7.231c0,0-4.087-23.32-3.486-29.21
					C532.778,220.795,536.362,214.358,540.28,212.408z"/>
				<polygon style="fill:#FFFFFF;" points="499.181,252.469 485.116,252.83 487.133,272.352 497.164,272.112 				"/>
				<path style="fill:#F6B68E;" d="M504.427,272.179c0,0-1.945,0.313-4.414,0.276c-1.843-0.018-3.981-0.24-5.834-0.931
					c-4.331-1.622-5.244-2.599-5.456-2.977c-2.433-4.368-1.733-8.405-1.309-8.884c0.424-0.479,5.032,1.336,6.534,1.585
					c1.502,0.249,4.332,0.028,4.332,0.028l0.369-3.631c1.18,0.507,3.456,3.198,4.7,4.764c0.534,0.673,0.885,1.134,0.885,1.134
					L504.427,272.179z"/>
				<path style="fill:#C4764B;" d="M500.013,272.456c3.898-4.414,3.336-10.045,3.336-10.045c0.534,0.673,0.885,1.134,0.885,1.134
					l0.194,8.635C504.427,272.179,502.483,272.492,500.013,272.456z"/>
				<ellipse style="fill:#CED8D6;" cx="492.149" cy="252.469" rx="7.032" ry="1.645"/>
				<polygon style="fill:#222850;" points="507.431,315.714 501.348,309.387 506.052,326.609 				"/>
				<path style="fill:#C4764B;" d="M509.699,198.805c0,0,6.044,0.593,10.732-6.168c0,0-0.218,9.54-11.243,10.179L509.699,198.805z"
					/>
			</g>
			<g>
				<path style="fill:#F6B68E;" d="M263.186,450.163h-37.554c-1.548-5.041,0-12.119,0-12.119l0.562-5.032l0.028-0.249l0.562-5.041
					l15.16-2.424l-0.212,5.308l-0.037,0.995l-0.12,2.802c1.908,1.732,14.404,4.433,17.538,7.575
					C262.255,445.122,263.186,450.163,263.186,450.163z"/>
				<path style="fill:#444C72;" d="M263.184,450.164h-37.552c-1.548-5.041,0-12.121,0-12.121s11.573,2.153,15.944-3.634
					c1.907,1.728,14.405,4.427,17.539,7.571C262.259,445.123,263.184,450.164,263.184,450.164z"/>
				<path style="fill:#F6B68E;" d="M309.762,444.754h-37.554c-1.548-5.041,0-12.119,0-12.119l0.396-3.557l0.166-1.475l0.59-5.29
					l15.16-2.424l-0.212,5.308l-0.009,0.304l-0.147,3.493c1.908,1.732,14.404,4.433,17.538,7.575
					C308.832,439.713,309.762,444.754,309.762,444.754z"/>
				<path style="fill:#C4764B;" d="M226.783,427.723l15.16-2.424l-0.212,5.308l-0.037,0.995c-7.52,2.839-13.086,1.862-15.473,1.161
					L226.783,427.723z"/>
				<path style="fill:#C4764B;" d="M288.52,419.89l-0.212,5.308l-0.009,0.304c-5.041,3.751-12.847,3.723-15.695,3.576l0.166-1.475
					l0.59-5.29L288.52,419.89z"/>
				<path style="fill:#444C72;" d="M309.754,444.754h-37.552c-1.548-5.041,0-12.121,0-12.121s11.573,2.152,15.944-3.634
					c1.907,1.728,14.405,4.427,17.539,7.571C308.829,439.713,309.754,444.754,309.754,444.754z"/>
				<path style="fill:#222850;" d="M267.437,168.273c0,0,5.77-3.975,5.169-12.509c-0.601-8.535-10.217-9.016-14.305-7.573
					c-4.087,1.442-5.89,7.573-8.655,8.535c-2.765,0.962-12.381,3.125-12.261,8.414c0,0-6.13,0.721-5.77,5.77
					c0.361,5.049-0.404,20.42,11.338,24.995L267.437,168.273z"/>
				<path style="fill:#444C72;" d="M227.993,294.482l1.399,63.048l-5.589,71.462c0,0,9.376,3.606,20.916,0l10.458-70.741
					l4.552-42.536l5.666,44.76l6.06,64.671c0,0,8.605,3.366,19.183-1.923l-2.645-66.835l-8.764-63.312L227.993,294.482z"/>
				<path style="fill:#F6B68E;" d="M327.069,194.757c-0.055,1.438-2.82,5.529-4.811,8.313c-1.143,1.585-2.027,2.746-2.027,2.746
					l-7.732-4.663c0,0-0.018-0.479-0.037-1.207c-0.028-1.751-0.074-4.958,0.037-6.451c0.147-2.119,3.484-7.935,3.484-7.935
					s0.811-0.313,1.216,0.452c0.405,0.765,0,3.428,0,3.428l-0.083,1.797c0,0,2.608-3.557,3.373-4.958
					c0.774-1.391,1.087-6.58,2.073-6.718c0.995-0.129,1.76,2.165,1.991,3.382c0.221,1.217,1.982,2.93,2.11,5.05
					C326.802,190.113,327.162,192.499,327.069,194.757z"/>
				<path style="fill:#C4764B;" d="M322.259,203.07c-1.143,1.585-2.027,2.746-2.027,2.746l-7.732-4.663c0,0-0.018-0.479-0.037-1.207
					c0.009-0.009,0.009-0.009,0.009-0.009S319.715,199.789,322.259,203.07z"/>
				<path style="fill:#FDD449;" d="M272.606,210.457l21.757,18.632l17.249-28.158c0,0,5.076,1.432,9.133,5.219
					c0,0-14.242,30.843-23.618,39.047l-21.376-4.089L272.606,210.457z"/>
				<path style="fill:#FDD449;" d="M281.018,292.435c0,0-14.745,6-36.753,4.47c-5.52-0.378-11.501-1.235-17.823-2.783l0.332-62.566
					l0.101-19.15l15.952-9.041l15.271,0.488l14.506,6.608l6.645,64.741L281.018,292.435z"/>
				<path style="fill:#E59A38;" d="M264.301,276.298l-21.722,1.447l1.686,19.16c-5.52-0.378-11.501-1.235-17.823-2.783l0.332-62.566
					l8.211-4.875l5.29,38.245l38.163,3.622l0.811,6.654L264.301,276.298z"/>
				<path style="fill:#F6B68E;" d="M267.437,168.273c0,0,6.371,29.09-9.977,30.532l0.841,6.611c0,0-4.808,4.928-15.506,0
					l0.24-14.425c0,0-1.563-0.481-2.885-2.885c-1.322-2.404-3.606-7.212,0-8.174c3.606-0.962,4.688,3.005,4.688,3.005l1.563-0.24
					c0,0-0.962-6.972,0.721-7.453c1.683-0.481,4.027,1.863,8.294-0.421c4.267-2.284,3.606-5.289,6.671-5.65
					C265.153,168.814,267.437,168.273,267.437,168.273z"/>
				<polygon style="fill:#FC694C;" points="267.978,252.469 282.042,252.83 280.025,272.352 269.995,272.112 				"/>
				<path style="fill:#F6B68E;" d="M278.438,268.548c-0.212,0.378-1.134,1.355-5.456,2.977c-2.719,1.023-6.064,1.014-8.174,0.876
					c-1.254-0.083-2.074-0.221-2.074-0.221l0.194-8.635c0,0,3.898-5.179,5.585-5.898l0.369,3.631c0,0,2.82,0.221,4.322-0.028
					c1.502-0.249,6.119-2.064,6.543-1.585C280.161,260.143,280.871,264.18,278.438,268.548z"/>
				<path style="fill:#C4764B;" d="M264.808,272.4c-1.254-0.083-2.074-0.221-2.074-0.221l0.194-8.635
					C262.928,263.544,265.001,268.032,264.808,272.4z"/>
				<ellipse style="fill:#222850;" cx="275.01" cy="252.469" rx="7.032" ry="1.645"/>
				<polygon style="fill:#222850;" points="259.727,315.714 267.978,311.37 261.193,327.289 				"/>
				<polygon style="fill:#E59A38;" points="275.752,241.108 274.584,229.755 282.042,242.311 				"/>
				<path style="fill:#C4764B;" d="M257.46,198.805c0,0-6.2,0.233-11.128-6.619c0,0,1.359,10.397,11.708,11.179L257.46,198.805z"/>
				<path style="fill:#FDD449;" d="M226.879,212.408c0,0-4.639,3.819-7.163,14.277c-2.524,10.458-2.837,35.28-2.597,38.887
					c0.24,3.606,23.693,7.813,45.09,7.212c0,0,2.436-1.364,0.633-9.658l-31.345-7.231c0,0,4.087-23.32,3.486-29.21
					C234.38,220.795,230.797,214.358,226.879,212.408z"/>
			</g>
			<g>
				<path style="fill:#FFFFFF;" d="M665.141,266.613c0,25.052-20.303,45.366-45.355,45.366c-25.052,0-45.366-20.314-45.366-45.366
					c0-25.051,20.314-45.366,45.366-45.366C644.838,221.247,665.141,241.561,665.141,266.613z"/>
				<path style="fill:#FDD449;" d="M658.695,266.613c0,21.491-17.418,38.918-38.909,38.918c-21.491,0-38.918-17.427-38.918-38.918
					c0-21.491,17.427-38.918,38.918-38.918C641.277,227.694,658.695,245.122,658.695,266.613z"/>
				<path style="fill:#FC694C;" d="M658.695,266.613h-38.909v-38.918C641.277,227.694,658.695,245.122,658.695,266.613z"/>
			</g>
			<g>
				<path style="fill:#19888E;" d="M163.814,315.852c0,0,1.52-10.02-3.529-17.353c-5.049-7.332-16.348-10.698-24.522-12.622
					c-8.174-1.923-23.56,8.174-30.532,5.77c-6.972-2.404-1.683,7.212,4.087,11.059c5.77,3.847,6.732,9.839,16.829,10.81
					c10.097,0.97,9.857,5.779,18.512,6.5C153.313,320.737,160.611,318.42,163.814,315.852z"/>
				<path style="fill:#19888E;" d="M164.028,349.38c0,0-3.743-13.977-18.889-19.266c-15.146-5.289-22.599,4.568-30.292,6.01
					c-7.693,1.442-14.425-0.311-14.184,2.85c0.24,3.161,8.895,6.603,14.665,9.089c5.77,2.486,3.606,2.967,11.059,4.89
					c7.453,1.923,16.348,1.202,18.031,1.683C146.101,355.116,161.04,354.462,164.028,349.38z"/>
				<path style="fill:#19888E;" d="M184.274,331.711c0,0-5.236-8.347-3.313-18.195c1.923-9.848,19.251-22.349,27.657-23.311
					c8.405-0.962,0.231,7.822-2.413,12.686c-2.645,4.864-3.125,10.874-5.529,14.961s-3.546,4.808-4.418,7.693
					C195.385,328.431,186.625,330.904,184.274,331.711z"/>
				<path style="fill:#19888E;" d="M184.191,361.157c0,0-4.834-16.379,3.721-23.831c8.555-7.453,24.337-11.308,25.143-10.217
					c0.806,1.091-1.923,9.616-3.726,12.381c-1.803,2.765-5.292,7.813-7.214,9.616c-1.922,1.803-2.523,6.852-5.528,8.174
					S188.623,362.029,184.191,361.157z"/>
				<g>
					<path style="fill:#0A5B5B;" d="M176.533,396.611c0.218-1.472,0.357-3.167,0.45-4.774c0.08-1.631,0.124-3.269,0.104-4.909
						c-0.027-3.279-0.275-6.56-0.754-9.805c-0.944-6.484-2.899-12.854-6.211-18.503c-3.253-5.686-8.119-10.416-13.929-13.644
						c-5.842-3.19-12.503-4.866-19.227-5.487c6.746,0.165,13.585,1.371,19.853,4.254c6.23,2.915,11.757,7.569,15.636,13.392
						c3.944,5.781,6.488,12.437,7.957,19.237c0.742,3.406,1.242,6.861,1.508,10.336c0.14,1.738,0.213,3.481,0.246,5.23
						c0.014,1.771,0.002,3.457-0.145,5.347L176.533,396.611z"/>
					<path style="fill:#0A5B5B;" d="M176.839,391.613c0.515-4.464,0.75-9.171,0.824-13.784c0.069-4.637-0.048-9.282-0.372-13.912
						c-0.324-4.63-0.853-9.246-1.618-13.824c-0.787-4.573-1.835-9.099-3.177-13.537c-1.325-4.444-3.018-8.779-5.113-12.912
						l-0.776-1.557c-0.274-0.51-0.577-1.004-0.864-1.507c-0.602-0.988-1.118-2.037-1.791-2.98l-1.95-2.883l-2.16-2.729
						c-2.989-3.552-6.434-6.727-10.269-9.402c-3.897-2.585-8.158-4.595-12.608-6.13c4.516,1.315,8.904,3.121,12.983,5.549
						c4.016,2.517,7.693,5.581,10.934,9.073l2.353,2.691l2.147,2.859c0.74,0.94,1.321,1.982,1.99,2.971
						c0.32,0.503,0.657,0.997,0.964,1.508l0.875,1.559c2.363,4.146,4.324,8.521,5.908,13.018c1.603,4.492,2.907,9.09,3.945,13.744
						c1.015,4.658,1.79,9.366,2.355,14.098c0.564,4.733,0.918,9.489,1.081,14.256c0.153,4.789,0.161,9.497-0.162,14.402
						L176.839,391.613z"/>
					<path style="fill:#0A5B5B;" d="M177.338,399.29c-0.036-2.812,0.07-5.46,0.23-8.171c0.163-2.694,0.403-5.379,0.722-8.054
						c0.643-5.347,1.571-10.663,2.942-15.87c0.672-2.605,1.469-5.18,2.399-7.705c0.919-2.527,1.973-5.008,3.22-7.389
						c2.436-4.777,5.667-9.195,9.737-12.612c-3.758,3.763-6.517,8.344-8.483,13.194c-1.009,2.416-1.822,4.91-2.499,7.437
						c-0.687,2.523-1.242,5.081-1.672,7.661c-0.887,5.153-1.337,10.376-1.508,15.597c-0.083,2.611-0.088,5.223-0.02,7.829
						c0.07,2.588,0.201,5.245,0.451,7.727L177.338,399.29z"/>
					<path style="fill:#0A5B5B;" d="M176.978,390.227c-0.053-7.547,0.257-14.945,0.796-22.388
						c0.548-7.426,1.381-14.833,2.606-22.179c1.231-7.341,2.862-14.635,5.239-21.697c1.213-3.521,2.614-6.981,4.328-10.284
						c1.716-3.293,3.752-6.45,6.31-9.131c-2.384,2.835-4.197,6.079-5.688,9.432c-1.486,3.361-2.652,6.851-3.628,10.387
						c-1.904,7.093-3.061,14.364-3.821,21.664c-0.754,7.303-1.119,14.645-1.202,21.986c-0.076,7.325,0.081,14.72,0.583,21.945
						L176.978,390.227z"/>
				</g>
				<path style="fill:#FC694C;" d="M202.115,388.773v34.329c0,0-2.374,13.289-22.838,13.289c-20.457,0-22.838-13.289-22.838-13.289
					v-34.329H202.115z"/>
			</g>
			<g>
				<path style="fill:#CED8D6;" d="M335.361,297.177l-3.682-0.231c-0.461-2.936-1.614-5.635-3.289-7.934l2.441-2.767
					c0.393-0.448,0.373-1.119-0.047-1.539l-2.143-2.15c-0.42-0.42-1.098-0.441-1.539-0.047l-2.773,2.448
					c-2.299-1.675-4.998-2.834-7.934-3.296l-0.23-3.682c-0.034-0.59-0.522-1.051-1.119-1.051h-3.031
					c-0.597,0-1.085,0.461-1.126,1.051l-0.231,3.682c-2.929,0.461-5.635,1.621-7.934,3.296l-2.767-2.448
					c-0.448-0.393-1.119-0.373-1.539,0.047l-2.143,2.15c-0.42,0.42-0.441,1.092-0.048,1.539l2.441,2.767
					c-1.675,2.299-2.834,4.998-3.289,7.934l-3.682,0.231c-0.597,0.034-1.058,0.529-1.058,1.119v3.038
					c0,0.59,0.461,1.085,1.058,1.119l3.682,0.23c0.454,2.936,1.614,5.635,3.289,7.934l-2.441,2.773
					c-0.393,0.441-0.373,1.112,0.048,1.533l2.143,2.15c0.42,0.42,1.092,0.441,1.539,0.047l2.767-2.441
					c2.299,1.668,5.004,2.828,7.934,3.289l0.231,3.682c0.041,0.59,0.529,1.051,1.126,1.051h3.031c0.597,0,1.085-0.461,1.119-1.051
					l0.23-3.682c2.936-0.461,5.635-1.62,7.934-3.289l2.773,2.441c0.441,0.393,1.119,0.373,1.539-0.047l2.143-2.15
					c0.42-0.42,0.441-1.092,0.047-1.533l-2.441-2.773c1.675-2.299,2.828-4.998,3.289-7.934l3.682-0.23
					c0.59-0.034,1.051-0.529,1.051-1.119v-3.038C336.412,297.706,335.951,297.211,335.361,297.177z M313.527,306.385
					c-3.628,0-6.564-2.943-6.564-6.571c0-3.628,2.936-6.564,6.564-6.564c3.628,0,6.571,2.936,6.571,6.564
					C320.097,303.442,317.154,306.385,313.527,306.385z"/>
				<path style="fill:#CED8D6;" d="M357.201,319.367l-2.249-0.141c-0.282-1.793-0.986-3.441-2.009-4.845l1.491-1.69
					c0.24-0.273,0.228-0.683-0.029-0.94l-1.309-1.313c-0.257-0.257-0.671-0.269-0.94-0.029l-1.694,1.495
					c-1.404-1.023-3.052-1.731-4.845-2.013l-0.141-2.249c-0.021-0.36-0.319-0.642-0.683-0.642h-1.851
					c-0.364,0-0.663,0.282-0.687,0.642l-0.141,2.249c-1.789,0.282-3.441,0.99-4.845,2.013l-1.69-1.495
					c-0.273-0.24-0.683-0.228-0.94,0.029l-1.309,1.313c-0.257,0.257-0.269,0.667-0.029,0.94l1.491,1.69
					c-1.023,1.404-1.731,3.052-2.009,4.845l-2.249,0.141c-0.364,0.021-0.646,0.323-0.646,0.683v1.855
					c0,0.36,0.282,0.663,0.646,0.683l2.249,0.141c0.277,1.793,0.986,3.441,2.009,4.845l-1.491,1.694
					c-0.24,0.269-0.228,0.679,0.029,0.936l1.309,1.313c0.257,0.257,0.667,0.269,0.94,0.029l1.69-1.491
					c1.404,1.019,3.056,1.727,4.845,2.008l0.141,2.249c0.025,0.36,0.323,0.642,0.687,0.642h1.851c0.364,0,0.663-0.282,0.683-0.642
					l0.141-2.249c1.793-0.281,3.441-0.99,4.845-2.008l1.694,1.491c0.269,0.24,0.683,0.228,0.94-0.029l1.309-1.313
					c0.257-0.257,0.269-0.667,0.029-0.936l-1.491-1.694c1.023-1.404,1.727-3.052,2.009-4.845l2.249-0.141
					c0.36-0.021,0.642-0.323,0.642-0.683v-1.855C357.842,319.69,357.561,319.388,357.201,319.367z M343.865,324.991
					c-2.216,0-4.009-1.797-4.009-4.013c0-2.216,1.793-4.009,4.009-4.009c2.216,0,4.013,1.793,4.013,4.009
					C347.878,323.194,346.081,324.991,343.865,324.991z"/>
			</g>
			<g>
				<path style="fill:#CED8D6;" d="M425.004,146.135l3.112,0.195c0.39,2.481,1.364,4.763,2.78,6.705l-2.063,2.338
					c-0.332,0.378-0.315,0.946,0.04,1.301l1.811,1.817c0.355,0.355,0.928,0.372,1.301,0.04l2.344-2.069
					c1.943,1.415,4.224,2.395,6.706,2.785l0.195,3.112c0.029,0.499,0.441,0.888,0.946,0.888h2.562c0.504,0,0.917-0.39,0.951-0.888
					l0.195-3.112c2.476-0.39,4.762-1.37,6.705-2.785l2.338,2.069c0.378,0.332,0.946,0.315,1.301-0.04l1.811-1.817
					c0.355-0.355,0.372-0.923,0.04-1.301l-2.063-2.338c1.416-1.943,2.396-4.224,2.78-6.705l3.112-0.195
					c0.504-0.029,0.894-0.447,0.894-0.946v-2.568c0-0.499-0.39-0.917-0.894-0.946l-3.112-0.195c-0.384-2.482-1.364-4.763-2.78-6.706
					l2.063-2.344c0.332-0.373,0.315-0.94-0.04-1.295l-1.811-1.817c-0.355-0.355-0.923-0.372-1.301-0.04l-2.338,2.063
					c-1.943-1.41-4.23-2.39-6.705-2.78l-0.195-3.112c-0.034-0.498-0.447-0.888-0.951-0.888h-2.562c-0.504,0-0.917,0.39-0.946,0.888
					l-0.195,3.112c-2.482,0.39-4.763,1.37-6.706,2.78l-2.344-2.063c-0.373-0.332-0.946-0.315-1.301,0.04l-1.811,1.817
					c-0.355,0.355-0.372,0.923-0.04,1.295l2.063,2.344c-1.416,1.943-2.39,4.224-2.78,6.706l-3.112,0.195
					c-0.499,0.029-0.888,0.447-0.888,0.946v2.568C424.116,145.688,424.506,146.107,425.004,146.135z M443.458,138.352
					c3.066,0,5.548,2.487,5.548,5.554c0,3.066-2.482,5.548-5.548,5.548c-3.066,0-5.553-2.482-5.553-5.548
					C437.905,140.84,440.392,138.352,443.458,138.352z"/>
				<path style="fill:#CED8D6;" d="M406.546,127.38l1.901,0.119c0.238,1.515,0.833,2.909,1.698,4.095l-1.26,1.428
					c-0.203,0.231-0.193,0.578,0.025,0.795l1.106,1.11c0.217,0.217,0.567,0.228,0.794,0.025l1.432-1.264
					c1.187,0.864,2.58,1.463,4.095,1.701l0.119,1.901c0.017,0.304,0.27,0.542,0.577,0.542h1.565c0.308,0,0.56-0.238,0.581-0.542
					l0.119-1.901c1.512-0.238,2.909-0.837,4.095-1.701l1.428,1.264c0.231,0.203,0.577,0.193,0.795-0.025l1.106-1.11
					c0.217-0.217,0.227-0.563,0.024-0.795l-1.26-1.428c0.865-1.187,1.463-2.58,1.698-4.095l1.901-0.119
					c0.308-0.017,0.546-0.273,0.546-0.578v-1.568c0-0.304-0.238-0.56-0.546-0.577l-1.901-0.119
					c-0.235-1.516-0.833-2.909-1.698-4.095l1.26-1.431c0.203-0.228,0.193-0.574-0.024-0.791l-1.106-1.11
					c-0.217-0.217-0.564-0.228-0.795-0.024l-1.428,1.26c-1.187-0.861-2.583-1.46-4.095-1.698l-0.119-1.901
					c-0.021-0.305-0.273-0.543-0.581-0.543h-1.565c-0.308,0-0.56,0.238-0.577,0.543l-0.119,1.901
					c-1.516,0.238-2.909,0.837-4.095,1.698l-1.432-1.26c-0.228-0.203-0.578-0.192-0.794,0.024l-1.106,1.11
					c-0.217,0.217-0.228,0.563-0.025,0.791l1.26,1.431c-0.865,1.187-1.46,2.58-1.698,4.095l-1.901,0.119
					c-0.305,0.018-0.543,0.273-0.543,0.577v1.568C406.003,127.107,406.241,127.363,406.546,127.38z M417.817,122.627
					c1.873,0,3.388,1.519,3.388,3.392c0,1.873-1.516,3.388-3.388,3.388c-1.873,0-3.392-1.516-3.392-3.388
					C414.425,124.146,415.944,122.627,417.817,122.627z"/>
			</g>
			<g>
				<path style="fill:#CED8D6;" d="M593.131,343.358l-2.966-0.186c-0.371-2.365-1.3-4.539-2.649-6.391l1.966-2.229
					c0.317-0.361,0.301-0.901-0.038-1.24l-1.726-1.732c-0.339-0.339-0.885-0.355-1.24-0.038l-2.234,1.972
					c-1.852-1.349-4.026-2.283-6.391-2.655l-0.186-2.966c-0.027-0.475-0.421-0.847-0.901-0.847h-2.442
					c-0.481,0-0.874,0.371-0.907,0.847l-0.186,2.966c-2.36,0.372-4.539,1.306-6.391,2.655l-2.229-1.972
					c-0.361-0.317-0.901-0.3-1.24,0.038l-1.726,1.732c-0.339,0.339-0.355,0.879-0.038,1.24l1.966,2.229
					c-1.349,1.852-2.283,4.026-2.649,6.391l-2.966,0.186c-0.481,0.027-0.852,0.426-0.852,0.901v2.447
					c0,0.475,0.371,0.874,0.852,0.901l2.966,0.186c0.366,2.365,1.3,4.539,2.649,6.391l-1.966,2.234
					c-0.317,0.355-0.3,0.896,0.038,1.234l1.726,1.732c0.339,0.339,0.879,0.355,1.24,0.038l2.229-1.966
					c1.852,1.344,4.031,2.278,6.391,2.649l0.186,2.966c0.033,0.475,0.426,0.847,0.907,0.847h2.442c0.481,0,0.874-0.371,0.901-0.847
					l0.186-2.966c2.365-0.371,4.539-1.305,6.391-2.649l2.234,1.966c0.355,0.317,0.901,0.301,1.24-0.038l1.726-1.732
					c0.339-0.339,0.355-0.879,0.038-1.234l-1.966-2.234c1.349-1.852,2.278-4.026,2.649-6.391l2.966-0.186
					c0.475-0.027,0.847-0.426,0.847-0.901v-2.447C593.978,343.785,593.607,343.386,593.131,343.358z M575.542,350.776
					c-2.922,0-5.288-2.371-5.288-5.293c0-2.922,2.365-5.288,5.288-5.288c2.922,0,5.293,2.365,5.293,5.288
					C580.836,348.406,578.465,350.776,575.542,350.776z"/>
			</g>
			<g>
				<polygon style="fill:#19888E;" points="307.182,103.78 307.182,148.257 370.144,148.257 381.022,160.812 381.022,148.257 
					388.574,148.257 388.574,103.78 				"/>
				<path style="fill:#FFFFFF;" d="M382.304,116.941h-68.851c-0.631,0-1.142-0.511-1.142-1.142l0,0c0-0.631,0.511-1.142,1.142-1.142
					h68.851c0.631,0,1.142,0.511,1.142,1.142l0,0C383.446,116.43,382.935,116.941,382.304,116.941z"/>
				<path style="fill:#FFFFFF;" d="M382.304,127.159h-68.851c-0.631,0-1.142-0.511-1.142-1.142l0,0c0-0.631,0.511-1.142,1.142-1.142
					h68.851c0.631,0,1.142,0.511,1.142,1.142l0,0C383.446,126.647,382.935,127.159,382.304,127.159z"/>
				<path style="fill:#FFFFFF;" d="M382.304,137.376h-68.851c-0.631,0-1.142-0.511-1.142-1.142l0,0c0-0.631,0.511-1.142,1.142-1.142
					h68.851c0.631,0,1.142,0.511,1.142,1.142l0,0C383.446,136.865,382.935,137.376,382.304,137.376z"/>
			</g>
			<g>
				<rect x="463.679" y="87.006" style="fill:#19888E;" width="92.52" height="40.63"/>
				<polygon style="fill:#19888E;" points="475.985,127.635 488.494,146.027 488.494,127.635 				"/>
				<path style="fill:#FFFFFF;" d="M548.198,98.245H471.68c-0.631,0-1.142-0.511-1.142-1.142l0,0c0-0.631,0.511-1.142,1.142-1.142
					h76.518c0.631,0,1.142,0.511,1.142,1.142l0,0C549.34,97.734,548.829,98.245,548.198,98.245z"/>
				<path style="fill:#FFFFFF;" d="M548.198,108.463H471.68c-0.631,0-1.142-0.511-1.142-1.142l0,0c0-0.631,0.511-1.142,1.142-1.142
					h76.518c0.631,0,1.142,0.511,1.142,1.142l0,0C549.34,107.951,548.829,108.463,548.198,108.463z"/>
				<path style="fill:#FFFFFF;" d="M548.198,118.68H471.68c-0.631,0-1.142-0.511-1.142-1.142l0,0c0-0.631,0.511-1.142,1.142-1.142
					h76.518c0.631,0,1.142,0.511,1.142,1.142l0,0C549.34,118.169,548.829,118.68,548.198,118.68z"/>
			</g>
			<path style="fill:#FC694C;" d="M232.742,140.644c3.19-4.155,5.108-9.339,5.108-14.982c0-13.613-11.036-24.649-24.649-24.649
				c-13.613,0-24.649,11.036-24.649,24.649c0,13.613,11.036,24.649,24.649,24.649c3.768,0,7.324-0.87,10.517-2.382l12.371,5.375
				L232.742,140.644z"/>
			<g>
				<path style="fill:#FDD449;" d="M224.162,117.583c0,2.082-0.521,3.933-1.294,5.518c-1.376,2.817-3.548,4.799-5.015,5.76
					c-2.288,1.501-1.462,4.579-1.462,4.579h-6.383c0,0,0.827-3.078-1.463-4.579c-1.413-0.927-3.484-2.803-4.862-5.462
					c-0.855-1.65-1.445-3.602-1.445-5.816c0-5.78,4.018-10.494,10.962-10.494S224.162,111.802,224.162,117.583z"/>
				<path style="fill:#444C72;" d="M217.724,136.387h-9.046c-0.371,0-0.671-0.3-0.671-0.671v-1.605c0-0.371,0.3-0.671,0.671-0.671
					h9.046c0.371,0,0.671,0.301,0.671,0.671v1.605C218.395,136.086,218.094,136.387,217.724,136.387z"/>
				<path style="fill:#444C72;" d="M217.409,136.387v5.419c0,0.786-0.636,1.422-1.422,1.422h-5.574
					c-0.786,0-1.422-0.636-1.422-1.422v-5.419H217.409z"/>
				<path style="fill:#444C72;" d="M214.284,144.945h-2.168c-0.948,0-1.717-0.769-1.717-1.717l0,0h5.603l0,0
					C216.002,144.176,215.233,144.945,214.284,144.945z"/>
				<path style="fill:#FFFFFF;" d="M215.321,123.624c-0.88,0-1.595,0.716-1.595,1.595v1.37h-0.108h-0.835h-0.108v-1.37
					c0-0.88-0.716-1.595-1.595-1.595c-0.88,0-1.595,0.716-1.595,1.595v0.638c0,0.88,0.716,1.595,1.595,1.595h0.732v5.987h0.863
					v-5.987h0.108h0.835h0.108v5.987h0.863v-5.987h0.732c0.88,0,1.595-0.716,1.595-1.595v-0.638
					C216.917,124.34,216.201,123.624,215.321,123.624z M211.812,126.589h-0.732c-0.404,0-0.732-0.328-0.732-0.732v-0.638
					c0-0.404,0.328-0.732,0.732-0.732c0.404,0,0.732,0.328,0.732,0.732V126.589z M216.053,125.857c0,0.404-0.328,0.732-0.732,0.732
					h-0.732v-1.37c0-0.404,0.328-0.732,0.732-0.732c0.404,0,0.732,0.328,0.732,0.732V125.857z"/>
			</g>
			<g>
				<path style="fill:#FFFFFF;" d="M270.389,111.836l-0.129-1.678c-0.388-3.486,0.775-7.294,4.002-11.167
					c2.905-3.42,4.519-5.938,4.519-8.843c0-3.292-2.065-5.486-6.132-5.551c-2.324,0-4.906,0.775-6.519,2.001l-1.549-4.067
					c2.13-1.549,5.809-2.582,9.23-2.582c7.423,0,10.78,4.583,10.78,9.489c0,4.389-2.453,7.551-5.551,11.23
					c-2.84,3.357-3.873,6.197-3.68,9.489l0.065,1.678H270.389z M268.969,120.874c0-2.389,1.614-4.067,3.873-4.067
					s3.809,1.678,3.809,4.067c0,2.259-1.485,4.001-3.874,4.001C270.518,124.875,268.969,123.132,268.969,120.874z"/>
			</g>
			<g>
				<path style="fill:#FFFFFF;" d="M625.485,379.419l-0.149-1.937c-0.448-4.025,0.894-8.421,4.62-12.893
					c3.354-3.949,5.217-6.855,5.217-10.21c0-3.8-2.385-6.333-7.08-6.409c-2.683,0-5.664,0.895-7.527,2.31l-1.789-4.695
					c2.459-1.789,6.707-2.981,10.656-2.981c8.57,0,12.446,5.291,12.446,10.956c0,5.067-2.832,8.718-6.409,12.966
					c-3.279,3.876-4.471,7.154-4.248,10.956l0.075,1.937H625.485z M623.846,389.853c0-2.758,1.863-4.695,4.471-4.695
					s4.397,1.937,4.397,4.695c0,2.608-1.714,4.619-4.472,4.619C625.634,394.473,623.846,392.461,623.846,389.853z"/>
			</g>
			<polygon style="fill:#CED8D6;" points="83.216,262.413 105.56,252.106 104.144,283.56 			"/>
			<polygon style="fill:#CED8D6;" points="106.27,414.47 128.614,404.163 127.198,435.617 			"/>
			<polygon style="fill:#CED8D6;" points="76.87,244.081 117.442,231.267 91.448,201.69 			"/>
			<polygon style="fill:#CED8D6;" points="618.784,447.792 612.293,413.397 644.267,422.927 			"/>
			<polygon style="fill:#CED8D6;" points="588.589,403.611 598.022,427.927 570.255,427.927 			"/>
			<polygon style="fill:#CED8D6;" points="687.505,300.114 696.938,324.43 669.17,324.43 			"/>
			<polygon style="fill:#CED8D6;" points="342.257,52.009 351.69,76.325 323.922,76.325 			"/>
		</g>
	</g>
</g>
</svg>
