<?xml version="1.0" encoding="utf-8"?>
<!-- Generator: Adobe Illustrator 27.5.0, SVG Export Plug-In . SVG Version: 6.00 Build 0)  -->
<svg version="1.1" xmlns="http://www.w3.org/2000/svg" xmlns:xlink="http://www.w3.org/1999/xlink" x="0px" y="0px"
	 viewBox="0 0 700 500" style="enable-background:new 0 0 700 500;" xml:space="preserve">
<g id="Background_Simple">
	<g>
		<path style="fill:#92E3A9;" d="M630.617,173.766c-11.177-23.981-26.119-46.191-43.193-65.052
			c-3.339-3.689-6.789-7.277-10.368-10.734C536.246,58.55,478.158,35.92,421.866,43.095c-38.411,4.895-74.244,22.992-104.881,46.672
			c-19.576,15.131-38.081,33.018-61.664,40.5c-29.906,9.488-62.167,0.536-93.542,0.394c-48.519-0.22-97.651,23.098-124.268,63.665
			C13.416,231.049,9.537,280.19,27.572,320.24s57.402,69.716,100.871,76.015c27.37,3.966,55.298-0.78,82.865,1.433
			c40.249,3.231,77.639,21.011,116.079,33.369c69.977,22.497,148.752,26.531,215.299-4.686
			c54.762-25.688,99.272-78.923,107.559-139.74C655.49,248.147,646.88,208.657,630.617,173.766z"/>
		<path style="opacity:0.7;fill:#FFFFFF;" d="M630.617,173.766c-11.177-23.981-26.119-46.191-43.193-65.052
			c-3.339-3.689-6.789-7.277-10.368-10.734C536.246,58.55,478.158,35.92,421.866,43.095c-38.411,4.895-74.244,22.992-104.881,46.672
			c-19.576,15.131-38.081,33.018-61.664,40.5c-29.906,9.488-62.167,0.536-93.542,0.394c-48.519-0.22-97.651,23.098-124.268,63.665
			C13.416,231.049,9.537,280.19,27.572,320.24s57.402,69.716,100.871,76.015c27.37,3.966,55.298-0.78,82.865,1.433
			c40.249,3.231,77.639,21.011,116.079,33.369c69.977,22.497,148.752,26.531,215.299-4.686
			c54.762-25.688,99.272-78.923,107.559-139.74C655.49,248.147,646.88,208.657,630.617,173.766z"/>
	</g>
</g>
<g id="Floor">
	<g>
		<line style="fill:none;stroke:#263238;stroke-miterlimit:10;" x1="471" y1="431.55" x2="678" y2="431.55"/>
		<line style="fill:none;stroke:#263238;stroke-miterlimit:10;" x1="76" y1="431.55" x2="462" y2="431.55"/>
		<line style="fill:none;stroke:#263238;stroke-miterlimit:10;" x1="58.45" y1="431.55" x2="67" y2="431.55"/>
	</g>
</g>
<g id="Plants">
	<g>
		<g>
			
				<line style="fill:none;stroke:#263238;stroke-width:2;stroke-miterlimit:10;" x1="620.266" y1="255.014" x2="634.19" y2="388.438"/>
			<g>
				<g>
					
						<line style="fill:none;stroke:#263238;stroke-width:2;stroke-miterlimit:10;" x1="631.946" y1="362.904" x2="625.633" y2="356.237"/>
					<path style="fill:#92E3A9;stroke:#263238;stroke-miterlimit:10;" d="M627.551,358.234c0,0,0.181-2.949-2.512-5.354
						c-1.62-1.447-10.148-5.034-10.957-2.031C613.202,354.115,621.93,360.53,627.551,358.234z"/>
					
						<line style="fill:none;stroke:#263238;stroke-width:0.5;stroke-miterlimit:10;" x1="627.551" y1="358.234" x2="619.433" y2="353.175"/>
				</g>
				<g>
					
						<line style="fill:none;stroke:#263238;stroke-width:2;stroke-miterlimit:10;" x1="633.529" y1="378.078" x2="627.217" y2="371.411"/>
					<path style="fill:#92E3A9;stroke:#263238;stroke-miterlimit:10;" d="M629.135,373.408c0,0,0.181-2.949-2.512-5.354
						c-1.62-1.447-10.148-5.034-10.957-2.031C614.786,369.289,623.514,375.704,629.135,373.408z"/>
					
						<line style="fill:none;stroke:#263238;stroke-width:0.5;stroke-miterlimit:10;" x1="629.135" y1="373.408" x2="621.017" y2="368.349"/>
				</g>
				<g>
					
						<line style="fill:none;stroke:#263238;stroke-width:2;stroke-miterlimit:10;" x1="628.082" y1="325.876" x2="621.769" y2="319.209"/>
					<path style="fill:#92E3A9;stroke:#263238;stroke-miterlimit:10;" d="M623.687,321.207c0,0,0.181-2.949-2.512-5.354
						c-1.62-1.447-10.148-5.034-10.957-2.031C609.338,317.087,618.066,323.503,623.687,321.207z"/>
					
						<line style="fill:none;stroke:#263238;stroke-width:0.5;stroke-miterlimit:10;" x1="623.687" y1="321.207" x2="615.569" y2="316.148"/>
				</g>
				<g>
					
						<line style="fill:none;stroke:#263238;stroke-width:2;stroke-miterlimit:10;" x1="629.665" y1="341.05" x2="623.353" y2="334.383"/>
					<path style="fill:#92E3A9;stroke:#263238;stroke-miterlimit:10;" d="M625.271,336.381c0,0,0.181-2.949-2.513-5.354
						c-1.62-1.447-10.148-5.034-10.957-2.031C610.921,332.262,619.649,338.677,625.271,336.381z"/>
					
						<line style="fill:none;stroke:#263238;stroke-width:0.5;stroke-miterlimit:10;" x1="625.271" y1="336.381" x2="617.153" y2="331.322"/>
				</g>
				<g>
					
						<line style="fill:none;stroke:#263238;stroke-width:2;stroke-miterlimit:10;" x1="625.509" y1="301.227" x2="619.197" y2="294.56"/>
					<path style="fill:#92E3A9;stroke:#263238;stroke-miterlimit:10;" d="M621.115,296.557c0,0,0.181-2.949-2.512-5.354
						c-1.62-1.447-10.148-5.034-10.957-2.031C606.765,292.438,615.493,298.853,621.115,296.557z"/>
					
						<line style="fill:none;stroke:#263238;stroke-width:0.5;stroke-miterlimit:10;" x1="621.115" y1="296.557" x2="612.996" y2="291.499"/>
				</g>
				<g>
					
						<line style="fill:none;stroke:#263238;stroke-width:2;stroke-miterlimit:10;" x1="622.925" y1="276.47" x2="616.613" y2="269.803"/>
					<path style="fill:#92E3A9;stroke:#263238;stroke-miterlimit:10;" d="M618.531,271.801c0,0,0.18-2.949-2.512-5.354
						c-1.62-1.447-10.148-5.034-10.957-2.031C604.182,267.682,612.91,274.097,618.531,271.801z"/>
					
						<line style="fill:none;stroke:#263238;stroke-width:0.5;stroke-miterlimit:10;" x1="618.531" y1="271.801" x2="610.413" y2="266.742"/>
				</g>
				<g>
					
						<line style="fill:none;stroke:#263238;stroke-width:2;stroke-miterlimit:10;" x1="630.885" y1="353.926" x2="635.685" y2="346.099"/>
					<path style="fill:#92E3A9;stroke:#263238;stroke-miterlimit:10;" d="M634.22,348.449c0,0-0.786-2.848,1.353-5.758
						c1.286-1.75,8.889-7.021,10.301-4.25C647.41,341.456,640.195,349.535,634.22,348.449z"/>
					
						<line style="fill:none;stroke:#263238;stroke-width:0.5;stroke-miterlimit:10;" x1="634.22" y1="348.449" x2="641.53" y2="341.463"/>
				</g>
				<g>
					
						<line style="fill:none;stroke:#263238;stroke-width:2;stroke-miterlimit:10;" x1="626.718" y1="313.995" x2="631.518" y2="306.168"/>
					<path style="fill:#92E3A9;stroke:#263238;stroke-miterlimit:10;" d="M630.053,308.518c0,0-0.786-2.848,1.353-5.758
						c1.287-1.75,8.89-7.021,10.301-4.25C643.243,301.525,636.027,309.604,630.053,308.518z"/>
					
						<line style="fill:none;stroke:#263238;stroke-width:0.5;stroke-miterlimit:10;" x1="630.053" y1="308.518" x2="637.363" y2="301.532"/>
				</g>
				<g>
					
						<line style="fill:none;stroke:#263238;stroke-width:2;stroke-miterlimit:10;" x1="624.886" y1="296.447" x2="629.686" y2="288.62"/>
					<path style="fill:#92E3A9;stroke:#263238;stroke-miterlimit:10;" d="M628.222,290.971c0,0-0.786-2.849,1.353-5.758
						c1.286-1.75,8.889-7.021,10.301-4.25C641.412,283.977,634.196,292.056,628.222,290.971z"/>
					
						<line style="fill:none;stroke:#263238;stroke-width:0.5;stroke-miterlimit:10;" x1="628.222" y1="290.971" x2="635.532" y2="283.984"/>
				</g>
				<g>
					
						<line style="fill:none;stroke:#263238;stroke-width:2;stroke-miterlimit:10;" x1="622.202" y1="270.721" x2="627.001" y2="262.894"/>
					<path style="fill:#92E3A9;stroke:#263238;stroke-miterlimit:10;" d="M625.537,265.245c0,0-0.786-2.848,1.353-5.758
						c1.287-1.75,8.889-7.021,10.301-4.249C638.727,258.252,631.511,266.331,625.537,265.245z"/>
					
						<line style="fill:none;stroke:#263238;stroke-width:0.5;stroke-miterlimit:10;" x1="625.537" y1="265.245" x2="632.847" y2="258.258"/>
					<path style="fill:#92E3A9;stroke:#263238;stroke-miterlimit:10;" d="M620.149,254.273c0,0-0.786-2.848,1.353-5.758
						c1.286-1.751,8.889-7.021,10.301-4.25C633.338,247.28,626.123,255.359,620.149,254.273z"/>
					
						<line style="fill:none;stroke:#263238;stroke-width:0.5;stroke-miterlimit:10;" x1="620.149" y1="254.273" x2="627.459" y2="247.287"/>
					<path style="fill:#92E3A9;stroke:#263238;stroke-miterlimit:10;" d="M620.572,254.575c0,0-2.915,0.482-5.584-1.949
						c-1.606-1.463-6.05-9.577-3.146-10.69C615.001,240.725,622.279,248.747,620.572,254.575z"/>
					
						<line style="fill:none;stroke:#263238;stroke-width:0.5;stroke-miterlimit:10;" x1="620.572" y1="254.575" x2="614.391" y2="246.572"/>
				</g>
			</g>
		</g>
		<g>
			
				<line style="fill:none;stroke:#263238;stroke-width:2;stroke-miterlimit:10;" x1="656.992" y1="273.389" x2="643.146" y2="406.82"/>
			<g>
				<g>
					
						<line style="fill:none;stroke:#263238;stroke-width:2;stroke-miterlimit:10;" x1="646.207" y1="381.372" x2="641.403" y2="373.547"/>
					<path style="fill:#92E3A9;stroke:#263238;stroke-miterlimit:10;" d="M642.868,375.897c0,0,0.784-2.849-1.356-5.757
						c-1.288-1.75-8.894-7.016-10.304-4.244C629.674,368.912,636.895,376.987,642.868,375.897z"/>
					
						<line style="fill:none;stroke:#263238;stroke-width:0.5;stroke-miterlimit:10;" x1="642.868" y1="375.897" x2="635.966" y2="369.275"/>
				</g>
				<g>
					
						<line style="fill:none;stroke:#263238;stroke-width:2;stroke-miterlimit:10;" x1="650.049" y1="344.342" x2="645.245" y2="336.518"/>
					<path style="fill:#92E3A9;stroke:#263238;stroke-miterlimit:10;" d="M646.711,338.867c0,0,0.784-2.849-1.356-5.757
						c-1.288-1.75-8.894-7.016-10.304-4.244C633.517,331.882,640.737,339.957,646.711,338.867z"/>
					
						<line style="fill:none;stroke:#263238;stroke-width:0.5;stroke-miterlimit:10;" x1="646.711" y1="338.867" x2="639.808" y2="332.245"/>
				</g>
				<g>
					
						<line style="fill:none;stroke:#263238;stroke-width:2;stroke-miterlimit:10;" x1="648.475" y1="359.517" x2="643.67" y2="351.693"/>
					<path style="fill:#92E3A9;stroke:#263238;stroke-miterlimit:10;" d="M645.136,354.042c0,0,0.784-2.849-1.356-5.757
						c-1.288-1.75-8.894-7.016-10.304-4.244C631.942,347.057,639.162,355.132,645.136,354.042z"/>
					
						<line style="fill:none;stroke:#263238;stroke-width:0.5;stroke-miterlimit:10;" x1="645.136" y1="354.042" x2="638.233" y2="347.42"/>
				</g>
				<g>
					
						<line style="fill:none;stroke:#263238;stroke-width:2;stroke-miterlimit:10;" x1="652.607" y1="319.691" x2="647.803" y2="311.867"/>
					<path style="fill:#92E3A9;stroke:#263238;stroke-miterlimit:10;" d="M649.268,314.217c0,0,0.784-2.849-1.356-5.757
						c-1.288-1.75-8.894-7.016-10.304-4.244C636.075,307.231,643.295,315.306,649.268,314.217z"/>
					
						<line style="fill:none;stroke:#263238;stroke-width:0.5;stroke-miterlimit:10;" x1="649.268" y1="314.217" x2="642.366" y2="307.595"/>
				</g>
				<g>
					
						<line style="fill:none;stroke:#263238;stroke-width:2;stroke-miterlimit:10;" x1="655.177" y1="294.933" x2="650.372" y2="287.109"/>
					<path style="fill:#92E3A9;stroke:#263238;stroke-miterlimit:10;" d="M651.838,289.458c0,0,0.784-2.849-1.356-5.757
						c-1.288-1.75-8.894-7.016-10.304-4.244C638.644,282.473,645.864,290.548,651.838,289.458z"/>
					
						<line style="fill:none;stroke:#263238;stroke-width:0.5;stroke-miterlimit:10;" x1="651.838" y1="289.458" x2="644.935" y2="282.836"/>
				</g>
				<g>
					
						<line style="fill:none;stroke:#263238;stroke-width:2;stroke-miterlimit:10;" x1="647.017" y1="372.367" x2="653.326" y2="365.696"/>
					<path style="fill:#92E3A9;stroke:#263238;stroke-miterlimit:10;" d="M651.409,367.695c0,0-0.182-2.949,2.509-5.356
						c1.619-1.448,10.145-5.04,10.956-2.038C665.756,363.568,657.032,369.988,651.409,367.695z"/>
					
						<line style="fill:none;stroke:#263238;stroke-width:0.5;stroke-miterlimit:10;" x1="651.409" y1="367.695" x2="660.001" y2="362.363"/>
				</g>
				<g>
					
						<line style="fill:none;stroke:#263238;stroke-width:2;stroke-miterlimit:10;" x1="651.161" y1="332.434" x2="657.47" y2="325.763"/>
					<path style="fill:#92E3A9;stroke:#263238;stroke-miterlimit:10;" d="M655.553,327.762c0,0-0.182-2.949,2.509-5.356
						c1.62-1.448,10.145-5.04,10.956-2.038C669.9,323.634,661.175,330.055,655.553,327.762z"/>
					
						<line style="fill:none;stroke:#263238;stroke-width:0.5;stroke-miterlimit:10;" x1="655.553" y1="327.762" x2="664.145" y2="322.43"/>
				</g>
				<g>
					
						<line style="fill:none;stroke:#263238;stroke-width:2;stroke-miterlimit:10;" x1="652.982" y1="314.885" x2="659.291" y2="308.214"/>
					<path style="fill:#92E3A9;stroke:#263238;stroke-miterlimit:10;" d="M657.374,310.213c0,0-0.182-2.949,2.509-5.356
						c1.619-1.448,10.145-5.04,10.956-2.038C671.721,306.085,662.996,312.506,657.374,310.213z"/>
					
						<line style="fill:none;stroke:#263238;stroke-width:0.5;stroke-miterlimit:10;" x1="657.374" y1="310.213" x2="665.966" y2="304.881"/>
				</g>
				<g>
					
						<line style="fill:none;stroke:#263238;stroke-width:2;stroke-miterlimit:10;" x1="655.652" y1="289.158" x2="661.96" y2="282.487"/>
					<path style="fill:#92E3A9;stroke:#263238;stroke-miterlimit:10;" d="M660.043,284.486c0,0-0.182-2.949,2.509-5.356
						c1.619-1.448,10.145-5.04,10.956-2.038C674.39,280.358,665.666,286.779,660.043,284.486z"/>
					
						<line style="fill:none;stroke:#263238;stroke-width:0.5;stroke-miterlimit:10;" x1="660.043" y1="284.486" x2="668.635" y2="279.154"/>
					<path style="fill:#92E3A9;stroke:#263238;stroke-miterlimit:10;" d="M657.029,272.64c0,0-0.182-2.949,2.509-5.356
						c1.619-1.448,10.145-5.04,10.956-2.038C671.376,268.512,662.652,274.932,657.029,272.64z"/>
					
						<line style="fill:none;stroke:#263238;stroke-width:0.5;stroke-miterlimit:10;" x1="657.029" y1="272.64" x2="665.621" y2="267.308"/>
					<path style="fill:#92E3A9;stroke:#263238;stroke-miterlimit:10;" d="M657.382,273.022c0,0-2.952-0.128-5.063-3.057
						c-1.27-1.762-3.949-10.617-0.878-11.109C654.782,258.321,660.252,267.671,657.382,273.022z"/>
					
						<line style="fill:none;stroke:#263238;stroke-width:0.5;stroke-miterlimit:10;" x1="657.382" y1="273.022" x2="652.98" y2="263.918"/>
				</g>
			</g>
		</g>
		
			<line style="fill:none;stroke:#263238;stroke-width:2;stroke-miterlimit:10;" x1="641.125" y1="219.055" x2="641.125" y2="387.788"/>
		<g>
			<g>
				
					<line style="fill:none;stroke:#263238;stroke-width:2;stroke-miterlimit:10;" x1="641.259" y1="362.418" x2="635.673" y2="355.131"/>
				<path style="fill:#92E3A9;stroke:#263238;stroke-miterlimit:10;" d="M637.373,357.317c0,0,0.486-2.915-1.943-5.586
					c-1.461-1.607-9.57-6.061-10.687-3.157C623.529,351.731,631.544,359.017,637.373,357.317z"/>
				
					<line style="fill:none;stroke:#263238;stroke-width:0.5;stroke-miterlimit:10;" x1="637.373" y1="357.317" x2="629.824" y2="351.443"/>
			</g>
			<g>
				
					<line style="fill:none;stroke:#263238;stroke-width:2;stroke-miterlimit:10;" x1="641.259" y1="330.708" x2="635.673" y2="323.422"/>
				<path style="fill:#92E3A9;stroke:#263238;stroke-miterlimit:10;" d="M637.373,325.608c0,0,0.486-2.915-1.943-5.586
					c-1.461-1.607-9.57-6.06-10.687-3.158C623.529,320.021,631.544,327.308,637.373,325.608z"/>
				
					<line style="fill:none;stroke:#263238;stroke-width:0.5;stroke-miterlimit:10;" x1="637.373" y1="325.608" x2="629.824" y2="319.733"/>
			</g>
			<g>
				
					<line style="fill:none;stroke:#263238;stroke-width:2;stroke-miterlimit:10;" x1="641.259" y1="293.48" x2="635.673" y2="286.193"/>
				<path style="fill:#92E3A9;stroke:#263238;stroke-miterlimit:10;" d="M637.373,288.379c0,0,0.486-2.915-1.943-5.586
					c-1.461-1.607-9.57-6.06-10.687-3.157C623.529,282.793,631.544,290.079,637.373,288.379z"/>
				
					<line style="fill:none;stroke:#263238;stroke-width:0.5;stroke-miterlimit:10;" x1="637.373" y1="288.379" x2="629.824" y2="282.505"/>
			</g>
			<g>
				
					<line style="fill:none;stroke:#263238;stroke-width:2;stroke-miterlimit:10;" x1="641.259" y1="268.697" x2="635.673" y2="261.41"/>
				<path style="fill:#92E3A9;stroke:#263238;stroke-miterlimit:10;" d="M637.373,263.596c0,0,0.486-2.915-1.943-5.586
					c-1.461-1.607-9.57-6.061-10.687-3.158C623.529,258.01,631.544,265.296,637.373,263.596z"/>
				
					<line style="fill:none;stroke:#263238;stroke-width:0.5;stroke-miterlimit:10;" x1="637.373" y1="263.596" x2="629.824" y2="257.722"/>
			</g>
			<g>
				
					<line style="fill:none;stroke:#263238;stroke-width:2;stroke-miterlimit:10;" x1="641.259" y1="243.805" x2="635.673" y2="236.519"/>
				<path style="fill:#92E3A9;stroke:#263238;stroke-miterlimit:10;" d="M637.373,238.705c0,0,0.486-2.915-1.943-5.586
					c-1.461-1.607-9.57-6.061-10.687-3.158C623.529,233.118,631.544,240.405,637.373,238.705z"/>
				
					<line style="fill:none;stroke:#263238;stroke-width:0.5;stroke-miterlimit:10;" x1="637.373" y1="238.705" x2="629.824" y2="232.831"/>
			</g>
			<g>
				
					<line style="fill:none;stroke:#263238;stroke-width:2;stroke-miterlimit:10;" x1="641.136" y1="372.1" x2="646.722" y2="364.814"/>
				<path style="fill:#92E3A9;stroke:#263238;stroke-miterlimit:10;" d="M645.022,367c0,0-0.486-2.915,1.943-5.586
					c1.461-1.608,9.57-6.061,10.687-3.157C658.866,361.414,650.851,368.7,645.022,367z"/>
				
					<line style="fill:none;stroke:#263238;stroke-width:0.5;stroke-miterlimit:10;" x1="645.022" y1="367" x2="653.018" y2="360.81"/>
			</g>
			<g>
				
					<line style="fill:none;stroke:#263238;stroke-width:2;stroke-miterlimit:10;" x1="641.136" y1="321.668" x2="646.722" y2="314.382"/>
				<path style="fill:#92E3A9;stroke:#263238;stroke-miterlimit:10;" d="M645.022,316.568c0,0-0.486-2.915,1.943-5.586
					c1.461-1.607,9.57-6.06,10.687-3.157C658.866,310.982,650.851,318.268,645.022,316.568z"/>
				
					<line style="fill:none;stroke:#263238;stroke-width:0.5;stroke-miterlimit:10;" x1="645.022" y1="316.568" x2="653.018" y2="310.378"/>
			</g>
			<g>
				
					<line style="fill:none;stroke:#263238;stroke-width:2;stroke-miterlimit:10;" x1="641.136" y1="296.777" x2="646.722" y2="289.491"/>
				<path style="fill:#92E3A9;stroke:#263238;stroke-miterlimit:10;" d="M645.022,291.677c0,0-0.486-2.915,1.943-5.586
					c1.461-1.607,9.57-6.061,10.687-3.158C658.866,286.091,650.851,293.377,645.022,291.677z"/>
				
					<line style="fill:none;stroke:#263238;stroke-width:0.5;stroke-miterlimit:10;" x1="645.022" y1="291.677" x2="653.018" y2="285.487"/>
			</g>
			<g>
				
					<line style="fill:none;stroke:#263238;stroke-width:2;stroke-miterlimit:10;" x1="641.136" y1="263.878" x2="646.722" y2="256.591"/>
				<path style="fill:#92E3A9;stroke:#263238;stroke-miterlimit:10;" d="M645.022,258.777c0,0-0.486-2.915,1.943-5.586
					c1.461-1.607,9.57-6.061,10.687-3.158C658.866,253.191,650.851,260.477,645.022,258.777z"/>
				
					<line style="fill:none;stroke:#263238;stroke-width:0.5;stroke-miterlimit:10;" x1="645.022" y1="258.777" x2="653.018" y2="252.587"/>
			</g>
			<g>
				
					<line style="fill:none;stroke:#263238;stroke-width:2;stroke-miterlimit:10;" x1="641.136" y1="238.012" x2="646.722" y2="230.726"/>
				<path style="fill:#92E3A9;stroke:#263238;stroke-miterlimit:10;" d="M645.022,232.912c0,0-0.486-2.915,1.943-5.586
					c1.461-1.608,9.57-6.061,10.687-3.158C658.866,227.326,650.851,234.612,645.022,232.912z"/>
				
					<line style="fill:none;stroke:#263238;stroke-width:0.5;stroke-miterlimit:10;" x1="645.022" y1="232.912" x2="653.018" y2="226.721"/>
				<path style="fill:#92E3A9;stroke:#263238;stroke-miterlimit:10;" d="M640.801,221.44c0,0-0.486-2.914,1.943-5.586
					c1.461-1.607,9.57-6.061,10.687-3.157C654.646,215.854,646.63,223.14,640.801,221.44z"/>
				
					<line style="fill:none;stroke:#263238;stroke-width:0.5;stroke-miterlimit:10;" x1="640.801" y1="221.44" x2="648.797" y2="215.25"/>
				<path style="fill:#92E3A9;stroke:#263238;stroke-miterlimit:10;" d="M641.191,221.784c0,0-2.95,0.177-5.352-2.518
					c-1.445-1.622-5.023-10.153-2.019-10.959C637.088,207.43,643.493,216.165,641.191,221.784z"/>
				
					<line style="fill:none;stroke:#263238;stroke-width:0.5;stroke-miterlimit:10;" x1="641.191" y1="221.784" x2="635.874" y2="213.183"/>
			</g>
		</g>
		<polygon style="fill:#263238;stroke:#263238;stroke-miterlimit:10;" points="648.066,431.55 630.197,431.55 627.963,386.42 
			650.3,386.42 		"/>
	</g>
</g>
<g id="Graphics">
	<g>
		<g>
			<rect x="260.364" y="78.582" style="fill:none;stroke:#263238;stroke-miterlimit:10;" width="9.479" height="4.533"/>
			<rect x="271.491" y="78.582" style="fill:none;stroke:#263238;stroke-miterlimit:10;" width="9.479" height="4.533"/>
			<rect x="282.619" y="78.582" style="fill:none;stroke:#263238;stroke-miterlimit:10;" width="9.479" height="4.533"/>
			<rect x="293.746" y="78.582" style="fill:none;stroke:#263238;stroke-miterlimit:10;" width="9.479" height="4.533"/>
			<rect x="304.873" y="78.582" style="fill:none;stroke:#263238;stroke-miterlimit:10;" width="9.479" height="4.533"/>
			<rect x="316" y="78.582" style="fill:none;stroke:#263238;stroke-miterlimit:10;" width="9.479" height="4.533"/>
			<rect x="327.127" y="78.582" style="fill:none;stroke:#263238;stroke-miterlimit:10;" width="9.479" height="4.533"/>
			<rect x="338.254" y="78.582" style="fill:none;stroke:#263238;stroke-miterlimit:10;" width="9.479" height="4.533"/>
			<rect x="260.364" y="86" style="fill:none;stroke:#263238;stroke-miterlimit:10;" width="9.479" height="4.533"/>
			<rect x="271.491" y="86" style="fill:none;stroke:#263238;stroke-miterlimit:10;" width="9.479" height="4.533"/>
			<rect x="282.619" y="86" style="fill:none;stroke:#263238;stroke-miterlimit:10;" width="9.479" height="4.533"/>
			<rect x="293.746" y="86" style="fill:none;stroke:#263238;stroke-miterlimit:10;" width="9.479" height="4.533"/>
			<rect x="304.873" y="86" style="fill:none;stroke:#263238;stroke-miterlimit:10;" width="9.479" height="4.533"/>
			<rect x="316" y="86" style="fill:none;stroke:#263238;stroke-miterlimit:10;" width="9.479" height="4.533"/>
			<rect x="327.127" y="86" style="fill:none;stroke:#263238;stroke-miterlimit:10;" width="9.479" height="4.533"/>
			<rect x="338.254" y="86" style="fill:none;stroke:#263238;stroke-miterlimit:10;" width="9.479" height="4.533"/>
			<rect x="260.364" y="93.418" style="fill:none;stroke:#263238;stroke-miterlimit:10;" width="9.479" height="4.533"/>
			<rect x="271.491" y="93.418" style="fill:none;stroke:#263238;stroke-miterlimit:10;" width="9.479" height="4.533"/>
			<rect x="282.619" y="93.418" style="fill:none;stroke:#263238;stroke-miterlimit:10;" width="9.479" height="4.533"/>
			<rect x="293.746" y="93.418" style="fill:none;stroke:#263238;stroke-miterlimit:10;" width="9.479" height="4.533"/>
			<rect x="304.873" y="93.418" style="fill:none;stroke:#263238;stroke-miterlimit:10;" width="9.479" height="4.533"/>
			<rect x="316" y="93.418" style="fill:none;stroke:#263238;stroke-miterlimit:10;" width="9.479" height="4.533"/>
			<rect x="327.127" y="93.418" style="fill:none;stroke:#263238;stroke-miterlimit:10;" width="9.479" height="4.533"/>
			<rect x="338.254" y="93.418" style="fill:none;stroke:#263238;stroke-miterlimit:10;" width="9.479" height="4.533"/>
			<rect x="260.364" y="100.836" style="fill:none;stroke:#263238;stroke-miterlimit:10;" width="9.479" height="4.533"/>
			<rect x="271.491" y="100.836" style="fill:none;stroke:#263238;stroke-miterlimit:10;" width="9.479" height="4.533"/>
			<rect x="282.619" y="100.836" style="fill:none;stroke:#263238;stroke-miterlimit:10;" width="30.909" height="4.533"/>
			<rect x="316" y="100.836" style="fill:none;stroke:#263238;stroke-miterlimit:10;" width="9.479" height="4.533"/>
			<rect x="327.127" y="100.836" style="fill:none;stroke:#263238;stroke-miterlimit:10;" width="9.479" height="4.533"/>
			<rect x="338.254" y="100.836" style="fill:none;stroke:#263238;stroke-miterlimit:10;" width="9.479" height="4.533"/>
		</g>
		<g>
			<path style="fill:none;stroke:#263238;stroke-miterlimit:10;" d="M358.429,155.486c0,0,25.736-36.03,65.041-56.619"/>
			<line style="fill:none;stroke:#263238;stroke-miterlimit:10;" x1="396.331" y1="116.648" x2="398.203" y2="88.105"/>
			<line style="fill:none;stroke:#263238;stroke-miterlimit:10;" x1="386.981" y1="124.933" x2="414.195" y2="127.407"/>
			<path style="fill:none;stroke:#263238;stroke-miterlimit:10;" d="M396.877,102.048c0,0-6.494-3.402-6.185-13.916
				c0.309-10.515,7.422-17.318,7.422-17.318s5.257,7.113,5.876,16.7C404.609,97.1,396.877,102.048,396.877,102.048z"/>
			<path style="fill:none;stroke:#263238;stroke-miterlimit:10;" d="M375.23,123.077c0,0-6.494-3.402-6.185-13.916
				c0.309-10.515,7.422-17.318,7.422-17.318s5.257,7.113,5.876,16.7S375.23,123.077,375.23,123.077z"/>
			<path style="fill:none;stroke:#263238;stroke-miterlimit:10;" d="M402.444,126.17c0,0,4.02-5.257,11.752-5.257
				c7.731,0,15.463,10.515,15.463,10.515s-7.422,3.092-16.7,2.474C403.681,133.283,402.444,126.17,402.444,126.17z"/>
			<path style="fill:none;stroke:#263238;stroke-miterlimit:10;" d="M411.721,106.378c0,0-3.092-9.587,6.804-13.607
				s17.937-0.309,17.937-0.309s0,10.205-8.968,14.226C418.525,110.707,411.721,106.378,411.721,106.378z"/>
			<line style="fill:none;stroke:#263238;stroke-miterlimit:10;" x1="376.157" y1="134.829" x2="375.539" y2="111.016"/>
		</g>
		<g>
			<polygon style="fill:none;stroke:#263238;stroke-miterlimit:10;" points="591.89,91.916 544.024,91.916 544.024,122.078 
				571.14,122.078 570.252,135.847 580.892,122.078 591.89,122.078 			"/>
			<polygon style="fill:none;stroke:#263238;stroke-miterlimit:10;" points="617.54,126.668 584.677,126.668 584.677,147.376 
				603.294,147.376 602.684,156.83 609.989,147.376 617.54,147.376 			"/>
			<g>
				<path style="fill:none;stroke:#263238;stroke-miterlimit:10;" d="M560.728,106.997c0,1.448-1.174,2.623-2.623,2.623
					c-1.448,0-2.623-1.174-2.623-2.623c0-1.449,1.174-2.623,2.623-2.623C559.553,104.374,560.728,105.548,560.728,106.997z"/>
				<path style="fill:none;stroke:#263238;stroke-miterlimit:10;" d="M571.875,106.997c0,1.448-1.174,2.623-2.623,2.623
					c-1.449,0-2.623-1.174-2.623-2.623c0-1.449,1.174-2.623,2.623-2.623C570.7,104.374,571.875,105.548,571.875,106.997z"/>
				<path style="fill:none;stroke:#263238;stroke-miterlimit:10;" d="M583.021,106.997c0,1.448-1.174,2.623-2.623,2.623
					s-2.623-1.174-2.623-2.623c0-1.449,1.174-2.623,2.623-2.623S583.021,105.548,583.021,106.997z"/>
			</g>
		</g>
		<g>
			<polygon style="fill:none;stroke:#263238;stroke-miterlimit:10;" points="65.582,179.915 101.82,179.915 101.82,202.75 
				81.291,202.75 81.964,213.174 73.909,202.75 65.582,202.75 			"/>
			<polygon style="fill:none;stroke:#263238;stroke-miterlimit:10;" points="46.164,206.225 71.043,206.225 71.043,221.902 
				56.949,221.902 57.41,229.059 51.88,221.902 46.164,221.902 			"/>
			<g>
				<circle style="fill:none;stroke:#263238;stroke-miterlimit:10;" cx="91.16" cy="191.332" r="1.986"/>
				<circle style="fill:none;stroke:#263238;stroke-miterlimit:10;" cx="82.721" cy="191.332" r="1.986"/>
				<circle style="fill:none;stroke:#263238;stroke-miterlimit:10;" cx="74.282" cy="191.332" r="1.986"/>
			</g>
		</g>
		<g>
			<path style="fill:none;stroke:#263238;stroke-miterlimit:10;" d="M110.615,112.405c-0.144-0.432-0.216-0.9-0.216-1.548
				c0-5.51,4.321-6.014,4.321-12.28c0-1.801-0.721-2.485-1.981-2.485c-1.26,0-1.98,0.684-1.98,2.485v2.737h-3.745v-2.485
				c0-4.033,1.98-6.338,5.834-6.338c3.854,0,5.834,2.305,5.834,6.338c0,6.554-4.682,7.562-4.682,12.171
				c0,0.468,0.036,0.937,0.145,1.405H110.615z M114.252,114.169v3.817h-3.817v-3.817H114.252z"/>
		</g>
		<g>
			<path style="fill:none;stroke:#263238;stroke-miterlimit:10;" d="M241.038,380.702c-0.144-0.432-0.216-0.9-0.216-1.548
				c0-5.51,4.321-6.014,4.321-12.28c0-1.801-0.721-2.485-1.981-2.485c-1.26,0-1.98,0.684-1.98,2.485v2.737h-3.745v-2.485
				c0-4.033,1.98-6.338,5.833-6.338c3.854,0,5.834,2.305,5.834,6.338c0,6.554-4.682,7.562-4.682,12.171
				c0,0.468,0.036,0.936,0.145,1.405H241.038z M244.675,382.466v3.817h-3.817v-3.817H244.675z"/>
		</g>
	</g>
</g>
<g id="Letters">
	<g>
		<path style="fill:#92E3A9;stroke:#263238;stroke-miterlimit:10;" d="M199.308,270.678h58.615v41.279h-58.615v119.294h-45.406
			V142.302h120.12v41.279h-74.714V270.678z"/>
		<polyline style="fill:none;stroke:#263238;stroke-miterlimit:10;" points="269.022,153.482 269.022,178.581 194.308,178.581 
			194.308,275.678 230.312,275.678 		"/>
		<polyline style="fill:none;stroke:#263238;stroke-miterlimit:10;" points="158.902,191.67 158.902,147.302 269.022,147.302 
			269.022,151.337 		"/>
		<line style="fill:none;stroke:#263238;stroke-miterlimit:10;" x1="158.902" y1="404.49" x2="158.902" y2="197.248"/>
		<polyline style="fill:none;stroke:#263238;stroke-miterlimit:10;" points="194.308,336.697 194.308,426.251 158.902,426.251 
			158.902,410.497 		"/>
		<line style="fill:none;stroke:#263238;stroke-miterlimit:10;" x1="194.308" y1="321.679" x2="194.308" y2="330.261"/>
		<polyline style="fill:none;stroke:#263238;stroke-miterlimit:10;" points="236.319,275.678 252.923,275.678 252.923,306.956 
			194.308,306.956 194.308,317.818 		"/>
		<path style="fill:#92E3A9;stroke:#263238;stroke-miterlimit:10;" d="M437.489,431.251H391.67l-7.842-52.424h-55.726l-7.843,52.424
			h-41.691l46.232-288.948h66.458L437.489,431.251z M333.881,339.612h43.755l-21.878-146.125L333.881,339.612z"/>
		<path style="fill:none;stroke:#263238;stroke-miterlimit:10;" d="M288.891,398.382l23.883-149.272 M392.225,401.164l-4.089-27.336
			h-64.342l-7.843,52.424h-31.52l3.546-22.163 M426.526,394.378l5.1,31.873h-35.649l-3.115-20.828 M400.203,229.861l25.466,159.162
			 M313.933,241.864l15.13-94.561h57.931l11.772,73.572 M378.78,312.73l-18.008-123.206h-9.89l-22.806,155.088h55.364l-3.589-24.556
			"/>
		<path style="fill:#92E3A9;stroke:#263238;stroke-miterlimit:10;" d="M454.418,211.65c0-46.232,24.354-72.65,68.935-72.65
			c44.581,0,68.935,26.418,68.935,72.65v150.253c0,16.099-2.889,29.721-8.668,40.453c2.063,5.367,5.365,6.191,12.796,6.191h4.127
			V449h-6.191c-20.227,0-33.023-7.43-39.214-19.813c-9.081,3.302-19.813,5.366-31.785,5.366c-44.581,0-68.935-26.418-68.935-72.65
			V211.65z M499.824,364.792c0,20.639,9.081,28.482,23.528,28.482c14.448,0,23.529-7.843,23.529-28.482V208.76
			c0-20.639-9.081-28.482-23.529-28.482c-14.447,0-23.528,7.843-23.528,28.482V364.792z"/>
		<path style="fill:none;stroke:#263238;stroke-miterlimit:10;" d="M571.297,439.053c-5.164-2.831-9.071-6.87-11.686-12.103
			l-1.993-3.985l-4.188,1.522c-9.242,3.361-19.361,5.065-30.076,5.065c-20.667,0-36.663-5.859-47.545-17.416
			c-1.621-1.722-3.124-3.563-4.506-5.521 M583.953,388.21c-1.237,4.283-2.817,8.214-4.735,11.776l-1.089,2.022l0.824,2.143
			c3.202,8.332,9.623,9.327,16.59,9.394V444h-1.191c-6.574,0-12.333-0.819-17.259-2.449 M587.287,227.712v134.191
			c0,7.5-0.65,14.399-1.942,20.655 M459.85,201.461c1.492-16.924,6.842-30.365,15.957-40.045
			C486.689,149.859,502.685,144,523.352,144s36.663,5.859,47.545,17.416c10.875,11.549,16.39,28.45,16.39,50.234v9.625
			 M467.188,399.757c-5.163-10.208-7.77-22.877-7.77-37.854V211.65c0-1.393,0.022-2.765,0.068-4.118 M494.824,362.441v2.351
			c0,27.674,15.514,33.482,28.528,33.482c13.015,0,28.529-5.809,28.529-33.482V225.996 M494.824,251.74v105.123 M551.882,219.13
			v-10.37c0-27.673-15.515-33.482-28.529-33.482c-13.015,0-28.528,5.809-28.528,33.482v35.256"/>
	</g>
</g>
<g id="Character_4">
	<g>
		<path style="fill:#263238;stroke:#263238;stroke-linecap:round;stroke-linejoin:round;stroke-miterlimit:10;" d="M533.523,225.024
			c0,0,7.672,1.534,12.276,5.261c4.603,3.726,7.672,12.714,5.48,18.413c-2.192,5.699-2.783,5.333-0.152,8.621
			c2.63,3.288,0.438,8.987,0.438,8.987l-16.879-5.261c0,0,0.152-6.21,1.029-12.129c0.877-5.919,0.438-16.879-2.192-19.948V225.024z"
			/>
		<g>
			<path style="fill:#FFFFFF;stroke:#263238;stroke-linecap:round;stroke-linejoin:round;stroke-miterlimit:10;" d="
				M509.697,366.045l2.85,15.344c0,0-0.658,9.645,1.754,18.632c2.411,8.987,4.165,29.154,4.165,29.154s-3.727,3.069-7.672,5.699
				c-3.946,2.63-6.357,5.042-0.877,5.042c5.48,0,8.33-1.534,11.618-2.85c3.288-1.315,5.919-1.973,5.919-3.726
				c0-1.754-1.754-8.987-1.754-8.987s0.658-25.647,0.658-33.977c0-8.33-1.534-14.248-1.534-14.248v-8.33L509.697,366.045z"/>
			<path style="fill:#263238;stroke:#263238;stroke-linecap:round;stroke-linejoin:round;stroke-miterlimit:10;" d="
				M521.534,437.067c3.288-1.315,5.919-1.973,5.919-3.726c0-0.512-0.152-1.497-0.363-2.628c-1.554,0.769-3.322,1.685-4.459,2.409
				c-2.411,1.534-5.699,3.069-7.672,3.069c-1.32,0-3.128-0.784-4.182-1.304c-3.936,2.626-6.332,5.03-0.86,5.03
				C515.397,439.917,518.246,438.382,521.534,437.067z"/>
		</g>
		<g>
			<path style="fill:#FFFFFF;stroke:#263238;stroke-linecap:round;stroke-linejoin:round;stroke-miterlimit:10;" d="
				M522.411,370.867l0.658,10.303c0,0-1.315,12.495,0,21.044c1.315,8.549,1.315,24.77,1.315,27.401c0,2.63-1.973,5.48-5.48,8.549
				c0,0-2.85,3.288-1.534,5.261c1.315,1.973,10.741-1.754,10.96-3.946c0.219-2.192,2.411-7.014,2.411-8.549c0-1.534,0-5.48,0-7.014
				s6.138-22.14,5.48-29.592c-0.658-7.453-0.658-18.413-0.658-18.413l0.219-7.672C535.783,368.237,526.138,371.306,522.411,370.867z
				"/>
			<path style="fill:#263238;stroke:#263238;stroke-linecap:round;stroke-linejoin:round;stroke-miterlimit:10;" d="M525.48,439.259
				c-3.215,1.513-4.958-1.374-5.377-2.197c-0.378,0.364-0.776,0.73-1.199,1.101c0,0-2.85,3.288-1.534,5.261
				c1.315,1.973,10.741-1.754,10.96-3.946c0.219-2.192,2.411-7.014,2.411-8.549c0-0.004,0-0.008,0-0.012
				C529.723,433.843,527.874,438.133,525.48,439.259z"/>
		</g>
		<path style="fill:#263238;stroke:#263238;stroke-linecap:round;stroke-linejoin:round;stroke-miterlimit:10;" d="M508.382,303.133
			c0,0-8.33,18.413-8.987,28.277c-0.658,9.864,5.261,35.949,5.261,35.949s10.741,5.042,19.728,4.603
			c8.987-0.438,15.563-3.069,15.563-3.069s7.891-23.017,5.48-36.607c-2.411-13.591-8.33-27.62-8.33-27.62l-28.058-3.507
			L508.382,303.133z"/>
		<path style="fill:#FFFFFF;stroke:#263238;stroke-linecap:round;stroke-linejoin:round;stroke-miterlimit:10;" d="M521.315,256.662
			c0,0,3.727-2.192,6.576-2.192c2.85,0,4.384,0,4.384,0s1.973,7.891,1.973,8.768s-8.33,41.21-8.33,41.21l-15.783-1.534
			c0,0,0-25.428,2.192-33.1C514.52,262.142,521.315,256.662,521.315,256.662z"/>
		<g>
			<path style="fill:#FFFFFF;stroke:#263238;stroke-linecap:round;stroke-linejoin:round;stroke-miterlimit:10;" d="
				M508.973,225.243c0,0-1.534,9.206,0.438,15.564c1.973,6.357,7.453,13.152,9.645,13.371c2.192,0.219,4.603-1.315,4.603-1.315
				l-0.81,2.922l-1.754,10.303l7.891,0.658c0,0,3.288-11.618,3.288-12.275c0-0.658-0.067-2.264-0.067-2.264l-0.877-8.768
				c0,0,2.631-4.384,3.288-6.138s-0.877-4.603-0.877-4.603s1.578-9.474-3.726-14.248c-6.576-5.919-17.975-0.658-20.824,2.192
				C506.342,223.49,508.973,225.243,508.973,225.243z"/>
			<polygon style="fill:#263238;stroke:#263238;stroke-linecap:round;stroke-linejoin:round;stroke-miterlimit:10;" points="
				523.659,252.863 526.667,251.976 522.352,259.591 			"/>
			<path style="fill:#263238;stroke:#263238;stroke-linecap:round;stroke-linejoin:round;stroke-miterlimit:10;" d="
				M530.016,218.448c-7.015-5.919-17.975-0.658-20.824,2.192c-2.85,2.85-0.219,4.603-0.219,4.603s1.534-1.535,5.48,0
				c3.946,1.534,7.014,9.426,9.864,10.303c2.85,0.877,5.48,1.315,5.48,1.315s0-3.288,1.534-3.727
				c1.534-0.438,2.411-0.438,2.411-0.438S535.471,223.05,530.016,218.448z"/>
			<polyline style="fill:none;stroke:#263238;stroke-linecap:round;stroke-linejoin:round;stroke-miterlimit:10;" points="
				514.014,235.108 515.768,237.738 514.891,244.753 517.741,245.191 			"/>
			<path style="fill:none;stroke:#263238;stroke-linecap:round;stroke-linejoin:round;stroke-miterlimit:10;" d="M516.864,247.602
				c0,0,1.973,0.438,3.288-1.096"/>
			<path style="fill:none;stroke:#263238;stroke-linecap:round;stroke-linejoin:round;stroke-miterlimit:10;" d="M510.726,236.423
				l0.658,3.069c0,0,2.192,0.219,3.288-0.438"/>
			<path style="fill:none;stroke:#263238;stroke-linecap:round;stroke-linejoin:round;stroke-miterlimit:10;" d="M519.714,235.108
				l0.438,3.288c0,0,3.069,0.877,4.165,0.219"/>
			<path style="fill:none;stroke:#263238;stroke-linecap:round;stroke-linejoin:round;stroke-miterlimit:10;" d="M509.849,234.231
				c0,0,1.754-0.877,3.507-0.438"/>
			<path style="fill:none;stroke:#263238;stroke-linecap:round;stroke-linejoin:round;stroke-miterlimit:10;" d="M517.96,232.916
				c0,0,0.877-0.877,3.288-0.438"/>
		</g>
		<path style="fill:#FFFFFF;stroke:#263238;stroke-linecap:round;stroke-linejoin:round;stroke-miterlimit:10;" d="M522.85,255.785
			c0,0-9.645,4.603-11.837,5.042c-2.192,0.438-6.138,2.192-5.919,3.727c0.219,1.534-0.877,25.208-0.219,26.743
			c0.658,1.534,0,13.81-0.438,15.344c-0.438,1.534-7.453,21.482-7.453,21.482s1.534,1.754,4.823,0.438
			c3.288-1.315,7.891-15.344,8.768-20.824s6.795-29.592,8.33-35.073S522.85,255.785,522.85,255.785z"/>
		<path style="fill:#FFFFFF;stroke:#263238;stroke-linecap:round;stroke-linejoin:round;stroke-miterlimit:10;" d="M532.275,254.47
			c0,0-4.384,16.879-6.576,23.674c-2.192,6.795-4.384,10.741-3.946,16.002s-0.219,31.785,3.727,35.511
			c3.946,3.727,8.987,6.138,14.029,6.138c5.042,0,10.303-1.535,10.303-1.535s-6.138-33.538-6.138-34.415
			c0-0.877,9.645-31.785,9.426-34.415C552.881,262.8,532.275,254.47,532.275,254.47z"/>
		<path style="fill:#92E3A9;stroke:#263238;stroke-linecap:round;stroke-linejoin:round;stroke-miterlimit:10;" d="M514.301,275.294
			c0,4.768,0.508,9.279,0.892,12.013c1.549-6.361,3.044-12.262,3.711-14.644c1.534-5.48,3.946-16.879,3.946-16.879
			s-2.413,1.152-5.1,2.358C516.559,261.856,514.301,269.643,514.301,275.294z"/>
		<path style="fill:#92E3A9;stroke:#263238;stroke-linecap:round;stroke-linejoin:round;stroke-miterlimit:10;" d="M532.275,254.47
			c0,0-4.384,16.879-6.576,23.674c-1.174,3.641-2.345,6.462-3.115,9.107c1.655-1.271,5.014-4.173,8.156-8.888
			c3.598-5.397,5.865-17.577,6.564-21.775C534.409,255.333,532.275,254.47,532.275,254.47z"/>
		<path style="fill:#263238;stroke:#263238;stroke-linecap:round;stroke-linejoin:round;stroke-miterlimit:10;" d="M493.038,301.38
			l-2.192,6.357l-2.192-8.111C488.654,299.626,491.503,298.968,493.038,301.38z"/>
		<g>
			<polygon style="fill:#263238;stroke:#263238;stroke-linecap:round;stroke-linejoin:round;stroke-miterlimit:10;" points="
				477.447,276.573 489.941,298.493 506.162,299.37 495.421,276.573 			"/>
			<path style="fill:#FFFFFF;stroke:#263238;stroke-linecap:round;stroke-linejoin:round;stroke-miterlimit:10;" d="
				M488.654,299.626c0,0-6.138-8.987-7.014-11.179c-0.877-2.192-1.315-4.384-1.315-5.699c0-1.315,0.438-1.754,1.096-0.219
				c0.658,1.534,1.973,4.822,1.973,4.822l1.096-6.576c0,0,0.658-1.096,1.315,0.219c0.658,1.315,0,6.357,0,6.357l1.754-7.672
				c0,0,0.877-1.534,1.534-0.438c0.658,1.096-0.438,7.234-0.438,7.234l1.973-4.603c0,0,1.096,0,1.315,1.096
				c0.219,1.096-1.535,7.014-1.535,7.014l2.85-2.85c0,0,1.096-0.438,0.658,0.877c-0.438,1.315-2.85,4.603-2.85,4.603
				s1.315,3.288,1.315,3.946s-0.877,2.411-0.877,2.411l1.534,2.411l-0.877,1.754L488.654,299.626z"/>
		</g>
		<path style="fill:#FFFFFF;stroke:#263238;stroke-linecap:round;stroke-linejoin:round;stroke-miterlimit:10;" d="M504.436,306.641
			c0.207-0.725,0.463-3.851,0.607-7.108l-12.224,0.97l-1.973,7.234l13.048,0.551C504.179,307.448,504.375,306.857,504.436,306.641z"
			/>
		<g>
			<g>
				<path style="fill:#FFFFFF;stroke:#263238;stroke-linecap:round;stroke-linejoin:round;stroke-miterlimit:10;" d="
					M523.069,293.269c0,0-7.086-5.578-8.518-6.806c-1.93-1.655-5.292-1.086-5.292-1.086s-5.261,3.507-6.138,4.384
					s-0.877,1.754,0,1.534s4.603-2.63,4.603-2.63l0.219,3.288l4.603,1.315l1.315-1.315c0,0,1.096,0.877,2.192,1.096
					c1.096,0.219,2.192-0.219,2.192-0.219l4.165,3.727L523.069,293.269z"/>
				<path style="fill:#FFFFFF;stroke:#263238;stroke-linecap:round;stroke-linejoin:round;stroke-miterlimit:10;" d="
					M545.647,261.484c0,0,8.549,1.754,9.645,4.603c1.096,2.85,0.219,47.348-0.658,48.663C553.757,316.066,520,298.968,520,298.968
					l2.85-6.576l19.509,5.261l-1.315-21.482"/>
			</g>
			<path style="fill:none;stroke:#263238;stroke-linecap:round;stroke-linejoin:round;stroke-miterlimit:10;" d="M509.311,292.163
				c0,0,0.276-5.24,0.46-5.883"/>
			<path style="fill:none;stroke:#263238;stroke-linecap:round;stroke-linejoin:round;stroke-miterlimit:10;" d="M511.058,292.439
				c0,0,0.46-4.872,0.643-5.699"/>
			<polyline style="fill:none;stroke:#263238;stroke-linecap:round;stroke-linejoin:round;stroke-miterlimit:10;" points="
				513.862,291.954 513.816,290.692 512.712,290.508 			"/>
		</g>
	</g>
</g>
<g id="Character_3">
	<g>
		<g>
			<path style="fill:#FFFFFF;stroke:#263238;stroke-linecap:round;stroke-linejoin:round;stroke-miterlimit:10;" d="M326.282,433.19
				c0,0-1.315,4.238-0.292,6.284c1.023,2.046,3.215,2.484,6.284,2.192c3.069-0.292,14.906-2.923,16.513-3.215
				c1.608-0.292,3.507-1.023,3.507-1.023s-6.576-2.192-11.837-3.069c-5.261-0.877-13.152-2.338-13.152-2.338L326.282,433.19z"/>
			<path style="fill:#FFFFFF;stroke:#263238;stroke-linecap:round;stroke-linejoin:round;stroke-miterlimit:10;" d="
				M327.305,432.021l-1.023,1.169c0,0-1.315,4.238-0.292,6.284c0.768,1.536,2.195,2.165,4.156,2.261
				c-0.762-0.717-1.62-1.819-2.11-3.43c-0.945-3.106,0.851-5.583,1.13-5.942C328.027,432.155,327.305,432.021,327.305,432.021z"/>
		</g>
		<path style="fill:#263238;stroke:#263238;stroke-linecap:round;stroke-linejoin:round;stroke-miterlimit:10;" d="M336.95,399.433
			l-5.261,16.367l-17.098-1.315c0,0,10.376,9.791,17.975,14.321c7.599,4.53,21.336,8.768,29.958,6.722
			c8.622-2.046,29.52-21.336,29.52-21.336l-18.267,0.292l-3.8-15.491L336.95,399.433z"/>
		<g>
			<path style="fill:#263238;stroke:#263238;stroke-linecap:round;stroke-linejoin:round;stroke-miterlimit:10;" d="M352.295,319.57
				c0,0-10.741,1.973-12.056,5.261c-1.315,3.288-0.219,10.96,0.658,16.002c0.877,5.042,3.069,5.699-0.658,9.426
				c-3.727,3.727-0.219,7.672,3.288,9.645c3.507,1.973,8.33-0.658,9.426-2.85"/>
			<path style="fill:#FFFFFF;stroke:#263238;stroke-linecap:round;stroke-linejoin:round;stroke-miterlimit:10;" d="
				M324.236,381.604c0,0-5.699,15.783-5.115,17.098c0.585,1.315,15.052,16.806,15.49,16.806c0.438,0,2.777,1.461,3.507,1.461
				c0.731,0,0.877,0,1.315-0.146c0.438-0.146,2.484-0.292,2.484-0.292l1.608,1.461l5.261-0.585c0,0-3.361-4.53-4.823-5.115
				c-1.461-0.585-7.745-1.315-7.745-1.315l-8.038-14.906l4.092-9.353L324.236,381.604z"/>
			<path style="fill:#FFFFFF;stroke:#263238;stroke-linecap:round;stroke-linejoin:round;stroke-miterlimit:10;" d="
				M343.526,360.707c0,0-11.545,0.877-12.714,1.169c-1.169,0.292-1.754,0.731-2.192,1.461c-0.438,0.731-8.037,17.39-8.037,17.39
				l12.422,7.453l1.607-4.092l2.338,15.344h33.173L371,384.527l3.215,4.53l13.444-9.645c0,0-13.006-18.267-16.659-18.705
				C367.347,360.269,343.526,360.707,343.526,360.707z"/>
			<path style="fill:#FFFFFF;stroke:#263238;stroke-linecap:round;stroke-linejoin:round;stroke-miterlimit:10;" d="
				M348.203,353.254c0,0-0.731,3.653-1.169,4.969c-0.438,1.315-3.507,2.484-3.507,2.484s2.63,7.161,9.645,8.768
				c5.136,1.177,8.914-3.653,9.645-4.676c0.731-1.023,1.461-4.676,1.461-4.676s-3.215-2.777-3.361-3.361s-0.444-2.987-0.444-2.987
				S352.587,355.3,348.203,353.254z"/>
			<g>
				<path style="fill:#FFFFFF;stroke:#263238;stroke-linecap:round;stroke-linejoin:round;stroke-miterlimit:10;" d="
					M351.418,327.461l-8.549,11.618c0,0-3.507-4.823-3.507-0.219s1.973,5.699,2.631,5.919c0.658,0.219,1.534,0.439,1.534,0.439
					s1.315,5.042,4.823,8.549c3.507,3.507,7.014,4.165,10.083,2.411c3.069-1.754,5.261-7.234,5.261-7.234s2.192-7.234,1.754-10.741
					C365.008,334.695,354.925,326.146,351.418,327.461z"/>
				<path style="fill:#263238;" d="M350.595,342.608c0.107,0.703-0.197,1.332-0.679,1.406c-0.482,0.073-0.96-0.437-1.067-1.14
					s0.197-1.333,0.679-1.406C350.01,341.394,350.487,341.905,350.595,342.608z"/>
				<path style="fill:#263238;" d="M357.195,342.608c-0.107,0.703,0.197,1.332,0.679,1.406c0.482,0.073,0.96-0.437,1.067-1.14
					c0.107-0.703-0.197-1.333-0.679-1.406C357.78,341.394,357.302,341.905,357.195,342.608z"/>
				<path style="fill:none;stroke:#263238;stroke-linecap:round;stroke-linejoin:round;stroke-miterlimit:10;" d="M352.692,349.106
					c0,0,0.283,1.132,1.556,0.849s1.415-1.273,1.415-1.273"/>
				<path style="fill:none;stroke:#263238;stroke-linecap:round;stroke-linejoin:round;stroke-miterlimit:10;" d="M351.561,351.228
					c0,0,3.112,1.415,5.092-0.283"/>
				<path style="fill:none;stroke:#263238;stroke-linecap:round;stroke-linejoin:round;stroke-miterlimit:10;" d="M347.175,340.477
					c0,0,0.566-1.839,4.102-1.132"/>
				<path style="fill:none;stroke:#263238;stroke-linecap:round;stroke-linejoin:round;stroke-miterlimit:10;" d="M355.663,339.487
					c0,0,1.415-0.707,2.688,0"/>
			</g>
			<path style="fill:#263238;stroke:#263238;stroke-linecap:round;stroke-linejoin:round;stroke-miterlimit:10;" d="
				M351.199,326.584c0,0,10.96,19.509,11.618,22.359c0.658,2.85-3.507,6.357-1.315,8.987c2.192,2.63,5.48,5.919,5.48,5.919
				s-5.042,1.973-3.288,3.507c1.754,1.534,10.741-0.877,13.371-3.507c2.63-2.63-1.096-6.576-1.973-8.987
				c-0.877-2.411,2.192-7.891,1.315-15.125c-0.877-7.234-10.303-18.852-15.783-20.824c-5.48-1.973-9.864,0.438-11.618,2.63"/>
			<path style="fill:#FFFFFF;stroke:#263238;stroke-linecap:round;stroke-linejoin:round;stroke-miterlimit:10;" d="
				M349.722,355.472c0,0-1.556,2.263-0.424,2.971c1.132,0.707,2.405,1.556,2.405,1.556s-0.424,3.961,0.424,5.234
				c0.849,1.273,4.527,2.971,4.527,2.971s6.648,8.629,11.317,13.439c4.668,4.81,13.863,14.287,16.126,14.287
				c2.263,0,5.375-4.81,5.092-8.629c-0.283-3.819-11.458-8.77-13.58-10.468c-2.122-1.698-15.136-10.044-15.136-10.044
				s-0.566-6.648-0.424-8.063c0.142-1.415-0.142-3.961,0.424-4.951c0.566-0.99-1.132-0.424-1.98,0.99
				c-0.849,1.414-0.849,2.263-0.849,2.263L349.722,355.472z"/>
		</g>
		
			<rect x="330.959" y="396.218" style="fill:#B0B0B0;stroke:#263238;stroke-linecap:round;stroke-linejoin:round;stroke-miterlimit:10;" width="44.864" height="27.035"/>
		<path style="fill:#263238;stroke:#263238;stroke-linecap:round;stroke-linejoin:round;stroke-miterlimit:10;" d="M353.756,431.291
			c0,0,21.628-8.914,27.474-13.445c5.846-4.53,11.837-6.722,15.344-5.699c3.507,1.023,5.553,7.745,3.946,12.129
			c-1.608,4.384-14.175,6.43-19.582,8.33c-5.407,1.9-21.921,4.676-21.921,4.676l-7.599-4.238L353.756,431.291z"/>
		<g>
			<path style="fill:#FFFFFF;stroke:#263238;stroke-linecap:round;stroke-linejoin:round;stroke-miterlimit:10;" d="
				M355.217,431.583c0,0,5.699,1.315,10.814,2.777c5.115,1.461,5.992,1.608,5.992,1.608s12.275-2.484,14.175-2.923
				c1.9-0.438,5.845,1.169,6.284,3.946c0.438,2.777-0.585,4.53-2.046,5.261c-1.461,0.731-3.946,0.731-5.699,0.731
				s-11.545-0.877-13.006-1.023c-1.461-0.146-17.829-3.215-17.829-3.215L355.217,431.583z"/>
			<path style="fill:#FFFFFF;stroke:#263238;stroke-linecap:round;stroke-linejoin:round;stroke-miterlimit:10;" d="
				M371.633,441.947c0.033,0.004,0.073,0.01,0.097,0.012c1.461,0.146,11.253,1.023,13.006,1.023s4.238,0,5.699-0.731
				c1.461-0.731,2.484-2.484,2.046-5.261c-0.438-2.777-4.384-4.384-6.284-3.946c-1.9,0.438-14.175,2.923-14.175,2.923
				S373.233,439.717,371.633,441.947z"/>
		</g>
		<path style="fill:#263238;stroke:#263238;stroke-linecap:round;stroke-linejoin:round;stroke-miterlimit:10;" d="M353.756,431.291
			c0,0-9.499-2.923-19.144-9.06c-9.645-6.138-22.359-10.96-24.112-11.106c-1.754-0.146-6.284,4.092-5.115,9.06
			c1.169,4.969,10.96,10.522,12.86,11.252c1.9,0.731,28.058,7.745,33.319,7.745L353.756,431.291z"/>
		<path style="fill:#D9D9D9;stroke:#263238;stroke-linecap:round;stroke-linejoin:round;stroke-miterlimit:10;" d="M350.249,429.683
			c0,0-2.338,7.891-2.484,8.476c-0.146,0.585-0.438,1.315,0.731,1.754c1.169,0.438,3.653,0.731,4.53,0.731
			c0.877,0,1.461-2.046,1.754-2.777c0.292-0.731,1.315-4.969,1.315-6.284c0-1.315-2.484-1.754-3.361-2.046
			C351.856,429.245,350.249,429.683,350.249,429.683z"/>
	</g>
</g>
<g id="Character_2">
	<g>
		<path style="fill:#B0B0B0;stroke:#263238;stroke-linecap:round;stroke-linejoin:round;stroke-miterlimit:10;" d="M254.874,133.792
			c0,0,0.508,0.508,2.71,0.678c2.202,0.169,4.574,0.847,7.115,0.169c2.541-0.678,4.066-1.016,3.219,0.169
			c-0.847,1.186-6.776,4.404-7.623,4.743c-0.847,0.339-3.557,0.508-4.235,1.186c-0.678,0.678-1.186,2.541-2.88,2.71
			c-1.694,0.169-4.913-5.929-4.913-5.929l5.251-4.404L254.874,133.792z"/>
		<path style="fill:#263238;stroke:#263238;stroke-linecap:round;stroke-linejoin:round;stroke-miterlimit:10;" d="M202.191,125.831
			c0,0,14.06-12.027,22.869-17.278c8.809-5.251,10.672-6.776,11.858-6.437c1.186,0.339,19.989,30.83,19.989,30.83l-9.825,7.962
			l-12.535-24.393c0,0-17.787,17.109-22.36,20.158c-4.574,3.049-13.721-5.759-14.229-7.115
			C197.448,128.202,202.191,125.831,202.191,125.831z"/>
		<g>
			<polygon style="fill:#FFFFFF;stroke:#263238;stroke-linecap:round;stroke-linejoin:round;stroke-miterlimit:10;" points="
				227.188,144.295 251.29,144.406 245.528,139.26 224.006,138.646 			"/>
			<polygon style="fill:#FFFFFF;stroke:#263238;stroke-linecap:round;stroke-linejoin:round;stroke-miterlimit:10;" points="
				251.29,144.406 265.637,125.686 257.155,123.072 245.528,139.26 			"/>
		</g>
		<path style="fill:#B0B0B0;stroke:#263238;stroke-linecap:round;stroke-linejoin:round;stroke-miterlimit:10;" d="M212.694,99.066
			l7.792,18.803l12.197,16.601c0,0,4.404,0.169,5.251,0.339c0.847,0.169,3.219,0.339,4.235,1.525
			c1.016,1.186,1.863,4.235,1.863,4.235l-1.016,0.169l-2.033-2.202l-3.727-0.847c0,0-4.404-0.339-5.421-0.847
			c-1.016-0.508-5.929-4.235-5.929-4.235l-16.262-20.328l-2.541-7.115L212.694,99.066z"/>
		<polygon style="fill:#92E3A9;stroke:#263238;stroke-linecap:round;stroke-linejoin:round;stroke-miterlimit:10;" points="
			231.829,132.32 228.109,135.317 209.584,116.055 207.671,106.008 214.049,99.913 220.587,115.576 		"/>
		<path style="fill:#B0B0B0;stroke:#263238;stroke-linecap:round;stroke-linejoin:round;stroke-miterlimit:10;" d="M205.071,193.251
			c0,0-6.606,10.164-6.776,11.519c-0.169,1.355,0.508,2.541,1.863,3.049c1.355,0.508,4.065,1.525,5.759,2.372s5.421,2.88,8.131,2.88
			c2.71,0,3.388-0.847,2.541-1.694c-0.847-0.847-5.929-5.251-6.437-6.268c-0.508-1.016-1.863-4.743-1.863-5.251
			c0-0.508,1.525-5.251,1.525-5.251L205.071,193.251z"/>
		<path style="fill:#263238;stroke:#263238;stroke-linecap:round;stroke-linejoin:round;stroke-miterlimit:10;" d="M180.339,122.951
			c0,0-4.623,5.593-3.727,13.213c1.016,8.639,8.131,10.841,14.568,12.705c6.437,1.863,30.83,8.3,30.83,8.3
			s-6.945,7.284-9.486,13.382c-2.541,6.098-9.317,23.716-9.317,23.716l12.366,5.76l15.923-32.524c0,0,3.896-6.945,4.574-10.503
			c0.678-3.557-0.339-5.759-0.678-6.268c-0.339-0.508-21.344-14.738-25.24-17.278c-3.896-2.541-7.115-3.727-7.115-3.727
			L180.339,122.951z"/>
		<path style="fill:#92E3A9;stroke:#263238;stroke-linecap:round;stroke-linejoin:round;stroke-miterlimit:10;" d="M212.016,89.58
			c0,0-2.71-9.147-6.945-10.333c-4.235-1.186-9.147,3.049-13.044,7.623c-3.896,4.574-3.218,15.415-3.218,18.464
			c0,3.049-8.639,16.431-9.486,19.311c0,0,3.557,2.541,10.503,4.066c6.945,1.524,14.06,1.186,14.06,1.186s1.355-9.656,1.694-12.705
			c0.339-3.049,2.71-7.453,4.574-8.639s3.727-4.574,3.896-8.639C214.218,95.847,212.016,89.58,212.016,89.58z"/>
		<path style="fill:#B0B0B0;stroke:#263238;stroke-linecap:round;stroke-linejoin:round;stroke-miterlimit:10;" d="M225.907,134.301
			l4.066,1.863c0,0,8.47,0.508,9.147,0.508c0.678,0,2.202,4.913,2.202,4.913s-0.508,0.508-1.186-0.169
			c-0.678-0.678-1.355-1.525-1.355-1.525s-4.235,0.339-5.929,0.339c-1.694,0-4.743-2.033-4.743-2.033l-4.066-1.694L225.907,134.301z
			"/>
		<path style="fill:#92E3A9;stroke:#263238;stroke-linecap:round;stroke-linejoin:round;stroke-miterlimit:10;" d="M195.585,90.935
			c0,0,5.251,18.126,7.115,22.699c1.863,4.574,6.607,10.164,8.301,12.366c1.694,2.202,14.399,12.027,14.399,12.027l2.71-2.71
			l-13.502-20.219c0,0-6.826-27.043-6.656-27.89c0.169-0.847-2.033-3.219-3.557-3.557"/>
		<g>
			<path style="fill:#B0B0B0;stroke:#263238;stroke-linecap:round;stroke-linejoin:round;stroke-miterlimit:10;" d="M236.071,61.29
				c0,0,0.508,6.098-0.339,8.131c-0.847,2.033-4.743,3.218-4.743,4.912c0,1.694,0.169,3.388-0.678,4.065
				c-0.847,0.678-2.372,0-2.372,0s-0.339,1.355-1.694,2.372c-1.355,1.016-1.117,0.987-1.117,0.987s-1.932,1.893-4.134,1.893
				c-2.202,0-3.896-3.049-4.404-3.388c-0.508-0.339-1.891,0.619-3.219,1.525c-1.754,1.196-3.049,7.623-3.049,7.623
				s-4.913-9.317-5.421-9.486c-0.508-0.169-3.613-0.384-3.613-0.384s4.968-2.496,5.645-4.529c0.678-2.033,0-5.251,0-5.929
				c0-0.678,0.339-7.623,3.219-11.18c2.88-3.557,15.076-4.574,19.65-4.913C234.377,52.651,236.071,61.29,236.071,61.29z"/>
			<path style="fill:#263238;stroke:#263238;stroke-linecap:round;stroke-linejoin:round;stroke-miterlimit:10;" d="M236.071,61.29
				c0,0-1.694-1.016-2.033,1.863c-0.339,2.88,0.169,3.049-1.863,3.218c-2.033,0.169-2.88,0.678-2.88,1.863
				c0,1.186-1.525,1.694-2.71,1.694c-1.186,0-2.202-1.694-2.88,0c-0.678,1.694-3.049,2.541-4.574,2.541
				c-1.525,0-1.694,1.016-4.404,1.525c-2.71,0.508-3.219-2.372-3.219-2.372s-3.388,0.678-4.404,0.678
				c-1.016,0-0.847-4.235-0.847-4.235s-2.88,0.508-3.896,0.339c-1.016-0.169-1.863-2.541-1.863-3.388s-1.863-2.202-1.863-3.388
				c0-1.186,0-2.033,0-2.033s-0.508-2.88-0.169-3.557c0.339-0.678,2.541-2.033,2.541-2.88c0-0.847-0.678-4.743,0.508-6.268
				c1.186-1.524,2.372-3.049,3.557-3.049c1.186,0,1.525-2.202,3.388-2.541c1.863-0.339,2.541-0.339,3.896-0.339
				c1.355,0,2.202-1.694,3.727-2.033c1.525-0.339,5.251,0.339,5.929,0.678c0.678,0.339,1.186,0.339,2.541-0.169
				c1.355-0.508,4.065,0.169,5.082,1.186c1.016,1.016,2.88,1.694,3.727,1.694s1.694-0.508,2.88,1.694
				c1.186,2.202,3.218,2.541,4.404,3.557c1.186,1.016,1.355,2.372,1.186,3.557c-0.169,1.186,0.678,2.202,1.355,3.557
				c0.678,1.355,0.508,2.71-0.169,3.557c-0.678,0.847-0.169,2.541,0,3.219c0.169,0.678-1.694,2.033-3.219,2.541
				C238.273,64.509,236.748,65.356,236.071,61.29z"/>
			<path style="fill:#263238;" d="M230.516,73.098c-0.361,0.662-0.892,1.069-1.186,0.908c-0.294-0.16-0.24-0.827,0.121-1.489
				c0.361-0.662,0.892-1.069,1.186-0.908C230.931,71.77,230.877,72.436,230.516,73.098z"/>
			<path style="fill:none;stroke:#263238;stroke-linecap:round;stroke-linejoin:round;stroke-miterlimit:10;" d="M229.679,69.471
				c0,0,1.82-0.91,2.882,1.82"/>
		</g>
	</g>
</g>
<g id="Character_1">
	<g>
		<g>
			<g>
				<path style="fill:#CFCFCF;stroke:#263238;stroke-linecap:round;stroke-linejoin:round;stroke-miterlimit:10;" d="
					M97.952,266.195c0,0,3.054,4.803,3.931,6.264c0.877,1.461,0.731,4.676,0.731,4.676l3.507,3.507l-4.092,3.215
					c0,0-4.384-2.923-5.261-3.361c-0.877-0.438-2.338-0.731-2.777-0.731c-0.438,0-4.53-5.115-4.53-5.115l-2.484-1.607l1.461-4.092
					l6.43,1.9L97.952,266.195z"/>
				<polygon style="fill:#263238;stroke:#263238;stroke-linecap:round;stroke-linejoin:round;stroke-miterlimit:10;" points="
					83.031,266.833 97.499,280.643 102.76,276.04 89.827,263.765 				"/>
				<path style="fill:#CFCFCF;stroke:#263238;stroke-linecap:round;stroke-linejoin:round;stroke-miterlimit:10;" d="
					M95.894,265.633c-0.508,0.011-0.945,0.374-1.038,0.874c-0.299,1.599-0.791,4.892,0.174,5.168
					c1.279,0.365,1.827-0.365,2.009-1.279c0.183-0.913,1.279-3.471,0.913-4.201C97.663,265.617,96.917,265.611,95.894,265.633z"/>
				<path style="fill:#CFCFCF;stroke:#263238;stroke-linecap:round;stroke-linejoin:round;stroke-miterlimit:10;" d="M86.1,268.806
					c0,0-1.973,3.727-0.438,4.823c1.534,1.096,1.534-1.096,1.973-2.411C88.073,269.902,88.073,268.149,86.1,268.806z"/>
				<path style="fill:#CFCFCF;stroke:#263238;stroke-linecap:round;stroke-linejoin:round;stroke-miterlimit:10;" d="
					M89.827,272.533c0,0-1.754,3.507-1.096,4.603c0.658,1.096,1.534,0,1.973-1.096c0.438-1.096,0.639-1.315,0.658-2.192
					C91.401,271.93,89.827,272.533,89.827,272.533z"/>
				<path style="fill:#CFCFCF;stroke:#263238;stroke-linecap:round;stroke-linejoin:round;stroke-miterlimit:10;" d="M91.65,274.096
					c0,0-1.754,3.507-1.096,4.603c0.658,1.096,1.534,0,1.973-1.096c0.438-1.096,0.639-1.315,0.658-2.192
					C93.225,273.493,91.65,274.096,91.65,274.096z"/>
				<path style="fill:#CFCFCF;stroke:#263238;stroke-linecap:round;stroke-linejoin:round;stroke-miterlimit:10;" d="
					M93.735,275.833c0,0-1.754,3.507-1.096,4.603c0.658,1.096,1.534,0,1.973-1.096c0.438-1.096,0.639-1.315,0.658-2.192
					C95.309,275.23,93.735,275.833,93.735,275.833z"/>
			</g>
			<polygon style="fill:#92E3A9;stroke:#263238;stroke-linecap:round;stroke-linejoin:round;stroke-miterlimit:10;" points="
				105.829,278.597 99.545,285.027 116.204,298.618 117.812,287.366 			"/>
		</g>
		<path style="fill:#263238;stroke:#263238;stroke-linecap:round;stroke-linejoin:round;stroke-miterlimit:10;" d="M113.937,306.409
			c0,0-3.155,11.635-2.958,13.41c0.197,1.775,0.197,3.155,0.197,3.155s-8.874,10.846-13.41,20.509
			c-4.536,9.663-4.93,15.185-3.55,16.171c1.38,0.986,20.115,9.269,22.087,9.663c1.972,0.395,1.972,0.395,1.972,0.395l15.974,5.522
			l1.578,1.775l3.155-0.986c1.38-0.789,2.169-6.113,2.564-8.283c0.394-2.169,1.38-3.155,0.394-3.352c-0.986-0.197-2.761,0-2.761,0
			s0.592-1.183-0.394-1.183c-0.986,0-2.761,0-2.761,0s-13.016-5.325-15.185-6.508c-2.169-1.183-7.691-4.141-7.691-4.141
			l12.818-9.269c0,0,15.579-9.072,17.748-12.818c2.169-3.747,3.353-10.846,3.353-13.804s-21.495-13.016-25.242-13.016
			S114.135,304.437,113.937,306.409z"/>
		<g>
			<path style="fill:#FFFFFF;stroke:#263238;stroke-linecap:round;stroke-linejoin:round;stroke-miterlimit:10;" d="
				M141.941,364.388c0,0,11.044,0.394,12.621,1.183c1.578,0.789,1.578,3.55,1.578,5.522s-1.578,6.508-1.183,8.677
				c0.394,2.169,0.475,4.749,0.789,7.888c0.592,5.916-1.13,6.529-2.169,6.311c-3.747-0.789-4.141-5.325-5.916-9.663
				c-1.775-4.339-2.761-6.705-2.761-6.705l-5.916-1.578C138.982,376.023,140.166,367.346,141.941,364.388z"/>
			<path style="fill:#FFFFFF;stroke:#263238;stroke-linecap:round;stroke-linejoin:round;stroke-miterlimit:10;" d="
				M154.562,365.571c-0.411-0.206-1.47-0.384-2.805-0.536c0.521,1.974,1.227,5.356,1.227,9.214c0,6.113,1.183,13.213,0.592,17.749
				c-0.095,0.73-0.196,1.347-0.297,1.887c0.099,0.028,0.192,0.063,0.297,0.085c1.039,0.219,2.761-0.394,2.169-6.31
				c-0.314-3.14-0.394-5.719-0.789-7.888c-0.395-2.169,1.183-6.705,1.183-8.677C156.139,369.12,156.139,366.359,154.562,365.571z"/>
		</g>
		<path style="fill:#263238;stroke:#263238;stroke-linecap:round;stroke-linejoin:round;stroke-miterlimit:10;" d="M116.35,322.95
			c0,0,2.411,14.906,1.535,23.674c-0.877,8.768-0.219,28.277,0.658,33.757c0.877,5.48,0.219,21.92,0.219,24.77
			c0,2.85-0.219,4.165-0.219,4.165s-2.411-0.219-2.192,1.096c0.219,1.315,0.219,2.63,0.219,2.63s1.973,1.754,5.261,2.411
			c3.288,0.658,6.795,1.315,7.453,0.438c0.658-0.877,0.438-3.727,0.438-3.727s1.096-0.877,1.096-2.63c0-1.754,0-2.63,0-2.63
			s3.069-12.714,2.85-20.386c-0.219-7.672-1.754-12.056-1.315-14.029c0.438-1.973,10.303-32.004,10.303-32.004
			s3.069-6.576,3.727-10.741c0.658-4.165-1.096-8.549-2.411-10.303c-1.315-1.754-21.482-7.234-21.482-7.234"/>
		<path style="fill:#FFFFFF;stroke:#263238;stroke-linecap:round;stroke-linejoin:round;stroke-miterlimit:10;" d="M121.909,254.716
			c0,0-5.369,11.226-5.369,18.222c0,6.996-2.115,18.873-2.115,22.127c0,3.254-2.929,8.135-1.627,10.901
			c1.302,2.766,8.786,2.766,9.436,2.766c0.651,0,4.881,0.163,5.694-0.163c0.813-0.325,2.278-27.17,2.278-33.353
			c0-6.183,0.325-21.964,0.163-23.916S123.861,251.137,121.909,254.716z"/>
		<path style="fill:#92E3A9;stroke:#263238;stroke-linecap:round;stroke-linejoin:round;stroke-miterlimit:10;" d="M130.818,243.598
			c0,0-6.357,9.645-7.891,24.332c-1.535,14.687-5.699,40.772-2.631,43.622c3.069,2.85,10.741,4.823,14.248,6.576
			c3.507,1.754,9.207,4.603,11.179,5.699c1.973,1.096,5.261-0.219,5.261-0.219s2.63-23.236,1.754-33.538
			c-0.877-10.303-2.192-27.62-6.357-35.949C142.216,245.79,131.914,242.502,130.818,243.598z"/>
		<g>
			<polygon style="fill:#CFCFCF;stroke:#263238;stroke-linecap:round;stroke-linejoin:round;stroke-miterlimit:10;" points="
				131.256,318.127 128.626,320.977 133.01,326.895 135.64,321.854 			"/>
			<path style="fill:#92E3A9;stroke:#263238;stroke-linecap:round;stroke-linejoin:round;stroke-miterlimit:10;" d="
				M131.256,258.504c0,0-3.726,9.645-1.754,17.536c1.973,7.891,7.234,24.332,7.234,24.332l-6.576,17.756l6.576,5.919
				c0,0,13.81-22.797,13.81-25.866c0-3.069-3.069-34.415-4.384-38.58c-1.315-4.165-3.507-8.111-6.795-8.111"/>
		</g>
		<g>
			<path style="fill:#FFFFFF;stroke:#263238;stroke-linecap:round;stroke-linejoin:round;stroke-miterlimit:10;" d="M117.446,413.7
				c0,0-1.535,0.658-1.535,1.754c0,1.096-1.315,7.015-1.315,7.015s-10.741,3.726-12.714,4.165c-1.973,0.438-2.63,3.946-1.973,5.042
				c0.658,1.096,7.891,1.973,14.248,2.192c6.357,0.219,13.81,0.219,14.467-0.877c0.658-1.096,0.438-11.837,0.438-11.837l0.219-5.261
				C129.283,415.892,123.365,415.454,117.446,413.7z"/>
			<path style="fill:#FFFFFF;stroke:#263238;stroke-linecap:round;stroke-linejoin:round;stroke-miterlimit:10;" d="M99.711,431.064
				c0.04,0.241,0.104,0.453,0.199,0.611c0.658,1.096,7.891,1.973,14.248,2.192c6.357,0.219,13.81,0.219,14.467-0.877
				c0.108-0.179,0.191-0.62,0.257-1.226C119.467,433.366,105.9,431.898,99.711,431.064z"/>
		</g>
		<g>
			<path style="fill:#CFCFCF;stroke:#263238;stroke-linecap:round;stroke-linejoin:round;stroke-miterlimit:10;" d="M99.472,216.636
				c0,0-4.603,4.165-4.165,10.083s1.315,8.111,1.973,8.768c0.658,0.658,2.63,1.754,2.63,1.754s-0.438,6.357,0.877,6.795
				c1.315,0.438,3.726,0.219,3.726,0.219s3.507,6.357,5.48,6.576c1.973,0.219,5.918-3.727,5.918-3.727l6.576,5.919l7.453-11.399
				l-4.165-4.603c0,0,1.973-12.275-0.877-18.852C122.05,211.594,104.952,208.306,99.472,216.636z"/>
			<polygon style="fill:#263238;stroke:#263238;stroke-linecap:round;stroke-linejoin:round;stroke-miterlimit:10;" points="
				115.912,247.105 118.968,244.012 118.491,248.547 			"/>
			<path style="fill:#263238;stroke:#263238;stroke-linecap:round;stroke-linejoin:round;stroke-miterlimit:10;" d="
				M118.981,236.145c0,0,3.909,0.293,6.898,0.161c0.366-2.706,1.46-12.506-0.98-18.136c-2.85-6.576-19.948-9.864-25.428-1.535
				c0,0-2.415,2.198-3.578,5.66c0.306,0.517,0.751,0.803,1.386,0.258c1.534-1.315,6.138-1.754,6.576,0.658
				c0.438,2.411,0,4.603,2.63,3.946c2.63-0.658,4.165,0.219,4.165,0.219s1.754,3.069,2.85,2.411
				c1.096-0.658,0.219-1.973,1.534-3.507c1.315-1.534,6.357,0.877,6.576,4.165S118.981,236.145,118.981,236.145z"/>
			<path style="fill:#263238;" d="M103.949,235.361c0.48,0.579,0.598,1.271,0.265,1.548c-0.333,0.276-0.992,0.031-1.472-0.547
				c-0.48-0.578-0.598-1.271-0.265-1.548S103.469,234.782,103.949,235.361z"/>
			<path style="fill:none;stroke:#263238;stroke-linecap:round;stroke-linejoin:round;stroke-miterlimit:10;" d="M100.694,234.578
				c0,0-0.53-2.032,2.032-2.032"/>
		</g>
		<polygon style="fill:#FFFFFF;stroke:#263238;stroke-linecap:round;stroke-linejoin:round;stroke-miterlimit:10;" points="
			129.393,239.585 119.957,253.903 124.187,259.434 133.623,242.677 		"/>
	</g>
</g>
</svg>
