<?xml version="1.0" encoding="utf-8"?>
<!-- Generator: Adobe Illustrator 27.1.1, SVG Export Plug-In . SVG Version: 6.00 Build 0)  -->
<svg version="1.1" id="Layer_1" xmlns="http://www.w3.org/2000/svg" xmlns:xlink="http://www.w3.org/1999/xlink" x="0px" y="0px"
	 viewBox="0 0 1880.2 1185" style="enable-background:new 0 0 1880.2 1185;" xml:space="preserve">
<style type="text/css">
	.st0{opacity:0.4;}
	.st1{fill:none;stroke:#D3D7DF;}
	.st2{fill:none;stroke:#D4D8E0;stroke-miterlimit:4.1622;}
	.st3{fill:none;stroke:#D5D9E1;stroke-miterlimit:4.3243;}
	.st4{fill:none;stroke:#D7DAE2;stroke-miterlimit:4.4865;}
	.st5{fill:none;stroke:#D8DBE2;stroke-miterlimit:4.6486;}
	.st6{fill:none;stroke:#D9DCE3;stroke-miterlimit:4.8108;}
	.st7{fill:none;stroke:#DADDE4;stroke-miterlimit:4.973;}
	.st8{fill:none;stroke:#DBDFE5;stroke-miterlimit:5.1351;}
	.st9{fill:none;stroke:#DDE0E6;stroke-miterlimit:5.2973;}
	.st10{fill:none;stroke:#DEE1E7;stroke-miterlimit:5.4595;}
	.st11{fill:none;stroke:#DFE2E8;stroke-miterlimit:5.6216;}
	.st12{fill:none;stroke:#E0E3E9;stroke-miterlimit:5.7838;}
	.st13{fill:none;stroke:#E1E4E9;stroke-miterlimit:5.9459;}
	.st14{fill:none;stroke:#E2E5EA;stroke-miterlimit:6.1081;}
	.st15{fill:none;stroke:#E4E6EB;stroke-miterlimit:6.2703;}
	.st16{fill:none;stroke:#E5E7EC;stroke-miterlimit:6.4324;}
	.st17{fill:none;stroke:#E6E8ED;stroke-miterlimit:6.5946;}
	.st18{fill:none;stroke:#E7E9EE;stroke-miterlimit:6.7568;}
	.st19{fill:none;stroke:#E8EAEF;stroke-miterlimit:6.9189;}
	.st20{fill:none;stroke:#EAECEF;stroke-miterlimit:7.0811;}
	.st21{fill:none;stroke:#EBEDF0;stroke-miterlimit:7.2432;}
	.st22{fill:none;stroke:#ECEEF1;stroke-miterlimit:7.4054;}
	.st23{fill:none;stroke:#EDEFF2;stroke-miterlimit:7.5676;}
	.st24{fill:none;stroke:#EEF0F3;stroke-miterlimit:7.7297;}
	.st25{fill:none;stroke:#F0F1F4;stroke-miterlimit:7.8919;}
	.st26{fill:none;stroke:#F1F2F5;stroke-miterlimit:8.0541;}
	.st27{fill:none;stroke:#F2F3F5;stroke-miterlimit:8.2162;}
	.st28{fill:none;stroke:#F3F4F6;stroke-miterlimit:8.3784;}
	.st29{fill:none;stroke:#F4F5F7;stroke-miterlimit:8.5405;}
	.st30{fill:none;stroke:#F5F6F8;stroke-miterlimit:8.7027;}
	.st31{fill:none;stroke:#F7F7F9;stroke-miterlimit:8.8649;}
	.st32{fill:none;stroke:#F8F9FA;stroke-miterlimit:9.027;}
	.st33{fill:none;stroke:#F9FAFB;stroke-miterlimit:9.1892;}
	.st34{fill:none;stroke:#FAFBFC;stroke-miterlimit:9.3514;}
	.st35{fill:none;stroke:#FBFCFC;stroke-miterlimit:9.5135;}
	.st36{fill:none;stroke:#FDFDFD;stroke-miterlimit:9.6757;}
	.st37{fill:none;stroke:#FEFEFE;stroke-miterlimit:9.8378;}
	.st38{fill:none;stroke:#FFFFFF;stroke-miterlimit:10;}
</style>
<g class="st0">
	<g>
		<g>
			<path class="st1" d="M-292.9,22.5c57.8,0,93.4-21.5,154.1-21.5c60.7,0,93.4,21.5,154.1,21.5S108.6,1,169.3,1
				s92.4,21.5,154.1,21.5"/>
			<path class="st1" d="M323.4,22.5C381.1,22.5,416.7,1,477.4,1s93.4,21.5,154.1,21.5S724.9,1,785.5,1c60.7,0,92.4,21.5,154.1,21.5"
				/>
			<path class="st1" d="M939.6,22.5C997.4,22.5,1033,1,1093.7,1c60.7,0,93.4,21.5,154.1,21.5c60.7,0,93.4-21.5,154.1-21.5
				c60.7,0,92.4,21.5,154.1,21.5"/>
			<path class="st1" d="M1555.9,22.5c57.8,0,93.4-21.5,154.1-21.5c60.7,0,93.4,21.5,154.1,21.5c60.7,0,93.4-21.5,154.1-21.5
				c60.7,0,92.4,21.5,154.1,21.5"/>
		</g>
		<g>
			<path class="st2" d="M-292.9,53.3c57.8,0,93.4-21.5,154.1-21.5c60.7,0,93.4,21.5,154.1,21.5s93.4-21.5,154.1-21.5
				s92.4,21.5,154.1,21.5"/>
			<path class="st2" d="M323.4,53.3c57.8,0,93.4-21.5,154.1-21.5s93.4,21.5,154.1,21.5s93.4-21.5,154.1-21.5
				c60.7,0,92.4,21.5,154.1,21.5"/>
			<path class="st2" d="M939.6,53.3c57.8,0,93.4-21.5,154.1-21.5c60.7,0,93.4,21.5,154.1,21.5c60.7,0,93.4-21.5,154.1-21.5
				c60.7,0,92.4,21.5,154.1,21.5"/>
			<path class="st2" d="M1555.9,53.3c57.8,0,93.4-21.5,154.1-21.5c60.7,0,93.4,21.5,154.1,21.5c60.7,0,93.4-21.5,154.1-21.5
				c60.7,0,92.4,21.5,154.1,21.5"/>
		</g>
		<g>
			<path class="st3" d="M-292.9,84.1c57.8,0,93.4-21.5,154.1-21.5c60.7,0,93.4,21.5,154.1,21.5s93.4-21.5,154.1-21.5
				s92.4,21.5,154.1,21.5"/>
			<path class="st3" d="M323.4,84.1c57.8,0,93.4-21.5,154.1-21.5s93.4,21.5,154.1,21.5s93.4-21.5,154.1-21.5
				c60.7,0,92.4,21.5,154.1,21.5"/>
			<path class="st3" d="M939.6,84.1c57.8,0,93.4-21.5,154.1-21.5c60.7,0,93.4,21.5,154.1,21.5c60.7,0,93.4-21.5,154.1-21.5
				c60.7,0,92.4,21.5,154.1,21.5"/>
			<path class="st3" d="M1555.9,84.1c57.8,0,93.4-21.5,154.1-21.5c60.7,0,93.4,21.5,154.1,21.5c60.7,0,93.4-21.5,154.1-21.5
				c60.7,0,92.4,21.5,154.1,21.5"/>
		</g>
		<g>
			<path class="st4" d="M-292.9,114.9c57.8,0,93.4-21.5,154.1-21.5c60.7,0,93.4,21.5,154.1,21.5s93.4-21.5,154.1-21.5
				s92.4,21.5,154.1,21.5"/>
			<path class="st4" d="M323.4,114.9c57.8,0,93.4-21.5,154.1-21.5s93.4,21.5,154.1,21.5s93.4-21.5,154.1-21.5
				c60.7,0,92.4,21.5,154.1,21.5"/>
			<path class="st4" d="M939.6,114.9c57.8,0,93.4-21.5,154.1-21.5c60.7,0,93.4,21.5,154.1,21.5c60.7,0,93.4-21.5,154.1-21.5
				c60.7,0,92.4,21.5,154.1,21.5"/>
			<path class="st4" d="M1555.9,114.9c57.8,0,93.4-21.5,154.1-21.5c60.7,0,93.4,21.5,154.1,21.5c60.7,0,93.4-21.5,154.1-21.5
				c60.7,0,92.4,21.5,154.1,21.5"/>
		</g>
		<g>
			<path class="st5" d="M-292.9,145.7c57.8,0,93.4-21.5,154.1-21.5c60.7,0,93.4,21.5,154.1,21.5s93.4-21.5,154.1-21.5
				s92.4,21.5,154.1,21.5"/>
			<path class="st5" d="M323.4,145.7c57.8,0,93.4-21.5,154.1-21.5s93.4,21.5,154.1,21.5s93.4-21.5,154.1-21.5
				c60.7,0,92.4,21.5,154.1,21.5"/>
			<path class="st5" d="M939.6,145.7c57.8,0,93.4-21.5,154.1-21.5c60.7,0,93.4,21.5,154.1,21.5c60.7,0,93.4-21.5,154.1-21.5
				c60.7,0,92.4,21.5,154.1,21.5"/>
			<path class="st5" d="M1555.9,145.7c57.8,0,93.4-21.5,154.1-21.5c60.7,0,93.4,21.5,154.1,21.5c60.7,0,93.4-21.5,154.1-21.5
				c60.7,0,92.4,21.5,154.1,21.5"/>
		</g>
		<g>
			<path class="st6" d="M-292.9,176.5c57.8,0,93.4-21.5,154.1-21.5c60.7,0,93.4,21.5,154.1,21.5S108.6,155,169.3,155
				s92.4,21.5,154.1,21.5"/>
			<path class="st6" d="M323.4,176.5c57.8,0,93.4-21.5,154.1-21.5s93.4,21.5,154.1,21.5S724.9,155,785.5,155
				c60.7,0,92.4,21.5,154.1,21.5"/>
			<path class="st6" d="M939.6,176.5c57.8,0,93.4-21.5,154.1-21.5c60.7,0,93.4,21.5,154.1,21.5c60.7,0,93.4-21.5,154.1-21.5
				c60.7,0,92.4,21.5,154.1,21.5"/>
			<path class="st6" d="M1555.9,176.5c57.8,0,93.4-21.5,154.1-21.5c60.7,0,93.4,21.5,154.1,21.5c60.7,0,93.4-21.5,154.1-21.5
				c60.7,0,92.4,21.5,154.1,21.5"/>
		</g>
		<g>
			<path class="st7" d="M-292.9,207.3c57.8,0,93.4-21.5,154.1-21.5c60.7,0,93.4,21.5,154.1,21.5s93.4-21.5,154.1-21.5
				s92.4,21.5,154.1,21.5"/>
			<path class="st7" d="M323.4,207.3c57.8,0,93.4-21.5,154.1-21.5s93.4,21.5,154.1,21.5s93.4-21.5,154.1-21.5
				c60.7,0,92.4,21.5,154.1,21.5"/>
			<path class="st7" d="M939.6,207.3c57.8,0,93.4-21.5,154.1-21.5c60.7,0,93.4,21.5,154.1,21.5c60.7,0,93.4-21.5,154.1-21.5
				c60.7,0,92.4,21.5,154.1,21.5"/>
			<path class="st7" d="M1555.9,207.3c57.8,0,93.4-21.5,154.1-21.5c60.7,0,93.4,21.5,154.1,21.5c60.7,0,93.4-21.5,154.1-21.5
				c60.7,0,92.4,21.5,154.1,21.5"/>
		</g>
		<g>
			<path class="st8" d="M-292.9,238.1c57.8,0,93.4-21.5,154.1-21.5c60.7,0,93.4,21.5,154.1,21.5s93.4-21.5,154.1-21.5
				s92.4,21.5,154.1,21.5"/>
			<path class="st8" d="M323.4,238.1c57.8,0,93.4-21.5,154.1-21.5s93.4,21.5,154.1,21.5s93.4-21.5,154.1-21.5
				c60.7,0,92.4,21.5,154.1,21.5"/>
			<path class="st8" d="M939.6,238.1c57.8,0,93.4-21.5,154.1-21.5c60.7,0,93.4,21.5,154.1,21.5c60.7,0,93.4-21.5,154.1-21.5
				c60.7,0,92.4,21.5,154.1,21.5"/>
			<path class="st8" d="M1555.9,238.1c57.8,0,93.4-21.5,154.1-21.5c60.7,0,93.4,21.5,154.1,21.5c60.7,0,93.4-21.5,154.1-21.5
				c60.7,0,92.4,21.5,154.1,21.5"/>
		</g>
		<g>
			<path class="st9" d="M-292.9,268.9c57.8,0,93.4-21.5,154.1-21.5c60.7,0,93.4,21.5,154.1,21.5s93.4-21.5,154.1-21.5
				s92.4,21.5,154.1,21.5"/>
			<path class="st9" d="M323.4,268.9c57.8,0,93.4-21.5,154.1-21.5s93.4,21.5,154.1,21.5s93.4-21.5,154.1-21.5
				c60.7,0,92.4,21.5,154.1,21.5"/>
			<path class="st9" d="M939.6,268.9c57.8,0,93.4-21.5,154.1-21.5c60.7,0,93.4,21.5,154.1,21.5c60.7,0,93.4-21.5,154.1-21.5
				c60.7,0,92.4,21.5,154.1,21.5"/>
			<path class="st9" d="M1555.9,268.9c57.8,0,93.4-21.5,154.1-21.5c60.7,0,93.4,21.5,154.1,21.5c60.7,0,93.4-21.5,154.1-21.5
				c60.7,0,92.4,21.5,154.1,21.5"/>
		</g>
		<g>
			<path class="st10" d="M-292.9,299.7c57.8,0,93.4-21.5,154.1-21.5c60.7,0,93.4,21.5,154.1,21.5s93.4-21.5,154.1-21.5
				s92.4,21.5,154.1,21.5"/>
			<path class="st10" d="M323.4,299.7c57.8,0,93.4-21.5,154.1-21.5s93.4,21.5,154.1,21.5s93.4-21.5,154.1-21.5
				c60.7,0,92.4,21.5,154.1,21.5"/>
			<path class="st10" d="M939.6,299.7c57.8,0,93.4-21.5,154.1-21.5c60.7,0,93.4,21.5,154.1,21.5c60.7,0,93.4-21.5,154.1-21.5
				c60.7,0,92.4,21.5,154.1,21.5"/>
			<path class="st10" d="M1555.9,299.7c57.8,0,93.4-21.5,154.1-21.5c60.7,0,93.4,21.5,154.1,21.5c60.7,0,93.4-21.5,154.1-21.5
				c60.7,0,92.4,21.5,154.1,21.5"/>
		</g>
		<g>
			<path class="st11" d="M-292.9,330.4c57.8,0,93.4-21.5,154.1-21.5c60.7,0,93.4,21.5,154.1,21.5s93.4-21.5,154.1-21.5
				s92.4,21.5,154.1,21.5"/>
			<path class="st11" d="M323.4,330.4c57.8,0,93.4-21.5,154.1-21.5s93.4,21.5,154.1,21.5s93.4-21.5,154.1-21.5
				c60.7,0,92.4,21.5,154.1,21.5"/>
			<path class="st11" d="M939.6,330.4c57.8,0,93.4-21.5,154.1-21.5c60.7,0,93.4,21.5,154.1,21.5c60.7,0,93.4-21.5,154.1-21.5
				c60.7,0,92.4,21.5,154.1,21.5"/>
			<path class="st11" d="M1555.9,330.4c57.8,0,93.4-21.5,154.1-21.5c60.7,0,93.4,21.5,154.1,21.5c60.7,0,93.4-21.5,154.1-21.5
				c60.7,0,92.4,21.5,154.1,21.5"/>
		</g>
		<g>
			<path class="st12" d="M-292.9,361.2c57.8,0,93.4-21.5,154.1-21.5c60.7,0,93.4,21.5,154.1,21.5s93.4-21.5,154.1-21.5
				s92.4,21.5,154.1,21.5"/>
			<path class="st12" d="M323.4,361.2c57.8,0,93.4-21.5,154.1-21.5s93.4,21.5,154.1,21.5s93.4-21.5,154.1-21.5
				c60.7,0,92.4,21.5,154.1,21.5"/>
			<path class="st12" d="M939.6,361.2c57.8,0,93.4-21.5,154.1-21.5c60.7,0,93.4,21.5,154.1,21.5c60.7,0,93.4-21.5,154.1-21.5
				c60.7,0,92.4,21.5,154.1,21.5"/>
			<path class="st12" d="M1555.9,361.2c57.8,0,93.4-21.5,154.1-21.5c60.7,0,93.4,21.5,154.1,21.5c60.7,0,93.4-21.5,154.1-21.5
				c60.7,0,92.4,21.5,154.1,21.5"/>
		</g>
		<g>
			<path class="st13" d="M-292.9,392c57.8,0,93.4-21.5,154.1-21.5c60.7,0,93.4,21.5,154.1,21.5s93.4-21.5,154.1-21.5
				S261.7,392,323.4,392"/>
			<path class="st13" d="M323.4,392c57.8,0,93.4-21.5,154.1-21.5S570.8,392,631.5,392s93.4-21.5,154.1-21.5
				c60.7,0,92.4,21.5,154.1,21.5"/>
			<path class="st13" d="M939.6,392c57.8,0,93.4-21.5,154.1-21.5c60.7,0,93.4,21.5,154.1,21.5c60.7,0,93.4-21.5,154.1-21.5
				c60.7,0,92.4,21.5,154.1,21.5"/>
			<path class="st13" d="M1555.9,392c57.8,0,93.4-21.5,154.1-21.5c60.7,0,93.4,21.5,154.1,21.5c60.7,0,93.4-21.5,154.1-21.5
				c60.7,0,92.4,21.5,154.1,21.5"/>
		</g>
		<g>
			<path class="st14" d="M-292.9,422.8c57.8,0,93.4-21.5,154.1-21.5c60.7,0,93.4,21.5,154.1,21.5s93.4-21.5,154.1-21.5
				s92.4,21.5,154.1,21.5"/>
			<path class="st14" d="M323.4,422.8c57.8,0,93.4-21.5,154.1-21.5s93.4,21.5,154.1,21.5s93.4-21.5,154.1-21.5
				c60.7,0,92.4,21.5,154.1,21.5"/>
			<path class="st14" d="M939.6,422.8c57.8,0,93.4-21.5,154.1-21.5c60.7,0,93.4,21.5,154.1,21.5c60.7,0,93.4-21.5,154.1-21.5
				c60.7,0,92.4,21.5,154.1,21.5"/>
			<path class="st14" d="M1555.9,422.8c57.8,0,93.4-21.5,154.1-21.5c60.7,0,93.4,21.5,154.1,21.5c60.7,0,93.4-21.5,154.1-21.5
				c60.7,0,92.4,21.5,154.1,21.5"/>
		</g>
		<g>
			<path class="st15" d="M-292.9,453.6c57.8,0,93.4-21.5,154.1-21.5c60.7,0,93.4,21.5,154.1,21.5s93.4-21.5,154.1-21.5
				s92.4,21.5,154.1,21.5"/>
			<path class="st15" d="M323.4,453.6c57.8,0,93.4-21.5,154.1-21.5s93.4,21.5,154.1,21.5s93.4-21.5,154.1-21.5
				c60.7,0,92.4,21.5,154.1,21.5"/>
			<path class="st15" d="M939.6,453.6c57.8,0,93.4-21.5,154.1-21.5c60.7,0,93.4,21.5,154.1,21.5c60.7,0,93.4-21.5,154.1-21.5
				c60.7,0,92.4,21.5,154.1,21.5"/>
			<path class="st15" d="M1555.9,453.6c57.8,0,93.4-21.5,154.1-21.5c60.7,0,93.4,21.5,154.1,21.5c60.7,0,93.4-21.5,154.1-21.5
				c60.7,0,92.4,21.5,154.1,21.5"/>
		</g>
		<g>
			<path class="st16" d="M-292.9,484.4c57.8,0,93.4-21.5,154.1-21.5c60.7,0,93.4,21.5,154.1,21.5s93.4-21.5,154.1-21.5
				s92.4,21.5,154.1,21.5"/>
			<path class="st16" d="M323.4,484.4c57.8,0,93.4-21.5,154.1-21.5s93.4,21.5,154.1,21.5s93.4-21.5,154.1-21.5
				c60.7,0,92.4,21.5,154.1,21.5"/>
			<path class="st16" d="M939.6,484.4c57.8,0,93.4-21.5,154.1-21.5c60.7,0,93.4,21.5,154.1,21.5c60.7,0,93.4-21.5,154.1-21.5
				c60.7,0,92.4,21.5,154.1,21.5"/>
			<path class="st16" d="M1555.9,484.4c57.8,0,93.4-21.5,154.1-21.5c60.7,0,93.4,21.5,154.1,21.5c60.7,0,93.4-21.5,154.1-21.5
				c60.7,0,92.4,21.5,154.1,21.5"/>
		</g>
		<g>
			<path class="st17" d="M-292.9,515.2c57.8,0,93.4-21.5,154.1-21.5c60.7,0,93.4,21.5,154.1,21.5s93.4-21.5,154.1-21.5
				s92.4,21.5,154.1,21.5"/>
			<path class="st17" d="M323.4,515.2c57.8,0,93.4-21.5,154.1-21.5s93.4,21.5,154.1,21.5s93.4-21.5,154.1-21.5
				c60.7,0,92.4,21.5,154.1,21.5"/>
			<path class="st17" d="M939.6,515.2c57.8,0,93.4-21.5,154.1-21.5c60.7,0,93.4,21.5,154.1,21.5c60.7,0,93.4-21.5,154.1-21.5
				c60.7,0,92.4,21.5,154.1,21.5"/>
			<path class="st17" d="M1555.9,515.2c57.8,0,93.4-21.5,154.1-21.5c60.7,0,93.4,21.5,154.1,21.5c60.7,0,93.4-21.5,154.1-21.5
				c60.7,0,92.4,21.5,154.1,21.5"/>
		</g>
		<g>
			<path class="st18" d="M-292.9,546c57.8,0,93.4-21.5,154.1-21.5c60.7,0,93.4,21.5,154.1,21.5s93.4-21.5,154.1-21.5
				S261.7,546,323.4,546"/>
			<path class="st18" d="M323.4,546c57.8,0,93.4-21.5,154.1-21.5S570.8,546,631.5,546s93.4-21.5,154.1-21.5
				c60.7,0,92.4,21.5,154.1,21.5"/>
			<path class="st18" d="M939.6,546c57.8,0,93.4-21.5,154.1-21.5c60.7,0,93.4,21.5,154.1,21.5c60.7,0,93.4-21.5,154.1-21.5
				c60.7,0,92.4,21.5,154.1,21.5"/>
			<path class="st18" d="M1555.9,546c57.8,0,93.4-21.5,154.1-21.5c60.7,0,93.4,21.5,154.1,21.5c60.7,0,93.4-21.5,154.1-21.5
				c60.7,0,92.4,21.5,154.1,21.5"/>
		</g>
		<g>
			<path class="st19" d="M-292.9,576.8c57.8,0,93.4-21.5,154.1-21.5c60.7,0,93.4,21.5,154.1,21.5s93.4-21.5,154.1-21.5
				s92.4,21.5,154.1,21.5"/>
			<path class="st19" d="M323.4,576.8c57.8,0,93.4-21.5,154.1-21.5s93.4,21.5,154.1,21.5s93.4-21.5,154.1-21.5
				c60.7,0,92.4,21.5,154.1,21.5"/>
			<path class="st19" d="M939.6,576.8c57.8,0,93.4-21.5,154.1-21.5c60.7,0,93.4,21.5,154.1,21.5c60.7,0,93.4-21.5,154.1-21.5
				c60.7,0,92.4,21.5,154.1,21.5"/>
			<path class="st19" d="M1555.9,576.8c57.8,0,93.4-21.5,154.1-21.5c60.7,0,93.4,21.5,154.1,21.5c60.7,0,93.4-21.5,154.1-21.5
				c60.7,0,92.4,21.5,154.1,21.5"/>
		</g>
		<g>
			<path class="st20" d="M-292.9,607.6c57.8,0,93.4-21.5,154.1-21.5c60.7,0,93.4,21.5,154.1,21.5s93.4-21.5,154.1-21.5
				s92.4,21.5,154.1,21.5"/>
			<path class="st20" d="M323.4,607.6c57.8,0,93.4-21.5,154.1-21.5s93.4,21.5,154.1,21.5s93.4-21.5,154.1-21.5
				c60.7,0,92.4,21.5,154.1,21.5"/>
			<path class="st20" d="M939.6,607.6c57.8,0,93.4-21.5,154.1-21.5c60.7,0,93.4,21.5,154.1,21.5c60.7,0,93.4-21.5,154.1-21.5
				c60.7,0,92.4,21.5,154.1,21.5"/>
			<path class="st20" d="M1555.9,607.6c57.8,0,93.4-21.5,154.1-21.5c60.7,0,93.4,21.5,154.1,21.5c60.7,0,93.4-21.5,154.1-21.5
				c60.7,0,92.4,21.5,154.1,21.5"/>
		</g>
		<g>
			<path class="st21" d="M-292.9,638.4c57.8,0,93.4-21.5,154.1-21.5c60.7,0,93.4,21.5,154.1,21.5s93.4-21.5,154.1-21.5
				s92.4,21.5,154.1,21.5"/>
			<path class="st21" d="M323.4,638.4c57.8,0,93.4-21.5,154.1-21.5s93.4,21.5,154.1,21.5s93.4-21.5,154.1-21.5
				c60.7,0,92.4,21.5,154.1,21.5"/>
			<path class="st21" d="M939.6,638.4c57.8,0,93.4-21.5,154.1-21.5c60.7,0,93.4,21.5,154.1,21.5c60.7,0,93.4-21.5,154.1-21.5
				c60.7,0,92.4,21.5,154.1,21.5"/>
			<path class="st21" d="M1555.9,638.4c57.8,0,93.4-21.5,154.1-21.5c60.7,0,93.4,21.5,154.1,21.5c60.7,0,93.4-21.5,154.1-21.5
				c60.7,0,92.4,21.5,154.1,21.5"/>
		</g>
		<g>
			<path class="st22" d="M-292.9,669.2c57.8,0,93.4-21.5,154.1-21.5c60.7,0,93.4,21.5,154.1,21.5s93.4-21.5,154.1-21.5
				s92.4,21.5,154.1,21.5"/>
			<path class="st22" d="M323.4,669.2c57.8,0,93.4-21.5,154.1-21.5s93.4,21.5,154.1,21.5s93.4-21.5,154.1-21.5
				c60.7,0,92.4,21.5,154.1,21.5"/>
			<path class="st22" d="M939.6,669.2c57.8,0,93.4-21.5,154.1-21.5c60.7,0,93.4,21.5,154.1,21.5c60.7,0,93.4-21.5,154.1-21.5
				c60.7,0,92.4,21.5,154.1,21.5"/>
			<path class="st22" d="M1555.9,669.2c57.8,0,93.4-21.5,154.1-21.5c60.7,0,93.4,21.5,154.1,21.5c60.7,0,93.4-21.5,154.1-21.5
				c60.7,0,92.4,21.5,154.1,21.5"/>
		</g>
		<g>
			<path class="st23" d="M-292.9,700c57.8,0,93.4-21.5,154.1-21.5c60.7,0,93.4,21.5,154.1,21.5s93.4-21.5,154.1-21.5
				S261.7,700,323.4,700"/>
			<path class="st23" d="M323.4,700c57.8,0,93.4-21.5,154.1-21.5S570.8,700,631.5,700s93.4-21.5,154.1-21.5
				c60.7,0,92.4,21.5,154.1,21.5"/>
			<path class="st23" d="M939.6,700c57.8,0,93.4-21.5,154.1-21.5c60.7,0,93.4,21.5,154.1,21.5c60.7,0,93.4-21.5,154.1-21.5
				c60.7,0,92.4,21.5,154.1,21.5"/>
			<path class="st23" d="M1555.9,700c57.8,0,93.4-21.5,154.1-21.5c60.7,0,93.4,21.5,154.1,21.5c60.7,0,93.4-21.5,154.1-21.5
				c60.7,0,92.4,21.5,154.1,21.5"/>
		</g>
		<g>
			<path class="st24" d="M-292.9,730.8c57.8,0,93.4-21.5,154.1-21.5c60.7,0,93.4,21.5,154.1,21.5s93.4-21.5,154.1-21.5
				s92.4,21.5,154.1,21.5"/>
			<path class="st24" d="M323.4,730.8c57.8,0,93.4-21.5,154.1-21.5s93.4,21.5,154.1,21.5s93.4-21.5,154.1-21.5
				c60.7,0,92.4,21.5,154.1,21.5"/>
			<path class="st24" d="M939.6,730.8c57.8,0,93.4-21.5,154.1-21.5c60.7,0,93.4,21.5,154.1,21.5c60.7,0,93.4-21.5,154.1-21.5
				c60.7,0,92.4,21.5,154.1,21.5"/>
			<path class="st24" d="M1555.9,730.8c57.8,0,93.4-21.5,154.1-21.5c60.7,0,93.4,21.5,154.1,21.5c60.7,0,93.4-21.5,154.1-21.5
				c60.7,0,92.4,21.5,154.1,21.5"/>
		</g>
		<g>
			<path class="st25" d="M-292.9,761.6c57.8,0,93.4-21.5,154.1-21.5c60.7,0,93.4,21.5,154.1,21.5s93.4-21.5,154.1-21.5
				s92.4,21.5,154.1,21.5"/>
			<path class="st25" d="M323.4,761.6c57.8,0,93.4-21.5,154.1-21.5s93.4,21.5,154.1,21.5s93.4-21.5,154.1-21.5
				c60.7,0,92.4,21.5,154.1,21.5"/>
			<path class="st25" d="M939.6,761.6c57.8,0,93.4-21.5,154.1-21.5c60.7,0,93.4,21.5,154.1,21.5c60.7,0,93.4-21.5,154.1-21.5
				c60.7,0,92.4,21.5,154.1,21.5"/>
			<path class="st25" d="M1555.9,761.6c57.8,0,93.4-21.5,154.1-21.5c60.7,0,93.4,21.5,154.1,21.5c60.7,0,93.4-21.5,154.1-21.5
				c60.7,0,92.4,21.5,154.1,21.5"/>
		</g>
		<g>
			<path class="st26" d="M-292.9,792.4c57.8,0,93.4-21.5,154.1-21.5c60.7,0,93.4,21.5,154.1,21.5s93.4-21.5,154.1-21.5
				s92.4,21.5,154.1,21.5"/>
			<path class="st26" d="M323.4,792.4c57.8,0,93.4-21.5,154.1-21.5s93.4,21.5,154.1,21.5s93.4-21.5,154.1-21.5
				c60.7,0,92.4,21.5,154.1,21.5"/>
			<path class="st26" d="M939.6,792.4c57.8,0,93.4-21.5,154.1-21.5c60.7,0,93.4,21.5,154.1,21.5c60.7,0,93.4-21.5,154.1-21.5
				c60.7,0,92.4,21.5,154.1,21.5"/>
			<path class="st26" d="M1555.9,792.4c57.8,0,93.4-21.5,154.1-21.5c60.7,0,93.4,21.5,154.1,21.5c60.7,0,93.4-21.5,154.1-21.5
				c60.7,0,92.4,21.5,154.1,21.5"/>
		</g>
		<g>
			<path class="st27" d="M-292.9,823.2c57.8,0,93.4-21.5,154.1-21.5c60.7,0,93.4,21.5,154.1,21.5s93.4-21.5,154.1-21.5
				s92.4,21.5,154.1,21.5"/>
			<path class="st27" d="M323.4,823.2c57.8,0,93.4-21.5,154.1-21.5s93.4,21.5,154.1,21.5s93.4-21.5,154.1-21.5
				c60.7,0,92.4,21.5,154.1,21.5"/>
			<path class="st27" d="M939.6,823.2c57.8,0,93.4-21.5,154.1-21.5c60.7,0,93.4,21.5,154.1,21.5c60.7,0,93.4-21.5,154.1-21.5
				c60.7,0,92.4,21.5,154.1,21.5"/>
			<path class="st27" d="M1555.9,823.2c57.8,0,93.4-21.5,154.1-21.5c60.7,0,93.4,21.5,154.1,21.5c60.7,0,93.4-21.5,154.1-21.5
				c60.7,0,92.4,21.5,154.1,21.5"/>
		</g>
		<g>
			<path class="st28" d="M-292.9,854c57.8,0,93.4-21.5,154.1-21.5c60.7,0,93.4,21.5,154.1,21.5s93.4-21.5,154.1-21.5
				S261.7,854,323.4,854"/>
			<path class="st28" d="M323.4,854c57.8,0,93.4-21.5,154.1-21.5S570.8,854,631.5,854s93.4-21.5,154.1-21.5
				c60.7,0,92.4,21.5,154.1,21.5"/>
			<path class="st28" d="M939.6,854c57.8,0,93.4-21.5,154.1-21.5c60.7,0,93.4,21.5,154.1,21.5c60.7,0,93.4-21.5,154.1-21.5
				c60.7,0,92.4,21.5,154.1,21.5"/>
			<path class="st28" d="M1555.9,854c57.8,0,93.4-21.5,154.1-21.5c60.7,0,93.4,21.5,154.1,21.5c60.7,0,93.4-21.5,154.1-21.5
				c60.7,0,92.4,21.5,154.1,21.5"/>
		</g>
		<g>
			<path class="st29" d="M-292.9,884.8c57.8,0,93.4-21.5,154.1-21.5c60.7,0,93.4,21.5,154.1,21.5s93.4-21.5,154.1-21.5
				s92.4,21.5,154.1,21.5"/>
			<path class="st29" d="M323.4,884.8c57.8,0,93.4-21.5,154.1-21.5s93.4,21.5,154.1,21.5s93.4-21.5,154.1-21.5
				c60.7,0,92.4,21.5,154.1,21.5"/>
			<path class="st29" d="M939.6,884.8c57.8,0,93.4-21.5,154.1-21.5c60.7,0,93.4,21.5,154.1,21.5c60.7,0,93.4-21.5,154.1-21.5
				c60.7,0,92.4,21.5,154.1,21.5"/>
			<path class="st29" d="M1555.9,884.8c57.8,0,93.4-21.5,154.1-21.5c60.7,0,93.4,21.5,154.1,21.5c60.7,0,93.4-21.5,154.1-21.5
				c60.7,0,92.4,21.5,154.1,21.5"/>
		</g>
		<g>
			<path class="st30" d="M-292.9,915.6c57.8,0,93.4-21.5,154.1-21.5c60.7,0,93.4,21.5,154.1,21.5s93.4-21.5,154.1-21.5
				s92.4,21.5,154.1,21.5"/>
			<path class="st30" d="M323.4,915.6c57.8,0,93.4-21.5,154.1-21.5s93.4,21.5,154.1,21.5s93.4-21.5,154.1-21.5
				c60.7,0,92.4,21.5,154.1,21.5"/>
			<path class="st30" d="M939.6,915.6c57.8,0,93.4-21.5,154.1-21.5c60.7,0,93.4,21.5,154.1,21.5c60.7,0,93.4-21.5,154.1-21.5
				c60.7,0,92.4,21.5,154.1,21.5"/>
			<path class="st30" d="M1555.9,915.6c57.8,0,93.4-21.5,154.1-21.5c60.7,0,93.4,21.5,154.1,21.5c60.7,0,93.4-21.5,154.1-21.5
				c60.7,0,92.4,21.5,154.1,21.5"/>
		</g>
		<g>
			<path class="st31" d="M-292.9,946.3c57.8,0,93.4-21.5,154.1-21.5c60.7,0,93.4,21.5,154.1,21.5s93.4-21.5,154.1-21.5
				s92.4,21.5,154.1,21.5"/>
			<path class="st31" d="M323.4,946.3c57.8,0,93.4-21.5,154.1-21.5s93.4,21.5,154.1,21.5s93.4-21.5,154.1-21.5
				c60.7,0,92.4,21.5,154.1,21.5"/>
			<path class="st31" d="M939.6,946.3c57.8,0,93.4-21.5,154.1-21.5c60.7,0,93.4,21.5,154.1,21.5c60.7,0,93.4-21.5,154.1-21.5
				c60.7,0,92.4,21.5,154.1,21.5"/>
			<path class="st31" d="M1555.9,946.3c57.8,0,93.4-21.5,154.1-21.5c60.7,0,93.4,21.5,154.1,21.5c60.7,0,93.4-21.5,154.1-21.5
				c60.7,0,92.4,21.5,154.1,21.5"/>
		</g>
		<g>
			<path class="st32" d="M-292.9,977.1c57.8,0,93.4-21.5,154.1-21.5c60.7,0,93.4,21.5,154.1,21.5s93.4-21.5,154.1-21.5
				s92.4,21.5,154.1,21.5"/>
			<path class="st32" d="M323.4,977.1c57.8,0,93.4-21.5,154.1-21.5s93.4,21.5,154.1,21.5s93.4-21.5,154.1-21.5
				c60.7,0,92.4,21.5,154.1,21.5"/>
			<path class="st32" d="M939.6,977.1c57.8,0,93.4-21.5,154.1-21.5c60.7,0,93.4,21.5,154.1,21.5c60.7,0,93.4-21.5,154.1-21.5
				c60.7,0,92.4,21.5,154.1,21.5"/>
			<path class="st32" d="M1555.9,977.1c57.8,0,93.4-21.5,154.1-21.5c60.7,0,93.4,21.5,154.1,21.5c60.7,0,93.4-21.5,154.1-21.5
				c60.7,0,92.4,21.5,154.1,21.5"/>
		</g>
		<g>
			<path class="st33" d="M-292.9,1007.9c57.8,0,93.4-21.5,154.1-21.5c60.7,0,93.4,21.5,154.1,21.5s93.4-21.5,154.1-21.5
				s92.4,21.5,154.1,21.5"/>
			<path class="st33" d="M323.4,1007.9c57.8,0,93.4-21.5,154.1-21.5s93.4,21.5,154.1,21.5s93.4-21.5,154.1-21.5
				c60.7,0,92.4,21.5,154.1,21.5"/>
			<path class="st33" d="M939.6,1007.9c57.8,0,93.4-21.5,154.1-21.5c60.7,0,93.4,21.5,154.1,21.5c60.7,0,93.4-21.5,154.1-21.5
				c60.7,0,92.4,21.5,154.1,21.5"/>
			<path class="st33" d="M1555.9,1007.9c57.8,0,93.4-21.5,154.1-21.5c60.7,0,93.4,21.5,154.1,21.5c60.7,0,93.4-21.5,154.1-21.5
				c60.7,0,92.4,21.5,154.1,21.5"/>
		</g>
		<g>
			<path class="st34" d="M-292.9,1038.7c57.8,0,93.4-21.5,154.1-21.5c60.7,0,93.4,21.5,154.1,21.5s93.4-21.5,154.1-21.5
				s92.4,21.5,154.1,21.5"/>
			<path class="st34" d="M323.4,1038.7c57.8,0,93.4-21.5,154.1-21.5s93.4,21.5,154.1,21.5s93.4-21.5,154.1-21.5
				c60.7,0,92.4,21.5,154.1,21.5"/>
			<path class="st34" d="M939.6,1038.7c57.8,0,93.4-21.5,154.1-21.5c60.7,0,93.4,21.5,154.1,21.5c60.7,0,93.4-21.5,154.1-21.5
				c60.7,0,92.4,21.5,154.1,21.5"/>
			<path class="st34" d="M1555.9,1038.7c57.8,0,93.4-21.5,154.1-21.5c60.7,0,93.4,21.5,154.1,21.5c60.7,0,93.4-21.5,154.1-21.5
				c60.7,0,92.4,21.5,154.1,21.5"/>
		</g>
		<g>
			<path class="st35" d="M-292.9,1069.5c57.8,0,93.4-21.5,154.1-21.5c60.7,0,93.4,21.5,154.1,21.5s93.4-21.5,154.1-21.5
				s92.4,21.5,154.1,21.5"/>
			<path class="st35" d="M323.4,1069.5c57.8,0,93.4-21.5,154.1-21.5s93.4,21.5,154.1,21.5s93.4-21.5,154.1-21.5
				c60.7,0,92.4,21.5,154.1,21.5"/>
			<path class="st35" d="M939.6,1069.5c57.8,0,93.4-21.5,154.1-21.5c60.7,0,93.4,21.5,154.1,21.5c60.7,0,93.4-21.5,154.1-21.5
				c60.7,0,92.4,21.5,154.1,21.5"/>
			<path class="st35" d="M1555.9,1069.5c57.8,0,93.4-21.5,154.1-21.5c60.7,0,93.4,21.5,154.1,21.5c60.7,0,93.4-21.5,154.1-21.5
				c60.7,0,92.4,21.5,154.1,21.5"/>
		</g>
		<g>
			<path class="st36" d="M-292.9,1100.3c57.8,0,93.4-21.5,154.1-21.5c60.7,0,93.4,21.5,154.1,21.5s93.4-21.5,154.1-21.5
				s92.4,21.5,154.1,21.5"/>
			<path class="st36" d="M323.4,1100.3c57.8,0,93.4-21.5,154.1-21.5s93.4,21.5,154.1,21.5s93.4-21.5,154.1-21.5
				c60.7,0,92.4,21.5,154.1,21.5"/>
			<path class="st36" d="M939.6,1100.3c57.8,0,93.4-21.5,154.1-21.5c60.7,0,93.4,21.5,154.1,21.5c60.7,0,93.4-21.5,154.1-21.5
				c60.7,0,92.4,21.5,154.1,21.5"/>
			<path class="st36" d="M1555.9,1100.3c57.8,0,93.4-21.5,154.1-21.5c60.7,0,93.4,21.5,154.1,21.5c60.7,0,93.4-21.5,154.1-21.5
				c60.7,0,92.4,21.5,154.1,21.5"/>
		</g>
		<g>
			<path class="st37" d="M-292.9,1131.1c57.8,0,93.4-21.5,154.1-21.5c60.7,0,93.4,21.5,154.1,21.5s93.4-21.5,154.1-21.5
				s92.4,21.5,154.1,21.5"/>
			<path class="st37" d="M323.4,1131.1c57.8,0,93.4-21.5,154.1-21.5s93.4,21.5,154.1,21.5s93.4-21.5,154.1-21.5
				c60.7,0,92.4,21.5,154.1,21.5"/>
			<path class="st37" d="M939.6,1131.1c57.8,0,93.4-21.5,154.1-21.5c60.7,0,93.4,21.5,154.1,21.5c60.7,0,93.4-21.5,154.1-21.5
				c60.7,0,92.4,21.5,154.1,21.5"/>
			<path class="st37" d="M1555.9,1131.1c57.8,0,93.4-21.5,154.1-21.5c60.7,0,93.4,21.5,154.1,21.5c60.7,0,93.4-21.5,154.1-21.5
				c60.7,0,92.4,21.5,154.1,21.5"/>
		</g>
		<g>
			<path class="st38" d="M-292.9,1161.9c57.8,0,93.4-21.5,154.1-21.5c60.7,0,93.4,21.5,154.1,21.5s93.4-21.5,154.1-21.5
				s92.4,21.5,154.1,21.5"/>
			<path class="st38" d="M323.4,1161.9c57.8,0,93.4-21.5,154.1-21.5s93.4,21.5,154.1,21.5s93.4-21.5,154.1-21.5
				c60.7,0,92.4,21.5,154.1,21.5"/>
			<path class="st38" d="M939.6,1161.9c57.8,0,93.4-21.5,154.1-21.5c60.7,0,93.4,21.5,154.1,21.5c60.7,0,93.4-21.5,154.1-21.5
				c60.7,0,92.4,21.5,154.1,21.5"/>
			<path class="st38" d="M1555.9,1161.9c57.8,0,93.4-21.5,154.1-21.5c60.7,0,93.4,21.5,154.1,21.5c60.7,0,93.4-21.5,154.1-21.5
				c60.7,0,92.4,21.5,154.1,21.5"/>
		</g>
	</g>
</g>
</svg>
